<?xml version="1.0" standalone="no"?>
<!DOCTYPE svg PUBLIC "-//W3C//DTD SVG 1.1//EN" "http://www.w3.org/Graphics/SVG/1.1/DTD/svg11.dtd" >
<svg xmlns="http://www.w3.org/2000/svg">
<metadata>
Created by FontPrep 20130207 at Thu Sep 26 22:03:23 2013
 By Hans van der Woerd
2010 Albert-Jan Pool published by FSI FontShop International GmbH
</metadata>
<defs>
<font id="ae56ba07ccff5dca414f116bac580918" horiz-adv-x='1024' >
  <font-face 
    font-family="DINRoundPro-Medium"
    font-weight="500"
    font-stretch="normal"
    units-per-em="2048"
    panose-1="2 11 6 4 2 1 1 2 1 2"
    ascent="1565"
    descent="-483"
    x-height="1038"
    cap-height="1458"
    bbox="-224.048 -506 2407 2136.22"
    underline-thickness="159"
    underline-position="-129"
    unicode-range="U+000D-FB02"
  />
<missing-glyph horiz-adv-x="1174" 
d="M387 1262v-1065h400v1065h-400zM301 1458h572q72 0 104 -32t32 -103v-1188q0 -71 -32 -103t-104 -32h-572q-71 0 -103 32t-32 103v1188q0 71 32 103t103 32z" />
    <glyph glyph-name=".notdef" horiz-adv-x="1174" 
d="M387 1262v-1065h400v1065h-400zM301 1458h572q72 0 104 -32t32 -103v-1188q0 -71 -32 -103t-104 -32h-572q-71 0 -103 32t-32 103v1188q0 71 32 103t103 32z" />
    <glyph glyph-name=".null" horiz-adv-x="0" 
 />
    <glyph glyph-name=".null" horiz-adv-x="0" 
 />
    <glyph glyph-name="nonmarkingreturn" horiz-adv-x="681" 
 />
    <glyph glyph-name="CR" unicode="&#xd;" horiz-adv-x="491" 
 />
    <glyph glyph-name="space" unicode=" " horiz-adv-x="491" 
 />
    <glyph glyph-name="exclam" unicode="!" horiz-adv-x="680" 
d="M243 127q0 55 39 94t94 39t94 -39t39 -94t-39 -94t-94 -39t-94 39t-39 94zM376 1466q113 0 110 -150v-739q0 -70 -16 -101q-28 -50 -94 -50t-94 50q-17 31 -17 101v739q1 68 23 109t88 41z" />
    <glyph glyph-name="quotedbl" unicode="&#x22;" horiz-adv-x="875" 
d="M633 1470q60 0 82 -38t22 -103v-216q1 -65 -21 -103t-83 -38t-83 38t-22 103v216q0 65 22 103t83 38zM243 1470q60 0 82 -38t22 -103v-216q1 -65 -21 -103t-83 -38t-83 38t-22 103v216q0 65 22 103t83 38z" />
    <glyph glyph-name="numbersign" unicode="#" horiz-adv-x="1431" 
d="M604 879l-53 -268h276l54 268h-277zM1128 423h-136l-63 -318q-13 -66 -37 -90q-24 -23 -68 -23q-42 0 -68 25q-45 43 -22 127l56 279h-277l-63 -318q-14 -66 -38 -90q-24 -23 -66 -23t-70 25q-45 42 -21 127l55 279h-76q-59 0 -93 20t-35 74q0 54 44 80q24 14 84 14h114
l53 268h-98q-59 0 -93 20t-35 74q0 54 43 80q24 14 85 14h136l60 294q13 66 37 90t67 24q43 1 69 -25q45 -43 21 -128l-51 -255h277l59 294q14 66 38 90t66 24q42 1 68 -25q47 -45 22 -128l-51 -255h76q61 0 85 -14q43 -26 43 -80q-1 -54 -35 -74t-93 -20h-114l-53 -268h98
q61 0 85 -14q43 -26 43 -80t-34 -74t-94 -20z" />
    <glyph glyph-name="dollar" unicode="$" horiz-adv-x="1210" 
d="M329 1048q1 -86 51 -130t122 -60v409q-84 -20 -128 -77t-45 -142zM886 416q0 96 -53 142t-155 63v-430q208 35 208 225zM496 1532q0 60 20 94t74 34t80 -43q14 -24 14 -85v-65q120 -10 260 -83q89 -46 89 -111q0 -38 -26 -69q-52 -62 -147 -5q-95 58 -182 72v-443l38 -5
q180 -27 270 -108q119 -110 119 -292t-115 -293t-306 -136v-109q0 -61 -14 -85q-26 -43 -80 -43q-54 1 -74 35t-20 93v106q-168 12 -308 95q-58 34 -80 62t-23 68q0 40 29 70q60 60 164 -12q105 -72 224 -86v458l-5 1q-177 26 -281 121q-104 96 -102 270q0 174 101 286
t281 139v69z" />
    <glyph glyph-name="percent" unicode="%" horiz-adv-x="1721" 
d="M1604 473v-208q0 -130 -82 -204q-82 -73 -206 -73t-206 74t-82 203v208q0 130 82 205t206 75t206 -75t82 -205zM1447 271v197q0 145 -131 145t-131 -145v-197q0 -145 131 -145t131 145zM693 1191v-208q0 -130 -81 -204q-82 -73 -206 -73t-206 74t-82 203v208
q0 130 82 205q82 74 206 74t206 -74q81 -74 81 -205zM537 989v197q0 145 -131 145t-132 -145v-197q0 -145 132 -145t131 145zM610 59q-34 -67 -78 -67q-18 0 -35 9q-40 19 -41 51t19 75l637 1272q34 67 78 67q17 0 36 -9q68 -32 21 -126z" />
    <glyph glyph-name="ampersand" unicode="&#x26;" horiz-adv-x="1462" 
d="M779 1151q0 53 -41 95t-106 42t-103 -40q-39 -40 -39 -92t26 -97q26 -44 87 -115l70 47q50 34 78 70t28 90zM593 176q95 0 161 26t136 89l-346 411q-90 -62 -142 -121q-53 -59 -53 -162t74 -173t170 -70zM1298 672q0 -34 -12 -100q-30 -165 -127 -279l84 -100
q49 -60 49 -101t-36 -71q-36 -29 -68 -29t-54 15t-52 51l-69 83q-173 -153 -400 -153q-226 0 -349 116q-124 116 -124 317q0 200 203 353q36 27 86 60q-112 129 -138 220q-13 45 -13 93q0 141 97 232t255 91t254 -92t96 -238t-156 -253l-106 -74l307 -367q63 88 75 230
q10 113 99 115q99 0 99 -119z" />
    <glyph glyph-name="quotesingle" unicode="'" horiz-adv-x="485" 
d="M243 1470q60 0 82 -38t22 -103v-216q1 -65 -21 -103t-83 -38t-83 38t-22 103v216q0 65 22 103t83 38z" />
    <glyph glyph-name="parenleft" unicode="(" horiz-adv-x="650" 
d="M388 253q0 -100 28 -156t67 -93q57 -50 57 -96t-28 -76q-30 -30 -76 -30t-112 69q-68 69 -106 147t-39 223v978q1 145 39 223t117 159q55 56 101 56t76 -30t29 -75q-1 -46 -49 -90t-76 -100t-28 -156v-953z" />
    <glyph glyph-name="parenright" unicode=")" horiz-adv-x="650" 
d="M262 253v953q0 100 -28 156t-67 93q-57 51 -57 97t29 76t75 29q46 0 101 -56q79 -81 117 -159t39 -223v-978q-1 -145 -39 -223t-106 -147q-114 -115 -188 -38q-28 29 -28 75t48 89q48 44 76 100t28 156z" />
    <glyph glyph-name="asterisk" unicode="*" horiz-adv-x="976" 
d="M563 788q-1 -102 -75 -102t-74 102v159l-136 -82q-88 -54 -128 12q-22 37 -6 64t57 52l143 86l-143 86q-41 25 -54 45q-19 34 4 72q39 64 127 11l136 -82v159q0 103 74 103q43 1 59 -27t16 -76v-159l136 82q88 54 128 -11q22 -36 6 -64t-57 -53l-143 -86l143 -86
q88 -53 49 -117q-38 -63 -126 -11l-136 82v-159z" />
    <glyph glyph-name="plus" unicode="+" horiz-adv-x="1091" 
d="M452 247v227h-228q-60 0 -94 20t-34 74t43 80q24 14 85 15h228v227q0 60 20 94t74 34t80 -43q14 -24 14 -85v-227h227q61 0 85 -15q43 -26 43 -80q-1 -54 -35 -74t-93 -20h-227v-227q0 -61 -14 -85q-26 -43 -80 -43q-54 1 -74 35t-20 93z" />
    <glyph glyph-name="comma" unicode="," horiz-adv-x="530" 
d="M284 292q36 0 68 -21q61 -39 24 -153l-90 -271q-20 -62 -46 -85q-26 -22 -62 -22t-68 21q-61 39 -24 153l90 270q20 62 46 85t62 23z" />
    <glyph glyph-name="hyphen" unicode="-" horiz-adv-x="874" 
d="M616 474h-358q-60 0 -94 20t-34 74t43 80q24 14 85 15h358q61 0 85 -15q43 -26 43 -80t-34 -74t-94 -20z" />
    <glyph glyph-name="period" unicode="." horiz-adv-x="571" 
d="M435 143q0 -61 -44 -105t-105 -44t-106 44q-44 44 -44 105t44 105t106 43q62 1 105 -43q44 -44 44 -105z" />
    <glyph glyph-name="slash" unicode="/" horiz-adv-x="779" 
d="M134 -160q-38 0 -66 19t-38 49t13 95l506 1515q16 50 37 75q22 25 60 25t66 -19t38 -48t-14 -96l-506 -1514q-16 -49 -37 -75t-59 -26z" />
    <glyph glyph-name="zero" unicode="0" horiz-adv-x="1091" 
d="M758 414v630q0 106 -58 172t-154 66q-98 0 -155 -66t-57 -172v-630q0 -106 57 -172t155 -66t154 66q58 66 58 172zM967 406q0 -190 -121 -304q-120 -114 -300 -114t-301 114q-120 114 -120 304v647q0 189 120 303t300 114t301 -114t121 -303v-647z" />
    <glyph glyph-name="one" unicode="1" horiz-adv-x="1091" 
d="M618 1466q110 0 110 -140v-1192q0 -62 -20 -102t-84 -40t-84 40t-21 102v1015l-144 -144q-46 -46 -73 -53q-50 -12 -90 28t-30 80q11 40 55 83l267 267q56 56 114 56z" />
    <glyph glyph-name="two" unicode="2" horiz-adv-x="1091" 
d="M857 188q61 0 85 -14q43 -24 43 -80t-43 -80q-26 -14 -85 -14h-590q-47 0 -73 5t-50 31t-24 62t13 60t45 65l488 611q51 66 75 120t24 134t-56 137t-146 57t-144 -39q-55 -39 -77 -108t-46 -91t-68 -22q-46 0 -71 32t-25 81t31 116t86 116q118 103 307 103t304 -102
t115 -287q0 -103 -35 -178t-113 -172l-433 -543h463z" />
    <glyph glyph-name="three" unicode="3" horiz-adv-x="1091" 
d="M522 1470q200 0 320 -108t121 -292q0 -225 -189 -316q96 -39 150 -125q54 -87 55 -219q0 -132 -62 -230q-122 -194 -386 -192q-226 0 -348 137q-80 91 -80 189q1 48 33 80t75 33q43 0 65 -29q10 -12 24 -51t26 -62q53 -109 206 -109q104 0 171 64t67 176t-61 175
q-61 62 -171 65t-111 92q0 88 106 90t163 61t57 162q-1 103 -61 162t-150 59t-139 -35t-69 -98t-46 -84t-64 -21t-69 28q-32 30 -32 80q0 92 77 178q122 140 322 140z" />
    <glyph glyph-name="four" unicode="4" horiz-adv-x="1091" 
d="M833 134q0 -142 -105 -142q-64 0 -84 40t-20 102v90h-433q-75 0 -109 28t-35 68q0 41 28 96l480 962q27 52 51 70t56 18t64 -27q30 -27 30 -61t-27 -87l-434 -870h329v213q0 62 20 102t84 40t84 -40t21 -102v-213h69q63 0 99 -20t36 -78t-36 -78t-99 -21h-69v-90z" />
    <glyph glyph-name="five" unicode="5" horiz-adv-x="1091" 
d="M550 -12q-280 0 -385 202q-29 58 -29 113t28 85t72 31q44 0 69 -23q24 -23 46 -90q42 -130 197 -130q100 0 150 49t62 111q13 62 13 141q0 236 -108 294q-43 23 -108 23t-109 -20t-72 -54q-28 -36 -52 -50t-64 -14q-41 0 -70 28t-28 89v566q0 65 27 93t91 26h548
q61 0 85 -14q43 -26 43 -80t-34 -74t-94 -20h-477v-382q85 85 247 85q162 -1 248 -85q84 -84 110 -181t26 -225t-25 -217q-25 -90 -99 -164q-112 -113 -308 -113z" />
    <glyph glyph-name="six" unicode="6" horiz-adv-x="1091" 
d="M769 425q0 113 -60 184t-161 71t-162 -68t-61 -184t61 -184t160 -68t161 68t62 181zM595 854q163 0 273 -117t110 -311t-120 -316t-310 -122t-312 118q-120 118 -120 318q0 141 102 346l304 608q27 52 51 70t57 18t63 -27t30 -61t-27 -87l-230 -460q53 23 129 23z" />
    <glyph glyph-name="seven" unicode="7" horiz-adv-x="1091" 
d="M447 -8q-34 0 -66 22q-31 22 -35 55t18 90l416 1111h-444v-93q0 -62 -15 -94q-25 -49 -89 -49t-84 40t-21 103v153q0 68 30 98t98 30h607q47 0 72 -6t51 -28q26 -24 26 -62t-24 -100l-439 -1172q-23 -59 -44 -79q-23 -19 -57 -19z" />
    <glyph glyph-name="eight" unicode="8" horiz-adv-x="1091" 
d="M785 418q0 102 -69 171t-170 69t-171 -70t-70 -170q0 -102 70 -172t171 -70t170 70t69 172zM546 841q94 0 155 62q62 61 62 157q1 96 -61 159t-156 63t-156 -63t-61 -158q0 -95 61 -158q62 -62 156 -62zM995 412q0 -194 -129 -309q-130 -115 -322 -115t-320 115t-128 309
q0 221 201 342q-78 47 -127 126t-49 187q0 180 121 292q120 111 302 111t304 -112t123 -291q0 -108 -49 -187t-127 -126q200 -121 200 -342z" />
    <glyph glyph-name="nine" unicode="9" horiz-adv-x="1091" 
d="M323 1033q0 -113 60 -184t161 -71t162 68t61 184t-61 184t-160 68t-161 -68t-62 -181zM497 604q-162 0 -273 117q-110 117 -110 311t119 316q120 122 311 122q192 0 312 -118t120 -318q0 -141 -103 -346l-304 -608q-27 -52 -51 -70t-56 -18t-63 27t-31 61t27 87l231 460
q-53 -23 -129 -23z" />
    <glyph glyph-name="colon" unicode=":" horiz-adv-x="622" 
d="M487 712q0 -62 -44 -106t-105 -44t-106 44q-44 44 -44 106t44 104q44 43 106 43t105 -43q44 -43 44 -104zM487 143q0 -61 -44 -105t-105 -44t-106 44q-44 44 -44 105t44 105t106 43q62 1 105 -43q44 -44 44 -105z" />
    <glyph glyph-name="semicolon" unicode=";" horiz-adv-x="622" 
d="M516 711q0 -61 -44 -105t-105 -45q-61 0 -106 44q-44 43 -44 105t44 105q43 43 105 43t106 -43t44 -104zM362 292q35 0 68 -21q61 -39 25 -153l-90 -271q-21 -62 -47 -85q-55 -48 -129 -1q-60 38 -24 153l90 270q20 62 46 85t61 23z" />
    <glyph glyph-name="less" unicode="&#x3c;" horiz-adv-x="1091" 
d="M831 964q34 0 61 -30q28 -30 28 -64q0 -33 -18 -57t-71 -50l-389 -195l389 -194q53 -27 71 -51t18 -57t-28 -63t-61 -30q-34 0 -87 27l-480 239q-84 39 -101 83q-8 20 -8 59q0 64 109 116l480 240q53 27 87 27z" />
    <glyph glyph-name="equal" unicode="=" horiz-adv-x="1091" 
d="M867 460q128 0 128 -94t-128 -95h-643q-128 0 -128 95q0 54 43 79q24 14 85 15h643zM867 676h-643q-60 0 -94 20t-34 74t43 80q24 14 85 14h643q61 0 85 -14q43 -26 43 -80q-1 -54 -35 -74t-93 -20z" />
    <glyph glyph-name="greater" unicode="&#x3e;" horiz-adv-x="1091" 
d="M260 173q-34 0 -61 30t-27 63q0 34 17 58t71 50l389 194l-389 195q-52 27 -70 51t-18 56t27 63t61 31t87 -27l480 -240q86 -40 102 -83q8 -20 8 -59t-30 -65t-80 -51l-480 -239q-53 -27 -87 -27z" />
    <glyph glyph-name="question" unicode="?" horiz-adv-x="1045" 
d="M963 1085q0 -75 -24 -131t-73 -123l-140 -193q-40 -54 -48 -114q-17 -119 -112 -118q-48 0 -77 32t-29 84t15 93q14 41 55 97l160 215q62 83 62 163t-54 136q-56 56 -144 57q-88 0 -136 -47q-48 -46 -64 -110t-38 -89t-68 -25t-72 30q-57 62 3 202q29 66 81 116
q116 110 292 110t294 -106t117 -279zM432 127q0 55 39 94t94 39t94 -39t39 -94t-39 -94t-94 -39t-94 39t-39 94z" />
    <glyph glyph-name="at" unicode="@" horiz-adv-x="1508" 
d="M1273 -8q-98 0 -102 106q-55 -61 -116 -86t-142 -24q-155 0 -242 88q-67 66 -91 164t-24 240t24 239q24 98 91 165q88 88 247 88t256 -115l1 120q0 78 -16 128t-59 93q-77 77 -215 77h-261q-138 0 -215 -77q-43 -43 -59 -93t-16 -128v-633q0 -75 13 -111t51 -78t39 -82
q0 -39 -33 -69q-32 -30 -66 -30t-55 14t-63 62q-42 46 -66 110t-23 175v650q0 237 120 357t352 121h303q231 0 351 -121t120 -357v-851q-1 -62 -21 -102t-83 -40zM1175 446q0 105 -9 158t-31 99q-45 94 -170 94t-167 -94q-41 -86 -39 -224q0 -232 102 -292q43 -23 105 -23
q125 1 167 89t42 193z" />
    <glyph glyph-name="A" unicode="A" horiz-adv-x="1275" 
d="M1196 18q-26 -26 -78 -26q-53 0 -82 50q-9 17 -23 55l-73 196h-604l-73 -196q-24 -66 -50 -86q-25 -19 -67 -19t-75 36q-34 36 -22 88q5 21 18 55l446 1189q39 108 125 107t125 -107l446 -1189q25 -66 19 -96q-6 -31 -32 -57zM871 481l-233 638l-234 -638h467z" />
    <glyph glyph-name="B" unicode="B" horiz-adv-x="1357" 
d="M411 841h327q110 0 174 55t64 155t-65 155t-173 56h-327v-421zM759 644h-348v-447h348q113 0 176 62t63 162q0 99 -63 161t-176 62zM779 0h-454q-72 0 -104 32t-32 103v1188q0 71 32 103t104 32h432q203 0 321 -108t119 -291q0 -112 -58 -195t-139 -114q94 -38 156 -124
t64 -214q0 -196 -121 -304t-320 -108z" />
    <glyph glyph-name="C" unicode="C" horiz-adv-x="1283" 
d="M138 729q0 314 34 414t113 179q148 148 375 148q243 0 375 -142q119 -128 119 -247q0 -49 -32 -79t-72 -30t-68 22t-62 100q-34 80 -99 130t-177 50t-198 -91q-55 -61 -71 -149t-16 -305t16 -305t71 -149q85 -91 197 -91q199 0 277 180q34 80 62 101q26 21 68 21t73 -30
t31 -79q0 -119 -126 -254t-361 -135q-234 0 -382 148q-140 140 -145 374q-2 109 -2 219z" />
    <glyph glyph-name="D" unicode="D" horiz-adv-x="1363" 
d="M411 1262v-1065h266q165 0 251 99q50 56 63 150t13 282t-12 284q-14 94 -64 150q-86 99 -251 100h-266zM325 1458h377q268 0 416 -185q71 -90 89 -204q19 -114 19 -338t-20 -340t-90 -208q-142 -183 -414 -183h-377q-72 0 -104 32t-32 103v1188q0 71 32 103t104 32z" />
    <glyph glyph-name="E" unicode="E" horiz-adv-x="1231" 
d="M411 1262v-428h481q63 0 90 -15q45 -26 45 -84t-36 -78t-99 -20h-481v-440h585q63 0 90 -15q46 -26 46 -84t-46 -84q-27 -14 -90 -14h-671q-72 0 -104 32t-32 103v1188q0 71 32 103t104 32h671q63 0 99 -20q37 -20 37 -78t-46 -84q-27 -14 -90 -14h-585z" />
    <glyph glyph-name="F" unicode="F" horiz-adv-x="1196" 
d="M411 1262v-448h481q63 0 99 -20t36 -78t-36 -78t-99 -21h-481v-475q-1 -68 -23 -109t-88 -41t-94 50q-17 31 -17 100v1181q0 71 32 103t104 32h671q63 0 99 -20q37 -20 37 -78t-46 -84q-27 -14 -90 -14h-585z" />
    <glyph glyph-name="G" unicode="G" horiz-adv-x="1312" 
d="M359 728q1 -218 17 -308q16 -89 69 -145q85 -91 215 -91t219 88q49 50 66 116t17 186h-185q-63 0 -90 15q-45 26 -45 84t36 78t99 20h262q72 0 104 -32t32 -103v-22q-1 -186 -29 -290t-110 -186q-150 -150 -376 -150t-375 148q-140 140 -145 374q-2 109 -2 219
q0 314 34 414t113 179q148 148 375 148q243 0 375 -142q119 -128 119 -247q0 -49 -32 -79t-72 -30t-68 22t-62 100q-34 80 -99 130t-177 50t-198 -91q-55 -61 -71 -149t-16 -306z" />
    <glyph glyph-name="H" unicode="H" horiz-adv-x="1413" 
d="M411 835h591v481q0 68 22 109t90 41q66 0 93 -50q17 -31 17 -100v-1174q0 -68 -22 -109t-90 -41q-66 0 -93 50q-17 31 -17 100v496h-591v-496q-1 -68 -23 -109t-88 -41t-94 50q-17 31 -17 100v1174q1 68 23 109t88 41t94 -50q17 -31 17 -100v-481z" />
    <glyph glyph-name="I" unicode="I" horiz-adv-x="600" 
d="M411 142q-1 -68 -23 -109t-88 -41t-94 50q-17 31 -17 100v1174q1 68 23 109t88 41t94 -50q17 -31 17 -100v-1174z" />
    <glyph glyph-name="J" unicode="J" horiz-adv-x="1036" 
d="M760 1466q113 0 109 -150v-855q0 -146 -66 -256q-131 -217 -435 -217q-150 0 -265 83q-52 37 -52 85q1 48 29 76t64 27q36 1 95 -37q60 -38 145 -38q126 0 195 76t69 219v837q0 68 22 109q24 41 90 41z" />
    <glyph glyph-name="K" unicode="K" horiz-adv-x="1325" 
d="M411 142q-1 -68 -23 -109t-88 -41t-94 50q-17 31 -17 100v1174q1 68 23 109t88 41t94 -50q17 -31 17 -100v-586l552 670q29 36 51 51t55 15t69 -30t34 -64q0 -34 -10 -53t-39 -53l-310 -375l399 -702q34 -59 35 -91q2 -58 -54 -91q-25 -15 -61 -15t-59 22t-49 68
l-365 642l-248 -299v-283z" />
    <glyph glyph-name="L" unicode="L" horiz-adv-x="1172" 
d="M325 0q-72 0 -104 32t-32 103v1181q1 68 23 109t88 41t94 -50q17 -31 17 -100v-1119h575q63 0 90 -15q45 -26 45 -84t-36 -78t-99 -20h-661z" />
    <glyph glyph-name="M" unicode="M" horiz-adv-x="1665" 
d="M411 142q-1 -68 -23 -109t-88 -41t-94 50q-17 31 -17 100v1188q0 70 33 104q34 34 76 32q42 0 70 -16t52 -65l414 -843l411 843q25 49 53 65t70 16t75 -33t33 -103v-1188q0 -68 -22 -109t-90 -41q-66 0 -93 50q-17 31 -17 100v833l-308 -645q-38 -82 -112 -82t-114 82
l-309 645v-833z" />
    <glyph glyph-name="N" unicode="N" horiz-adv-x="1477" 
d="M1178 1466q113 0 110 -150v-1184q0 -74 -34 -107t-76 -33q-44 0 -72 22t-63 75l-632 935v-882q-1 -68 -23 -109t-88 -41t-94 50q-17 31 -17 100v1183q-1 75 33 109t78 32q44 0 71 -22q28 -22 63 -75l633 -935v882q0 66 16 100q28 50 95 50z" />
    <glyph glyph-name="O" unicode="O" horiz-adv-x="1325" 
d="M662 184q131 0 218 92q53 58 69 146t17 307q0 219 -17 308q-16 89 -69 146q-86 91 -218 91t-217 -91q-53 -56 -69 -145t-16 -309q0 -221 16 -309t69 -144q86 -92 217 -92zM138 729q0 314 34 414t113 179q148 148 377 148t377 -148q119 -119 137 -295q11 -98 11 -252
q0 -359 -35 -460t-113 -179q-148 -148 -377 -148t-377 148q-140 140 -145 374q-2 109 -2 219z" />
    <glyph glyph-name="P" unicode="P" horiz-adv-x="1287" 
d="M411 1262v-490h319q118 0 188 65t70 180t-69 180q-70 65 -189 65h-319zM189 142v1181q0 71 32 103t104 32h417q211 0 339 -124t128 -318t-128 -317t-339 -124h-331v-433q-1 -68 -23 -109t-88 -41t-94 50q-17 31 -17 100z" />
    <glyph glyph-name="Q" unicode="Q" horiz-adv-x="1325" 
d="M662 1274q-132 0 -217 -91q-53 -56 -69 -145t-16 -309t16 -308t69 -145q86 -92 218 -92q86 0 149 48l-98 100q-85 80 -23 144q36 36 71 27t74 -48l87 -87q27 53 34 131q9 77 9 263t-17 275q-16 89 -69 146q-86 91 -218 91zM138 729q0 314 34 414t113 179q148 148 377 148
t377 -148q119 -119 137 -295q11 -98 11 -310q0 -213 -16 -323t-78 -196l73 -74q83 -83 22 -144q-36 -36 -71 -27t-74 48l-75 76q-129 -89 -305 -89q-230 0 -378 148q-140 140 -145 374q-2 109 -2 219z" />
    <glyph glyph-name="R" unicode="R" horiz-adv-x="1344" 
d="M738 1262h-327v-459h327q113 0 181 60q67 59 67 167t-68 170t-180 62zM189 142v1181q0 71 32 103t104 32h430q205 0 329 -119t123 -307q0 -150 -80 -250t-208 -137l261 -456q34 -59 34 -91q2 -58 -54 -91q-26 -15 -62 -15t-58 22q-23 22 -49 68l-304 532h-276v-472
q-1 -68 -23 -109t-88 -41t-94 50q-17 31 -17 100z" />
    <glyph glyph-name="S" unicode="S" horiz-adv-x="1210" 
d="M610 184q119 0 197 59q79 59 79 164t-55 153t-161 63l-173 24q-176 26 -280 121q-103 95 -103 282t131 304t356 116q103 0 177 -18t164 -66t91 -113q0 -38 -26 -69q-52 -62 -163 5q-110 68 -244 68t-202 -62q-69 -62 -69 -158q0 -95 54 -143t159 -64l174 -27
q180 -27 270 -108q119 -109 119 -303t-145 -309t-376 -115t-396 98q-58 34 -80 62t-23 68q0 40 31 72q58 58 168 -17q64 -43 136 -65t190 -22z" />
    <glyph glyph-name="T" unicode="T" horiz-adv-x="1142" 
d="M571 -8q-113 0 -110 150v1120h-275q-63 0 -99 20t-36 78t36 78t99 20h770q64 0 100 -20t36 -78t-36 -78t-100 -20h-274v-1120q0 -66 -16 -100q-28 -50 -95 -50z" />
    <glyph glyph-name="U" unicode="U" horiz-adv-x="1378" 
d="M1102 1466q113 0 109 -150v-824q0 -223 -148 -364q-149 -140 -374 -140t-374 140q-148 140 -148 364v824q0 43 2 61q3 18 14 39q28 50 95 50q113 0 110 -150v-814q0 -146 82 -232t219 -86t219 86t82 232v814q0 68 22 109q24 41 90 41z" />
    <glyph glyph-name="V" unicode="V" horiz-adv-x="1138" 
d="M146 1466q35 0 61 -22t46 -85l316 -973l317 973q20 62 46 85q55 48 129 1q60 -38 24 -153l-395 -1188q-20 -62 -48 -88t-73 -24q-46 0 -73 25t-47 87l-396 1188q-36 114 25 153q33 21 68 21z" />
    <glyph glyph-name="W" unicode="W" horiz-adv-x="1771" 
d="M886 1465q48 0 74 -25t39 -75l267 -953l233 938q16 66 40 92t64 24q39 0 69 -20t37 -50t-9 -97l-295 -1183q-32 -126 -130 -124q-45 0 -79 27q-32 27 -51 97l-259 923l-259 -923q-34 -126 -132 -125q-97 1 -128 125l-295 1183q-16 67 -10 97t37 50q30 20 70 20
q39 0 63 -26t40 -90l234 -938l266 953q14 50 40 75t74 25z" />
    <glyph glyph-name="X" unicode="X" horiz-adv-x="1140" 
d="M216 1466q36 0 59 -22t49 -68l246 -441l247 441q26 46 49 68t59 22t61 -15q56 -33 54 -91q-1 -32 -34 -91l-299 -519l321 -561q34 -59 35 -91q2 -58 -54 -91q-26 -15 -62 -15t-59 22t-48 68l-270 478l-269 -478q-26 -46 -49 -68t-59 -22t-61 15q-56 33 -54 91q1 32 35 91
l321 560l-299 520q-34 59 -35 91q-2 58 55 91q25 15 61 15z" />
    <glyph glyph-name="Y" unicode="Y" horiz-adv-x="1071" 
d="M154 1466q28 0 52 -16t53 -76l277 -554l276 554q30 60 54 76t50 16q28 0 53 -12q55 -28 57 -72t-28 -101l-352 -700v-439q0 -69 -16 -100q-28 -50 -94 -50t-95 50q-16 29 -16 100v439l-352 700q-29 57 -27 101t56 72q24 12 52 12z" />
    <glyph glyph-name="Z" unicode="Z" horiz-adv-x="1141" 
d="M253 1458h643q86 0 118 -33t32 -75t-37 -104l-647 -1049h549q63 0 90 -15q45 -26 45 -84t-45 -84q-27 -14 -90 -14h-672q-84 0 -117 33t-33 75t38 104l645 1050h-519q-63 0 -99 20t-36 78t36 78t99 20z" />
    <glyph glyph-name="bracketleft" unicode="[" horiz-adv-x="709" 
d="M503 1610q128 0 128 -94q-1 -54 -35 -74t-93 -21h-118v-1384h118q61 0 85 -14q43 -26 43 -80q-1 -54 -35 -74t-93 -21h-199q-68 0 -98 30t-30 98v1506q0 68 30 98t98 30h199z" />
    <glyph glyph-name="backslash" unicode="\" horiz-adv-x="781" 
d="M135 1620q38 0 59 -25t37 -75l506 -1515q23 -67 13 -96t-37 -48q-29 -19 -67 -19t-59 26t-37 75l-506 1514q-23 67 -13 97t38 48t66 18z" />
    <glyph glyph-name="bracketright" unicode="]" horiz-adv-x="709" 
d="M207 1421q-128 0 -128 95q0 54 43 79q24 14 85 15h199q68 0 98 -30t30 -98v-1506q0 -68 -30 -98t-98 -30h-199q-128 0 -128 95q0 54 43 80q24 14 85 14h118v1384h-118z" />
    <glyph glyph-name="asciicircum" unicode="^" horiz-adv-x="1084" 
d="M937 790q0 -34 -30 -61t-63 -27t-57 16q-24 18 -51 72l-194 389l-194 -389q-27 -52 -51 -70q-25 -18 -57 -18t-62 26q-30 28 -30 62t26 87l240 480q39 84 83 101q20 8 58 8q65 0 116 -109l239 -480q27 -53 27 -87z" />
    <glyph glyph-name="underscore" unicode="_" horiz-adv-x="1170" 
d="M1136 -289q0 -80 -110 -80h-882q-109 0 -109 80t109 80h882q50 0 80 -16t30 -64z" />
    <glyph glyph-name="grave" unicode="`" horiz-adv-x="1101" 
d="M438 1280l-95 153q-31 50 -32 75q-3 48 44 79q55 33 99 -1q17 -12 45 -56l95 -153q31 -50 32 -75q3 -48 -44 -79q-55 -33 -99 1q-17 12 -45 56z" />
    <glyph glyph-name="a" unicode="a" horiz-adv-x="1085" 
d="M484 162q128 0 182 51t54 163v82h-246q-185 0 -185 -148t195 -148zM825 -8q-95 0 -99 104q-61 -60 -122 -84t-157 -23q-188 -1 -275 89t-87 226t94 219t265 83h276v65q0 103 -52 153t-162 50t-202 -70q-36 -28 -75 -28t-63 28t-23 64q-1 62 103 122t286 60t290 -90
q108 -91 108 -267v-559q0 -67 -16 -94q-26 -48 -89 -48z" />
    <glyph glyph-name="b" unicode="b" horiz-adv-x="1131" 
d="M805 519q0 203 -56 273t-159 70q-191 0 -212 -236q-4 -46 -4 -107q0 -206 56 -274q56 -69 160 -69q153 0 193 143q22 80 22 200zM166 135v1189q0 62 20 102t84 40t84 -40t21 -102v-390q54 65 119 91t153 26q160 0 252 -93q69 -70 92 -178t23 -260q0 -154 -23 -262
t-92 -178q-92 -92 -254 -92q-86 0 -151 26t-120 92q-4 -114 -104 -114q-58 0 -81 37t-23 106z" />
    <glyph glyph-name="c" unicode="c" horiz-adv-x="992" 
d="M113 519q0 398 288 502q80 29 189 29t211 -65q49 -33 75 -61t26 -64t-28 -66q-28 -29 -65 -29q-36 1 -96 49t-140 48q-123 0 -187 -86t-64 -257t65 -257t186 -86q77 0 139 49t98 49t64 -30t28 -66t-27 -65t-74 -60q-102 -65 -211 -65t-189 29q-288 104 -288 502z" />
    <glyph glyph-name="d" unicode="d" horiz-adv-x="1131" 
d="M327 519q0 -206 56 -274q56 -69 159 -69q154 0 194 143q22 80 22 203t-18 184q-18 60 -40 89q-23 29 -63 48t-95 19q-190 0 -211 -236q-4 -46 -4 -107zM861 1466q105 0 105 -142v-1189q0 -143 -105 -143q-99 0 -103 114q-100 -120 -267 -119t-259 93q-70 70 -92 178
t-22 262q0 153 23 261t91 177q92 92 252 93q88 0 153 -26t120 -91v390q1 62 21 102t83 40z" />
    <glyph glyph-name="e" unicode="e" horiz-adv-x="1100" 
d="M786 604q-6 91 -30 146q-24 54 -78 90t-126 36t-126 -34q-101 -67 -107 -238h467zM319 459q-1 -135 69 -214t193 -79t204 65q47 38 83 38t62 -27q27 -27 26 -62q0 -59 -102 -126q-102 -66 -291 -66q-188 0 -319 120t-131 392q1 272 119 411t320 139t318 -130
q117 -131 122 -341q2 -61 -26 -91t-95 -29h-552z" />
    <glyph glyph-name="f" unicode="f" horiz-adv-x="685" 
d="M164 879q-110 0 -110 79q0 48 30 64t80 16h48v143q0 170 122 246q65 41 160 41h20q130 0 130 -89q0 -51 -42 -73q-23 -12 -76 -15q-105 -3 -105 -120v-133h114q109 0 109 -80t-109 -79h-114v-745q-1 -62 -21 -102t-84 -40t-84 40t-20 102v745h-48z" />
    <glyph glyph-name="g" unicode="g" horiz-adv-x="1125" 
d="M536 864q-150 0 -188 -141q-21 -73 -21 -156t7 -157t39 -117q62 -80 167 -80t158 70t53 241q0 172 -36 240t-94 88q-35 12 -85 12zM959 903v-897q0 -193 -121 -315t-325 -122q-147 1 -249 57t-103 120q0 39 26 65q27 26 59 26q32 1 102 -45t159 -46q125 0 184 75t60 189
v133q-98 -118 -262 -118q-163 0 -255 92q-70 71 -94 171t-22 251q0 151 24 251t102 181q80 80 240 80q84 0 148 -26t120 -91q5 113 103 113q58 0 81 -38t23 -106z" />
    <glyph glyph-name="h" unicode="h" horiz-adv-x="1164" 
d="M1009 134q0 -142 -105 -142q-64 0 -84 40t-20 102v499q0 117 -58 173t-152 56t-155 -57q-60 -57 -60 -172v-499q0 -142 -105 -142q-64 0 -84 40t-20 102v1190q0 62 20 102t84 40t84 -40t21 -102v-390q105 117 269 117q164 -1 264 -99t101 -288v-530z" />
    <glyph glyph-name="i" unicode="i" horiz-adv-x="540" 
d="M144 1377q0 52 37 89t89 37t89 -37t37 -89t-37 -89t-89 -37t-89 37t-37 89zM375 134q0 -142 -105 -142q-64 0 -84 40t-20 102v770q0 62 20 102t84 40q63 0 89 -49q15 -31 16 -93v-770z" />
    <glyph glyph-name="j" unicode="j" horiz-adv-x="540" 
d="M73 -424q-130 0 -130 89q0 51 42 74q23 12 75 14q106 3 106 120v1031q0 62 20 102t84 40q63 0 89 -49q15 -31 16 -93v-1040q0 -169 -123 -247q-65 -41 -159 -41h-20zM144 1377q0 52 37 89t89 37t89 -37t37 -89t-37 -89t-89 -37t-89 37t-37 89z" />
    <glyph glyph-name="k" unicode="k" horiz-adv-x="1064" 
d="M375 134q0 -142 -105 -142q-64 0 -84 40t-20 102v1190q0 62 20 102t84 40t84 -40t21 -102v-765l375 427q88 100 162 34q30 -27 30 -66t-48 -94l-214 -244l277 -438q36 -58 36 -98q-1 -40 -39 -64t-69 -24t-52 18t-48 61l-251 401l-159 -184v-154z" />
    <glyph glyph-name="l" unicode="l" horiz-adv-x="627" 
d="M593 89q0 -89 -130 -89h-21q-94 0 -159 41q-122 77 -122 247v1038q1 62 21 102t83 40t83 -40t22 -102v-1029q0 -117 105 -120q53 -2 76 -14q42 -23 42 -74z" />
    <glyph glyph-name="m" unicode="m" horiz-adv-x="1796" 
d="M647 1051q196 0 295 -152q124 152 326 152q164 0 268 -101t104 -286v-530q0 -62 -20 -102t-84 -40t-84 40t-20 102v499q0 117 -58 173t-150 56t-154 -56t-62 -163v-509q0 -142 -105 -142q-63 0 -83 40t-21 102v499q0 117 -58 173q-57 56 -151 56t-154 -58t-61 -171v-499
q0 -142 -105 -142q-64 0 -84 40t-20 102v769q0 69 23 106t81 38q97 0 104 -110q110 114 273 114z" />
    <glyph glyph-name="n" unicode="n" horiz-adv-x="1163" 
d="M1008 134q0 -142 -105 -142q-63 0 -83 40t-21 102v499q0 117 -58 173q-57 56 -151 56t-154 -58t-61 -171v-499q0 -142 -105 -142q-64 0 -84 40t-20 102v769q0 69 23 106t81 38q97 0 104 -110q108 114 270 114t262 -98t102 -289v-530z" />
    <glyph glyph-name="o" unicode="o" horiz-adv-x="1099" 
d="M118 519q0 143 25 239t97 170q119 123 310 123t310 -123q70 -74 96 -170t26 -239t-26 -239t-96 -169q-119 -123 -310 -123t-310 123q-72 74 -97 169t-25 239zM550 862q-93 0 -144 -51t-65 -121t-14 -172q0 -100 14 -170t57 -112q58 -60 152 -60t144 52t64 120
q14 70 15 170q0 100 -14 172q-14 70 -65 121t-144 51z" />
    <glyph glyph-name="p" unicode="p" horiz-adv-x="1131" 
d="M805 520q0 203 -56 273t-159 70q-191 0 -212 -236q-4 -46 -4 -107q0 -204 55 -274t161 -70q153 0 193 145q22 80 22 199zM375 -285q0 -142 -105 -142q-64 0 -84 40t-20 102v1189q0 68 23 106t81 38q97 0 104 -115q99 119 266 119t259 -93q69 -71 92 -179t23 -261
t-23 -261t-92 -177q-93 -93 -259 -93t-265 117v-390z" />
    <glyph glyph-name="q" unicode="q" horiz-adv-x="1131" 
d="M327 520q0 -204 56 -273q56 -70 159 -70q155 0 194 144q22 80 22 202q0 123 -18 184q-18 60 -40 89q-23 29 -63 48t-95 19q-190 0 -211 -236q-4 -46 -4 -107zM966 904v-1189q0 -142 -105 -142q-63 0 -83 40t-21 102v390q-96 -116 -265 -116q-168 0 -260 92
q-69 70 -91 178q-23 108 -23 261q0 154 23 262t91 177q92 92 254 93q86 0 151 -27t121 -92q4 115 103 115q105 0 105 -144z" />
    <glyph glyph-name="r" unicode="r" horiz-adv-x="901" 
d="M374 930q100 121 280 121q96 0 162 -45t66 -94q0 -48 -29 -78q-30 -30 -68 -30q-37 0 -89 29t-109 29q-91 0 -151 -63t-61 -169v-496q0 -142 -105 -142q-64 0 -84 40t-20 102v769q0 69 23 106t81 38q100 0 104 -117z" />
    <glyph glyph-name="s" unicode="s" horiz-adv-x="1022" 
d="M933 316q1 -158 -119 -243t-328 -85t-347 94q-57 39 -57 85t30 71q57 48 152 -14q94 -62 218 -62q248 1 248 147q0 110 -140 123l-167 15q-307 28 -307 285q0 148 111 234q112 85 275 85t285 -58q47 -23 68 -44q19 -23 19 -57t-25 -62q-27 -26 -56 -26t-73 21
q-112 55 -209 55t-145 -38t-48 -96q0 -59 34 -87q36 -28 109 -34l164 -16q308 -30 308 -293z" />
    <glyph glyph-name="t" unicode="t" horiz-adv-x="719" 
d="M641 89q0 -89 -130 -89h-21q-94 0 -159 41q-122 77 -122 247v591h-48q-110 0 -110 79q0 48 30 64t80 16h48v163q1 62 21 102t83 40t83 -40t22 -102v-163h112q50 0 80 -16t30 -64q0 -79 -110 -79h-112v-582q0 -117 105 -120q53 -2 76 -14q42 -23 42 -74z" />
    <glyph glyph-name="u" unicode="u" horiz-adv-x="1163" 
d="M788 904q0 141 105 143q63 0 89 -50q15 -31 15 -93v-769q0 -69 -23 -106t-80 -37q-99 0 -104 109q-108 -113 -270 -113t-264 98q-100 98 -100 289v529q0 62 20 102t84 40q63 0 89 -49q15 -31 16 -93v-498q-1 -116 57 -173t152 -57t154 58t60 172v498z" />
    <glyph glyph-name="v" unicode="v" horiz-adv-x="919" 
d="M156 1047q38 1 60 -25q21 -26 37 -76l207 -623l207 623q16 50 37 75q22 25 60 25t66 -18t36 -48q10 -30 -12 -96l-265 -775q-21 -64 -51 -91q-30 -26 -78 -26q-47 0 -78 27t-51 90l-265 775q-24 67 -14 96t38 48t66 19z" />
    <glyph glyph-name="w" unicode="w" horiz-adv-x="1501" 
d="M751 1047q43 0 71 -25t50 -98l188 -614l179 630q17 60 41 84t60 23t64 -21t36 -50t-10 -90l-228 -765q-24 -79 -55 -105t-75 -24q-44 0 -76 25t-55 104l-190 613l-191 -613q-24 -79 -55 -105t-75 -24q-44 0 -76 25t-55 104l-227 765q-17 60 -11 90q7 30 35 50t66 20
t60 -22q22 -23 40 -84l179 -630l188 614q23 74 51 98t71 25z" />
    <glyph glyph-name="x" unicode="x" horiz-adv-x="921" 
d="M839 958q0 -40 -36 -98l-215 -338l220 -344q36 -58 36 -98t-38 -64t-70 -24t-52 18t-48 61l-174 286l-176 -286q-27 -43 -48 -61q-20 -18 -52 -18t-59 17q-49 31 -49 71t36 98l221 343l-216 339q-36 58 -36 98q1 40 39 64t69 24t52 -17q21 -18 48 -61l171 -280l169 280
q27 43 47 61t52 18t60 -18q49 -31 49 -71z" />
    <glyph glyph-name="y" unicode="y" horiz-adv-x="919" 
d="M156 1047q38 1 60 -25q21 -26 37 -76l205 -636l209 636q16 50 37 75q22 25 60 25t66 -18q28 -19 38 -50t-14 -94l-378 -1092q-74 -206 -279 -206q-128 0 -126 96q0 91 101 93q49 1 81 25t53 85l50 153l-290 846q-24 67 -14 96t38 48t66 19z" />
    <glyph glyph-name="z" unicode="z" horiz-adv-x="948" 
d="M207 0q-131 0 -131 91q0 27 8 47q9 20 34 55l476 657h-365q-59 0 -93 20t-35 74q0 54 43 80q24 14 85 14h509q132 0 132 -90q0 -44 -42 -101l-478 -659h394q61 0 85 -14q43 -26 43 -80t-34 -74t-94 -20h-537z" />
    <glyph glyph-name="braceleft" unicode="{" horiz-adv-x="831" 
d="M750 -56q0 -61 -45 -81q-26 -13 -87 -14h-43q-133 0 -203 72t-70 212v342q0 142 -106 158q-66 9 -88 32t-22 64t22 64t76 31t86 40t32 119v342q0 139 71 212q71 72 202 72h43q60 1 84 -11q46 -23 47 -82q2 -93 -113 -96q-68 -1 -96 -29t-29 -128v-329q0 -89 -36 -133
t-99 -72q100 -45 124 -122q11 -36 11 -83v-328q0 -100 29 -128t96 -30q114 0 114 -94z" />
    <glyph glyph-name="bar" unicode="|" horiz-adv-x="692" 
d="M346 1618q105 0 105 -142v-1493q0 -63 -21 -103t-84 -40q-64 0 -84 40t-20 103v1493q0 62 20 102t84 40z" />
    <glyph glyph-name="braceright" unicode="}" horiz-adv-x="831" 
d="M196 1420q-114 0 -114 94q0 62 45 81q26 13 86 14h43q132 0 203 -73t70 -211v-342q0 -143 107 -158q65 -9 87 -32t22 -64t-22 -63q-21 -22 -75 -31t-86 -41t-33 -119v-342q-1 -140 -71 -212t-202 -72h-43q-60 -1 -83 11q-48 24 -48 84q0 94 114 94q68 2 96 30t29 128v328
q0 89 36 133t99 72q-100 45 -124 122q-11 36 -11 83v329q0 101 -29 129t-96 28z" />
    <glyph glyph-name="asciitilde" unicode="~" horiz-adv-x="1174" 
d="M774 415q-82 0 -200 57t-168 57t-80 -12t-66 -43t-72 -31q-36 1 -64 31q-26 30 -26 71t57 93t111 72t135 20t199 -57t168 -57q51 0 81 12t66 43q76 65 138 -5q63 -70 -33 -158q-56 -52 -111 -72q-53 -20 -135 -21z" />
    <glyph glyph-name="uni00A0" unicode="&#xa0;" horiz-adv-x="491" 
 />
    <glyph glyph-name="exclamdown" unicode="&#xa1;" horiz-adv-x="680" 
d="M174 911q0 55 39 95t94 38q55 0 94 -38t39 -94t-39 -95t-94 -39t-94 39t-39 94zM197 -278v740q0 43 2 61q3 18 14 39q29 50 95 50t93 -50q17 -31 17 -100v-740q0 -68 -22 -109t-90 -41q-66 0 -93 50q-16 29 -16 100z" />
    <glyph glyph-name="cent" unicode="&#xa2;" horiz-adv-x="992" 
d="M484 1078q-162 -61 -162 -329t162 -328v657zM478 1338q0 128 94 128q54 0 80 -43q14 -24 15 -85v-65q69 -14 126 -52q57 -39 83 -67t26 -64t-28 -66t-65 -29q-37 0 -77 33t-72 47v-651q29 13 72 47t78 34q36 0 64 -30t28 -66t-27 -65q-27 -28 -85 -66t-123 -52v-106
q0 -61 -15 -85q-26 -43 -80 -43t-74 34t-20 94v106q-156 26 -260 152q-105 126 -105 372q0 340 224 472q64 36 141 51v65z" />
    <glyph glyph-name="sterling" unicode="&#xa3;" horiz-adv-x="1188" 
d="M659 801q110 0 110 -81q0 -47 -37 -68q-20 -12 -73 -12h-188v-443h493q63 0 90 -15q45 -26 45 -84t-36 -78t-99 -20h-579q-71 0 -103 32t-32 103v505h-47q-54 0 -74 12q-37 20 -37 68t37 68q20 12 74 13h47v196q0 219 138 346t347 127q169 0 282 -79q67 -47 67 -97
t-27 -80q-50 -55 -138 3q-88 57 -198 57t-180 -75t-70 -218v-180h188z" />
    <glyph glyph-name="currency" unicode="&#xa4;" horiz-adv-x="1360" 
d="M401 570q0 -116 82 -197t197 -81t197 81t81 197q0 116 -81 197q-82 81 -197 81t-197 -80q-82 -82 -82 -198zM1149 570q0 -139 -78 -253l87 -86q44 -44 54 -83q10 -40 -29 -80q-57 -57 -122 -12q-15 11 -41 37l-87 86q-112 -77 -253 -77t-253 77l-86 -86q-43 -45 -83 -55
t-80 30t-30 80q11 40 55 83l86 86q-78 115 -78 255t77 252l-85 86q-45 44 -55 84t30 80q57 57 122 12q15 -11 41 -37l85 -86q111 75 254 75t254 -75l86 86q45 45 84 55q40 10 80 -30t29 -80t-55 -84l-86 -86q77 -115 77 -254z" />
    <glyph glyph-name="yen" unicode="&#xa5;" horiz-adv-x="1095" 
d="M988 426q0 -80 -109 -80h-221v-204q0 -69 -16 -100q-28 -50 -94 -50t-94 50q-17 31 -17 100v204h-221q-50 0 -80 16t-30 64t30 64t80 16h221v93l-44 88h-177q-50 0 -80 16q-30 15 -30 63t30 64t80 17h97l-217 434q-28 57 -26 101t56 72q25 12 52 12t51 -16t54 -76
l265 -535l265 535q30 60 54 76q23 16 51 16t52 -12q54 -28 56 -72t-27 -101l-217 -434h97q109 0 109 -80t-109 -80h-177l-44 -88v-93h221q109 0 109 -80z" />
    <glyph glyph-name="brokenbar" unicode="&#xa6;" horiz-adv-x="692" 
d="M346 1618q105 0 105 -142v-449q0 -142 -105 -142q-64 0 -84 40t-20 102v449q0 62 20 102t84 40zM346 573q105 0 105 -142v-448q0 -63 -21 -103t-84 -40q-64 0 -84 40t-20 103v448q0 62 20 102t84 40z" />
    <glyph glyph-name="section" unicode="&#xa7;" horiz-adv-x="1116" 
d="M355 534q0 -102 56 -161t147 -59t147 58q56 60 56 162q1 102 -55 160t-148 60q-92 0 -147 -59q-56 -59 -56 -161zM151 506q0 130 59 215q60 85 141 127q-173 85 -173 277q0 149 102 247t279 98q221 0 325 -140q53 -73 53 -147q-1 -35 -21 -71t-72 -36q-86 0 -105 87
q-23 129 -180 129q-85 0 -133 -41t-48 -113t40 -112q39 -41 124 -67l129 -39q295 -90 295 -376q0 -114 -59 -199t-139 -127q181 -78 181 -287q0 -168 -114 -265t-278 -97q-202 0 -310 122q-73 81 -73 170q0 39 22 73t71 35q87 0 104 -88q24 -130 186 -130q88 0 138 45
t49 127q1 130 -160 180l-130 40q-303 91 -303 363z" />
    <glyph glyph-name="dieresis" unicode="&#xa8;" horiz-adv-x="1101" 
d="M442 1346q0 -47 -34 -82t-82 -35q-47 0 -81 34t-34 82q0 47 34 81q33 34 81 34t82 -34t34 -80zM778 1460q48 0 81 -34q34 -34 34 -80q0 -48 -34 -82t-81 -35q-47 0 -82 35t-34 82q0 46 34 80t82 34z" />
    <glyph glyph-name="copyright" unicode="&#xa9;" horiz-adv-x="1765" 
d="M557 729q0 175 93 277t233 102t214 -70q37 -34 37 -62t-18 -46q-42 -41 -99 6t-119 47q-102 0 -152 -69q-50 -70 -50 -186t50 -184t152 -69q61 -1 105 35q43 36 69 36t44 -18q47 -48 -23 -113q-71 -65 -211 -65t-232 102t-93 277zM1482 729q0 126 -47 239t-127 194
t-191 129q-111 47 -234 47t-234 -48t-191 -128q-80 -81 -128 -194q-47 -113 -47 -239t47 -239q94 -227 319 -323q111 -47 234 -47t234 48t191 128q80 81 127 194t47 239zM1624 729q0 -202 -99 -372q-99 -169 -269 -269t-373 -100q-202 0 -373 99q-170 99 -269 269t-100 373
q0 202 100 372q99 169 269 269t372 100t373 -99q169 -99 269 -269t100 -373z" />
    <glyph glyph-name="ordfeminine" unicode="&#xaa;" horiz-adv-x="924" 
d="M412 997q-151 0 -151 -119t154 -119q56 0 93 9t70 42t33 121v66h-199zM611 1170q1 158 -159 158q-72 0 -108 -14q-35 -14 -68 -42t-63 -29q-29 1 -47 21t-19 48q0 52 83 102t201 50q340 1 340 -282v-444q0 -109 -80 -109q-73 0 -80 81q-51 -46 -100 -64t-121 -18
q-150 0 -216 74t-68 176q0 102 74 166q74 65 210 65h221v61z" />
    <glyph glyph-name="guillemotleft" unicode="&#xab;" horiz-adv-x="1247" 
d="M1062 731l-194 -193l194 -194q44 -44 54 -84t-30 -80q-56 -56 -121 -12q-15 11 -41 38l-332 332l332 331q47 47 72 53q50 12 90 -28t30 -80t-54 -83zM545 731l-194 -193l194 -194q45 -44 55 -84t-30 -80t-80 -29t-83 55l-332 332l332 331q44 44 72 53q51 12 91 -28
t30 -80t-55 -83z" />
    <glyph glyph-name="logicalnot" unicode="&#xac;" horiz-adv-x="1091" 
d="M219 488q-128 0 -128 95q0 54 43 80q24 14 85 14h643q69 0 99 -30t29 -98v-226q0 -59 -20 -93t-74 -35q-54 0 -80 43q-14 24 -14 85v165h-583z" />
    <glyph glyph-name="uni00AD" unicode="&#xad;" horiz-adv-x="874" 
d="M615 474h-358q-59 0 -93 20t-35 74q0 54 43 80q24 14 85 15h358q61 0 85 -15q43 -26 43 -80q-1 -54 -35 -74t-93 -20z" />
    <glyph glyph-name="registered" unicode="&#xae;" horiz-adv-x="1765" 
d="M906 982h-123v-218h123q52 0 86 29q33 29 33 79t-33 81q-34 29 -86 29zM783 653v-206q-1 -45 -15 -71t-54 -25q-40 -1 -55 25t-15 71v568q0 47 20 66t66 20h194q105 0 173 -66q67 -67 67 -153q-1 -161 -143 -209l115 -197q50 -79 -13 -115q-15 -10 -37 -10q-22 -1 -36 13
t-31 45l-142 244h-94zM1482 729q0 126 -47 239t-127 194t-191 129q-111 47 -255 47t-282 -80t-218 -220t-80 -309q0 -168 80 -308q80 -141 218 -221t282 -80t255 48t191 128q80 81 127 194t47 239zM1624 729q0 -202 -99 -372q-99 -169 -269 -269t-373 -100q-202 0 -373 99
q-170 99 -269 269t-100 373q0 202 100 372q99 169 269 269t372 100t373 -99q169 -99 269 -269t100 -373z" />
    <glyph glyph-name="macron" unicode="&#xaf;" horiz-adv-x="1101" 
d="M755 1435q113 0 113 -84t-113 -84h-409q-115 0 -115 83t115 85h409z" />
    <glyph glyph-name="degree" unicode="&#xb0;" horiz-adv-x="963" 
d="M482 936q79 0 132 54t54 135q0 81 -54 135t-132 55q-79 0 -132 -54q-53 -53 -53 -135t53 -136t132 -54zM482 768q-148 0 -253 104q-104 104 -104 252t104 254q105 104 253 104t252 -104t106 -252q0 -148 -105 -254q-105 -104 -253 -104z" />
    <glyph glyph-name="plusminus" unicode="&#xb1;" horiz-adv-x="1091" 
d="M867 0h-643q-60 0 -94 20t-34 74t43 80q24 14 85 14h643q61 0 85 -14q43 -26 43 -80q-1 -54 -35 -74t-93 -20zM224 648q-128 0 -128 94q0 54 43 80q24 14 85 15h228v227q0 60 20 94t74 34t80 -43q14 -24 14 -85v-227h227q61 0 85 -15q43 -26 43 -80q-1 -54 -35 -74
t-93 -20h-227v-227q0 -61 -14 -85q-26 -43 -80 -43q-54 1 -74 35t-20 93v227h-228z" />
    <glyph glyph-name="twosuperior" unicode="&#xb2;" 
d="M521 725q97 0 95 -71q0 -42 -24 -56t-71 -14h-351q-100 0 -100 75q0 33 38 79l290 361q50 61 50 113t-29 83q-30 30 -81 30q-88 0 -112 -85q-17 -65 -80 -65q-36 0 -52 24t-16 52q0 61 53 125q77 90 203 90t199 -66q72 -66 72 -185q0 -52 -19 -95t-73 -108l-234 -287h242
z" />
    <glyph glyph-name="threesuperior" unicode="&#xb3;" 
d="M73 794q0 80 74 79q29 0 49 -17q18 -18 24 -46q19 -93 121 -93q52 0 85 33q34 32 34 88t-31 88t-78 34q-82 4 -84 69q0 63 73 69q53 2 81 32t28 80t-32 80t-76 31q-79 0 -104 -67q-13 -39 -22 -53q-15 -29 -53 -29t-58 24q-19 24 -19 59q0 77 66 143t187 66t195 -70
t74 -188q0 -119 -100 -172q113 -60 113 -192t-80 -200t-206 -68q-128 0 -210 86q-51 54 -51 134z" />
    <glyph glyph-name="acute" unicode="&#xb4;" horiz-adv-x="1101" 
d="M759 1433l-95 -153q-28 -44 -48 -58q-46 -32 -95 0q-48 32 -45 80q1 26 32 75l95 153q28 44 48 58q46 32 94 0t46 -80q-1 -25 -32 -75z" />
    <glyph glyph-name="mu" unicode="&#xb5;" horiz-adv-x="1173" 
d="M375 -286q0 -142 -105 -142q-64 0 -84 40t-20 102v1190q0 62 20 102t84 40q63 0 89 -49q15 -31 16 -93v-498q0 -116 58 -173q57 -57 151 -57t154 58t61 172v498q1 62 21 102t83 40t89 -49q15 -31 16 -93v-769q0 -143 -105 -143q-56 0 -85 41q-16 22 -18 68
q-108 -114 -274 -113q-96 0 -151 52v-326z" />
    <glyph glyph-name="paragraph" unicode="&#xb6;" horiz-adv-x="1304" 
d="M1114 -286q0 -62 -20 -102t-84 -40t-84 40t-21 102v1548h-221v-1548q0 -62 -20 -102t-84 -40q-63 0 -84 40t-21 102v934q-167 0 -282 119t-115 293t125 286t336 112h447q68 0 98 -30t30 -98v-1616z" />
    <glyph glyph-name="periodcentered" unicode="&#xb7;" horiz-adv-x="651" 
d="M176 568q0 60 44 104t106 44t105 -43q44 -43 44 -105t-44 -104q-44 -43 -105 -43t-106 43q-44 43 -44 104z" />
    <glyph glyph-name="cedilla" unicode="&#xb8;" horiz-adv-x="1101" 
d="M537 -110q26 0 50 -15q47 -31 44 -79q-1 -26 -32 -76l-95 -152q-28 -44 -45 -57q-24 -15 -50 -15t-49 15q-48 30 -45 78q1 27 33 76l95 153q29 44 49 58t45 14z" />
    <glyph glyph-name="onesuperior" unicode="&#xb9;" 
d="M375 1466q87 0 87 -102v-679q0 -50 -16 -80t-64 -30t-64 30t-16 80v543l-60 -61q-73 -75 -126 -19q-33 32 -24 62t43 64l148 148q44 44 92 44z" />
    <glyph glyph-name="ordmasculine" unicode="&#xba;" horiz-adv-x="937" 
d="M469 765q76 0 119 43t53 98q10 56 10 138t-10 137t-53 98t-119 43t-119 -43t-53 -98t-10 -138t10 -137t53 -98q43 -43 119 -43zM469 623q-147 0 -241 93q-57 57 -79 134t-22 193t22 193t79 135q92 93 240 93t242 -93q57 -57 79 -135t22 -193q0 -116 -22 -193t-79 -134
q-94 -93 -241 -93z" />
    <glyph glyph-name="guillemotright" unicode="&#xbb;" horiz-adv-x="1247" 
d="M896 538l-194 193q-44 43 -54 83t30 80t80 30t83 -55l331 -331l-331 -332q-43 -44 -83 -54t-81 29q-39 39 -29 79t54 84zM379 538l-194 193q-45 43 -55 83t30 80t80 30t84 -55l331 -331l-331 -332q-47 -47 -73 -52q-50 -13 -91 27q-40 39 -30 79t55 84z" />
    <glyph glyph-name="onequarter" unicode="&#xbc;" horiz-adv-x="1693" 
d="M1157 126q-95 0 -95 70q0 20 19 59l281 561q34 68 80 68q30 0 52 -20q40 -37 3 -115l-241 -482h164v72q0 110 80 110q48 0 64 -30t16 -80v-72h4q97 0 95 -70q0 -41 -24 -56t-71 -15h-4v-25q0 -109 -79 -109t-81 109v25h-263zM596 59q-34 -67 -78 -67q-18 0 -36 9
q-68 32 -21 126l637 1272q34 67 78 67q17 0 35 -9q40 -19 41 -51t-19 -75zM375 1466q87 0 87 -102v-679q0 -50 -16 -80t-64 -30t-64 30t-16 80v543l-60 -61q-73 -75 -126 -19q-33 32 -24 62t43 64l148 148q44 44 92 44z" />
    <glyph glyph-name="onehalf" unicode="&#xbd;" horiz-adv-x="1693" 
d="M1549 141q96 0 96 -70q-1 -41 -25 -56t-71 -15h-351q-100 0 -100 76q0 33 38 79l290 360q50 61 50 114t-29 83q-30 30 -81 29q-88 0 -112 -85q-17 -65 -80 -65q-36 1 -52 25t-16 52q0 61 53 125q77 90 203 90t199 -67q72 -67 72 -184q0 -52 -19 -95t-73 -109l-234 -287
h242zM596 59q-34 -67 -78 -67q-18 0 -36 9q-68 32 -21 126l637 1272q34 67 78 67q17 0 35 -9q40 -19 41 -51t-19 -75zM375 1466q87 0 87 -102v-679q0 -50 -16 -80t-64 -30t-64 30t-16 80v543l-60 -61q-73 -75 -126 -19q-33 32 -24 62t43 64l148 148q44 44 92 44z" />
    <glyph glyph-name="threequarters" unicode="&#xbe;" horiz-adv-x="1693" 
d="M1157 126q-95 0 -95 70q0 20 19 59l281 561q34 68 80 68q30 0 52 -20q40 -37 3 -115l-241 -482h164v72q0 110 80 110q48 0 64 -30t16 -80v-72h4q97 0 95 -70q0 -41 -24 -56t-71 -15h-4v-25q0 -109 -79 -109t-81 109v25h-263zM596 59q-34 -67 -78 -67q-18 0 -36 9
q-68 32 -21 126l637 1272q34 67 78 67q17 0 35 -9q40 -19 41 -51t-19 -75zM73 795q0 78 74 81q29 0 48 -18t25 -46q19 -93 121 -93q52 0 85 33q34 32 34 88t-31 88t-78 34q-82 4 -84 69q0 63 73 69q53 2 81 33t28 80t-32 79t-76 31q-79 0 -104 -67q-13 -39 -22 -53
q-15 -29 -53 -29t-58 24q-19 24 -19 59q0 77 66 143t187 66t195 -70t74 -188q0 -119 -100 -172q113 -60 113 -192t-80 -200t-206 -68q-128 0 -210 87q-51 54 -51 132z" />
    <glyph glyph-name="questiondown" unicode="&#xbf;" horiz-adv-x="1045" 
d="M83 -47q-1 75 23 131t73 123l140 193q40 54 49 114t35 90t75 29q49 0 78 -32q29 -33 29 -85q-1 -52 -15 -93t-55 -96l-160 -215q-62 -84 -62 -164t55 -136q56 -56 144 -56q159 -1 204 176q24 94 102 94q46 0 72 -30t26 -82q0 -53 -29 -119t-82 -117q-117 -110 -292 -110
t-293 106q-117 107 -117 279zM613 911q0 -55 -39 -94t-94 -39t-94 39t-39 94t39 95t94 38q55 0 94 -39t39 -94z" />
    <glyph glyph-name="Agrave" unicode="&#xc0;" horiz-adv-x="1275" 
d="M494 1972q26 0 46 -14t47 -58l95 -153q31 -50 32 -76q3 -48 -44 -79q-24 -15 -50 -15q-26 1 -46 15t-48 58l-95 152q-31 50 -32 76q-3 48 44 79q25 15 51 15zM1196 18q-26 -26 -78 -26q-53 0 -82 50q-9 17 -23 55l-73 196h-604l-73 -196q-24 -66 -50 -86q-25 -19 -67 -19
t-75 36q-34 36 -22 88q5 21 18 55l446 1189q39 108 125 107t125 -107l446 -1189q25 -66 19 -96q-6 -31 -32 -57zM871 481l-233 638l-234 -638h467z" />
    <glyph glyph-name="Aacute" unicode="&#xc1;" horiz-adv-x="1275" 
d="M656 1577q-26 0 -50 15q-47 31 -44 79q1 26 32 76l95 153q28 44 48 58q19 14 45 14t51 -15q47 -31 44 -79q-1 -26 -32 -76l-95 -152q-28 -44 -48 -58t-46 -15zM1196 18q-26 -26 -78 -26q-53 0 -82 50q-9 17 -23 55l-73 196h-604l-73 -196q-24 -66 -50 -86
q-25 -19 -67 -19t-75 36q-34 36 -22 88q5 21 18 55l446 1189q39 108 125 107t125 -107l446 -1189q25 -66 19 -96q-6 -31 -32 -57zM871 481l-233 638l-234 -638h467z" />
    <glyph glyph-name="Acircumflex" unicode="&#xc2;" horiz-adv-x="1275" 
d="M638 1959q41 0 90 -49l170 -170q38 -38 48 -72t-26 -70q-37 -35 -71 -25t-71 47l-140 141l-140 -141q-37 -36 -71 -46t-71 24q-36 36 -22 79q6 25 44 63l170 170q49 49 90 49zM1196 18q-26 -26 -78 -26q-53 0 -82 50q-9 17 -23 55l-73 196h-604l-73 -196q-24 -66 -50 -86
q-25 -19 -67 -19t-75 36q-34 36 -22 88q5 21 18 55l446 1189q39 108 125 107t125 -107l446 -1189q25 -66 19 -96q-6 -31 -32 -57zM871 481l-233 638l-234 -638h467z" />
    <glyph glyph-name="Atilde" unicode="&#xc3;" horiz-adv-x="1275" 
d="M772 1612q-44 0 -76 10t-90 42q-56 32 -100 32t-82 -31t-70 -31t-50 22t-18 58t47 76q77 63 161 63t157 -42q75 -42 119 -42t82 31t70 31t50 -22t18 -58t-47 -76q-77 -63 -171 -63zM1196 18q-26 -26 -78 -26q-53 0 -82 50q-9 17 -23 55l-73 196h-604l-73 -196
q-24 -66 -50 -86q-25 -19 -67 -19t-75 36q-34 36 -22 88q5 21 18 55l446 1189q39 108 125 107t125 -107l446 -1189q25 -66 19 -96q-6 -31 -32 -57zM871 481l-233 638l-234 -638h467z" />
    <glyph glyph-name="Adieresis" unicode="&#xc4;" horiz-adv-x="1275" 
d="M529 1718q0 -47 -34 -82q-33 -34 -81 -34t-82 34t-34 82t33 81q33 34 81 34t83 -34q34 -34 34 -81zM863 1833q47 0 81 -34q34 -33 34 -81t-34 -82t-82 -34t-81 34q-34 34 -35 82q0 47 34 81t83 34zM1196 18q-26 -26 -78 -26q-53 0 -82 50q-9 17 -23 55l-73 196h-604
l-73 -196q-24 -66 -50 -86q-25 -19 -67 -19t-75 36q-34 36 -22 88q5 21 18 55l446 1189q39 108 125 107t125 -107l446 -1189q25 -66 19 -96q-6 -31 -32 -57zM871 481l-233 638l-234 -638h467z" />
    <glyph glyph-name="Aring" unicode="&#xc5;" horiz-adv-x="1275" 
d="M508 1791q0 -54 38 -92t92 -38t92 38t38 92t-38 92t-92 38t-92 -38t-38 -92zM382 1791q0 105 75 181t181 75q106 0 180 -75q76 -74 76 -180t-75 -182t-181 -75q-106 0 -181 75q-75 76 -75 181zM1196 18q-26 -26 -78 -26q-53 0 -82 50q-9 17 -23 55l-73 196h-604l-73 -196
q-24 -66 -50 -86q-25 -19 -67 -19t-75 36q-34 36 -22 88q5 21 18 55l446 1189q39 108 125 107t125 -107l446 -1189q25 -66 19 -96q-6 -31 -32 -57zM871 481l-233 638l-234 -638h467z" />
    <glyph glyph-name="AE" unicode="&#xc6;" horiz-adv-x="1896" 
d="M854 520v753l-375 -753h375zM810 1458h851q63 0 99 -20t36 -78t-36 -78t-99 -20h-586v-428h481q64 0 100 -20t36 -79q0 -58 -36 -78t-100 -20h-481v-440h586q63 0 90 -15q45 -26 45 -84t-36 -78t-99 -20h-672q-71 0 -103 32t-32 103v198h-469l-124 -249q-29 -60 -53 -76
t-52 -16t-52 12q-54 28 -56 72t27 101l573 1149q36 72 73 102t89 30z" />
    <glyph glyph-name="Ccedilla" unicode="&#xc7;" horiz-adv-x="1283" 
d="M676 -110q26 0 49 -15q47 -31 44 -79q-1 -26 -32 -76l-95 -152q-28 -44 -45 -57q-23 -15 -49 -15t-49 15q-48 30 -45 78q1 27 32 76l96 153q28 44 48 58t46 14zM138 729q0 314 34 414t113 179q148 148 375 148q243 0 375 -142q119 -128 119 -247q0 -49 -32 -79t-72 -30
t-68 22t-62 100q-34 80 -99 130t-177 50t-198 -91q-55 -61 -71 -149t-16 -305t16 -305t71 -149q85 -91 197 -91q199 0 277 180q34 80 62 101q26 21 68 21t73 -30t31 -79q0 -119 -126 -254t-361 -135q-234 0 -382 148q-140 140 -145 374q-2 109 -2 219z" />
    <glyph glyph-name="Egrave" unicode="&#xc8;" horiz-adv-x="1231" 
d="M500 1972q26 0 44 -14q20 -14 48 -58l95 -153q31 -50 32 -76q3 -48 -44 -79q-25 -15 -51 -15q-26 1 -45 15q-20 14 -48 58l-95 152q-31 50 -32 76q-3 48 45 79q25 15 51 15zM411 1262v-428h481q63 0 90 -15q45 -26 45 -84t-36 -78t-99 -20h-481v-440h585q63 0 90 -15
q46 -26 46 -84t-46 -84q-27 -14 -90 -14h-671q-72 0 -104 32t-32 103v1188q0 71 32 103t104 32h671q63 0 99 -20q37 -20 37 -78t-46 -84q-27 -14 -90 -14h-585z" />
    <glyph glyph-name="Eacute" unicode="&#xc9;" horiz-adv-x="1231" 
d="M662 1577q-26 0 -51 15q-47 31 -44 79q1 26 32 76l95 153q28 44 48 58t46 14t50 -15q47 -31 44 -79q-1 -26 -32 -76l-95 -152q-28 -44 -48 -58q-19 -14 -45 -15zM411 1262v-428h481q63 0 90 -15q45 -26 45 -84t-36 -78t-99 -20h-481v-440h585q63 0 90 -15q46 -26 46 -84
t-46 -84q-27 -14 -90 -14h-671q-72 0 -104 32t-32 103v1188q0 71 32 103t104 32h671q63 0 99 -20q37 -20 37 -78t-46 -84q-27 -14 -90 -14h-585z" />
    <glyph glyph-name="Ecircumflex" unicode="&#xca;" horiz-adv-x="1231" 
d="M643 1959q41 0 90 -49l170 -170q37 -38 47 -72t-25 -70q-37 -35 -71 -25t-71 47l-140 141l-140 -141q-37 -36 -71 -46t-71 24q-36 36 -22 79q6 25 44 63l170 170q49 49 90 49zM411 1262v-428h481q63 0 90 -15q45 -26 45 -84t-36 -78t-99 -20h-481v-440h585q63 0 90 -15
q46 -26 46 -84t-46 -84q-27 -14 -90 -14h-671q-72 0 -104 32t-32 103v1188q0 71 32 103t104 32h671q63 0 99 -20q37 -20 37 -78t-46 -84q-27 -14 -90 -14h-585z" />
    <glyph glyph-name="Edieresis" unicode="&#xcb;" horiz-adv-x="1231" 
d="M535 1718q0 -47 -35 -82q-35 -34 -82 -34t-81 34t-34 82t34 81q33 34 81 34t82 -34t35 -81zM983 1718q0 -48 -34 -82t-81 -34t-82 34t-34 82q0 47 34 81t82 34t81 -34q34 -33 34 -81zM411 1262v-428h481q63 0 90 -15q45 -26 45 -84t-36 -78t-99 -20h-481v-440h585
q63 0 90 -15q46 -26 46 -84t-46 -84q-27 -14 -90 -14h-671q-72 0 -104 32t-32 103v1188q0 71 32 103t104 32h671q63 0 99 -20q37 -20 37 -78t-46 -84q-27 -14 -90 -14h-585z" />
    <glyph glyph-name="Igrave" unicode="&#xcc;" horiz-adv-x="600" 
d="M157 1972q25 0 45 -14t48 -58l95 -153q31 -50 32 -76q3 -48 -44 -79q-25 -15 -51 -15q-26 1 -45 15q-20 14 -48 58l-95 152q-31 50 -32 76q-3 48 44 79q25 15 51 15zM411 142q-1 -68 -23 -109t-88 -41t-94 50q-17 31 -17 100v1174q1 68 23 109t88 41t94 -50
q17 -31 17 -100v-1174z" />
    <glyph glyph-name="Iacute" unicode="&#xcd;" horiz-adv-x="600" 
d="M319 1577q-26 0 -50 15q-47 31 -44 79q1 26 32 76l95 153q28 44 48 58t46 14t50 -15q47 -31 44 -79q-1 -26 -32 -76l-95 -152q-28 -44 -48 -58t-46 -15zM411 142q-1 -68 -23 -109t-88 -41t-94 50q-17 31 -17 100v1174q1 68 23 109t88 41t94 -50q17 -31 17 -100v-1174z
" />
    <glyph glyph-name="Icircumflex" unicode="&#xce;" horiz-adv-x="600" 
d="M301 1959q41 0 90 -49l170 -170q37 -38 47 -72t-25 -70q-37 -35 -71 -25t-71 47l-140 141l-140 -141q-37 -36 -71 -46t-71 24q-36 36 -22 79q6 25 44 63l170 170q49 49 90 49zM411 142q-1 -68 -23 -109t-88 -41t-94 50q-17 31 -17 100v1174q1 68 23 109t88 41t94 -50
q17 -31 17 -100v-1174z" />
    <glyph glyph-name="Idieresis" unicode="&#xcf;" horiz-adv-x="600" 
d="M411 142q-1 -68 -23 -109t-88 -41t-94 50q-17 31 -17 100v1174q1 68 23 109t88 41t94 -50q17 -31 17 -100v-1174zM215 1729q0 -47 -35 -82t-82 -35t-81 34q-33 34 -33 82t34 82t80 33q48 1 82 -33t35 -81zM389 1729q0 47 34 81t82 33q48 1 82 -33t34 -82t-34 -82t-81 -34
t-82 35t-35 82z" />
    <glyph glyph-name="Eth" unicode="&#xd0;" horiz-adv-x="1404" 
d="M452 1262v-439h184q58 -1 90 -19t31 -69q1 -51 -31 -69t-90 -19h-184v-450h266q165 0 251 99q50 56 63 150q14 94 14 282t-14 284q-14 94 -63 150q-86 99 -251 100h-266zM169 647q-57 1 -89 19t-31 69q-1 51 31 69t89 19h61v500q0 71 32 103t104 32h377q268 0 416 -185
q71 -90 89 -204t18 -338t-18 -340q-20 -116 -91 -208q-142 -183 -414 -183h-377q-72 0 -104 32t-32 103v512h-61z" />
    <glyph glyph-name="Ntilde" unicode="&#xd1;" horiz-adv-x="1477" 
d="M606 1696q-44 0 -82 -31t-70 -31q-30 0 -49 22t-19 58t47 76q77 63 160 63t158 -42t119 -42t82 31t70 31t50 -22t18 -58q0 -35 -62 -87t-156 -52q-44 0 -76 10t-88 42q-58 32 -102 32zM1178 1466q113 0 110 -150v-1184q0 -74 -34 -107t-76 -33q-44 0 -72 22t-63 75
l-632 935v-882q-1 -68 -23 -109t-88 -41t-94 50q-17 31 -17 100v1183q-1 75 33 109t78 32q44 0 71 -22q28 -22 63 -75l633 -935v882q0 66 16 100q28 50 95 50z" />
    <glyph glyph-name="Ograve" unicode="&#xd2;" horiz-adv-x="1325" 
d="M518 1972q26 0 44 -14q20 -14 48 -58l96 -153q31 -50 31 -76q3 -48 -44 -79q-25 -15 -51 -15q-26 1 -44 15q-20 14 -48 58l-95 152q-31 50 -32 76q-3 48 44 79q25 15 51 15zM662 184q131 0 218 92q53 58 69 146t17 307q0 219 -17 308q-16 89 -69 146q-86 91 -218 91
t-217 -91q-53 -56 -69 -145t-16 -309q0 -221 16 -309t69 -144q86 -92 217 -92zM138 729q0 314 34 414t113 179q148 148 377 148t377 -148q119 -119 137 -295q11 -98 11 -252q0 -359 -35 -460t-113 -179q-148 -148 -377 -148t-377 148q-140 140 -145 374q-2 109 -2 219z" />
    <glyph glyph-name="Oacute" unicode="&#xd3;" horiz-adv-x="1325" 
d="M680 1577q-26 0 -50 15q-47 31 -44 79q1 26 31 76l96 153q28 44 48 58q19 14 45 14t50 -15q47 -31 44 -79q-1 -26 -32 -76l-95 -152q-28 -44 -48 -58q-19 -14 -45 -15zM662 184q131 0 218 92q53 58 69 146t17 307q0 219 -17 308q-16 89 -69 146q-86 91 -218 91t-217 -91
q-53 -56 -69 -145t-16 -309q0 -221 16 -309t69 -144q86 -92 217 -92zM138 729q0 314 34 414t113 179q148 148 377 148t377 -148q119 -119 137 -295q11 -98 11 -252q0 -359 -35 -460t-113 -179q-148 -148 -377 -148t-377 148q-140 140 -145 374q-2 109 -2 219z" />
    <glyph glyph-name="Ocircumflex" unicode="&#xd4;" horiz-adv-x="1325" 
d="M662 1959q41 0 90 -49l170 -170q38 -38 44 -63q13 -43 -23 -79q-37 -35 -71 -25t-70 47l-140 141l-141 -141q-37 -36 -71 -46t-70 24q-36 36 -23 79q6 25 44 63l170 170q50 49 91 49zM662 184q131 0 218 92q53 58 69 146t17 307q0 219 -17 308q-16 89 -69 146
q-86 91 -218 91t-217 -91q-53 -56 -69 -145t-16 -309q0 -221 16 -309t69 -144q86 -92 217 -92zM138 729q0 314 34 414t113 179q148 148 377 148t377 -148q119 -119 137 -295q11 -98 11 -252q0 -359 -35 -460t-113 -179q-148 -148 -377 -148t-377 148q-140 140 -145 374
q-2 109 -2 219z" />
    <glyph glyph-name="Otilde" unicode="&#xd5;" horiz-adv-x="1325" 
d="M796 1612q-44 0 -76 10t-90 42q-56 32 -100 32t-84 -31q-38 -31 -68 -31t-50 22q-18 22 -18 58t46 76q77 63 161 63t158 -42q75 -42 119 -42t82 31t69 31t49 -22t20 -58q0 -36 -47 -76q-77 -63 -171 -63zM662 184q131 0 218 92q53 58 69 146t17 307q0 219 -17 308
q-16 89 -69 146q-86 91 -218 91t-217 -91q-53 -56 -69 -145t-16 -309q0 -221 16 -309t69 -144q86 -92 217 -92zM138 729q0 314 34 414t113 179q148 148 377 148t377 -148q119 -119 137 -295q11 -98 11 -252q0 -359 -35 -460t-113 -179q-148 -148 -377 -148t-377 148
q-140 140 -145 374q-2 109 -2 219z" />
    <glyph glyph-name="Odieresis" unicode="&#xd6;" horiz-adv-x="1325" 
d="M553 1718q0 -47 -35 -82q-35 -34 -82 -34t-81 34q-33 34 -33 82t33 81q33 34 81 34t82 -34t35 -81zM886 1833q48 0 82 -34q34 -33 33 -81q1 -48 -33 -82t-81 -34t-82 34t-35 82q0 47 34 81t82 34zM662 184q131 0 218 92q53 58 69 146t17 307q0 219 -17 308
q-16 89 -69 146q-86 91 -218 91t-217 -91q-53 -56 -69 -145t-16 -309q0 -221 16 -309t69 -144q86 -92 217 -92zM138 729q0 314 34 414t113 179q148 148 377 148t377 -148q119 -119 137 -295q11 -98 11 -252q0 -359 -35 -460t-113 -179q-148 -148 -377 -148t-377 148
q-140 140 -145 374q-2 109 -2 219z" />
    <glyph glyph-name="multiply" unicode="&#xd7;" horiz-adv-x="1091" 
d="M408 568l-199 198q-45 44 -55 84t30 80q54 55 122 12q15 -11 41 -38l199 -197l198 197q44 44 84 54t80 -29t30 -79t-55 -84l-199 -198l199 -198q45 -44 55 -84t-30 -80t-80 -30t-84 55l-198 199l-199 -199q-43 -45 -83 -55t-80 30t-30 80q11 40 55 84z" />
    <glyph glyph-name="Oslash" unicode="&#xd8;" horiz-adv-x="1325" 
d="M663 184q130 0 217 92q53 58 69 146q17 88 17 278t-10 266t-45 130l-412 -865q73 -47 164 -47zM359 758q-1 -192 9 -267t45 -130l412 867q-72 46 -162 46q-132 0 -218 -91q-53 -56 -69 -145q-16 -88 -17 -280zM663 -12q-132 0 -236 52l-30 -62q-25 -49 -55 -69t-76 3
t-45 71q0 26 24 72l41 81q-117 117 -137 295q-11 98 -11 253q0 359 34 459t113 179q148 148 378 148q125 0 233 -51l31 61q25 49 55 69t76 -3q46 -24 45 -60q0 -36 -24 -83l-40 -81q119 -119 137 -295q11 -98 11 -354q0 -257 -35 -358t-113 -179q-148 -148 -376 -148z" />
    <glyph glyph-name="Ugrave" unicode="&#xd9;" horiz-adv-x="1378" 
d="M546 1972q26 0 44 -14q20 -14 48 -58l95 -153q31 -50 32 -76q3 -48 -44 -79q-25 -15 -51 -15q-26 1 -44 15q-20 14 -48 58l-96 152q-31 50 -31 76q-3 48 44 79q25 15 51 15zM1102 1466q113 0 109 -150v-824q0 -223 -148 -364q-149 -140 -374 -140t-374 140
q-148 140 -148 364v824q0 43 2 61q3 18 14 39q28 50 95 50q113 0 110 -150v-814q0 -146 82 -232t219 -86t219 86t82 232v814q0 68 22 109q24 41 90 41z" />
    <glyph glyph-name="Uacute" unicode="&#xda;" horiz-adv-x="1378" 
d="M708 1577q-26 0 -51 15q-47 31 -44 79q1 26 32 76l95 153q28 44 48 58t46 14t50 -15q47 -31 44 -79q-1 -26 -32 -76l-95 -152q-28 -44 -48 -58q-19 -14 -45 -15zM1102 1466q113 0 109 -150v-824q0 -223 -148 -364q-149 -140 -374 -140t-374 140q-148 140 -148 364v824
q0 43 2 61q3 18 14 39q28 50 95 50q113 0 110 -150v-814q0 -146 82 -232t219 -86t219 86t82 232v814q0 68 22 109q24 41 90 41z" />
    <glyph glyph-name="Ucircumflex" unicode="&#xdb;" horiz-adv-x="1378" 
d="M689 1959q41 0 90 -49l170 -170q37 -38 47 -72t-25 -70q-37 -35 -71 -25t-71 47l-140 141l-140 -141q-37 -36 -71 -46t-70 25t-23 78q6 25 44 63l170 170q49 49 90 49zM1102 1466q113 0 109 -150v-824q0 -223 -148 -364q-149 -140 -374 -140t-374 140q-148 140 -148 364
v824q0 43 2 61q3 18 14 39q28 50 95 50q113 0 110 -150v-814q0 -146 82 -232t219 -86t219 86t82 232v814q0 68 22 109q24 41 90 41z" />
    <glyph glyph-name="Udieresis" unicode="&#xdc;" horiz-adv-x="1378" 
d="M581 1718q-1 -47 -35 -82q-34 -34 -82 -34t-81 34q-34 34 -34 82t33 81q34 34 82 34t82 -34t35 -81zM914 1833q48 0 82 -34q34 -33 33 -81q0 -48 -34 -82q-33 -34 -81 -34t-82 34t-34 82q0 47 34 81t82 34zM1102 1466q113 0 109 -150v-824q0 -223 -148 -364
q-149 -140 -374 -140t-374 140q-148 140 -148 364v824q0 43 2 61q3 18 14 39q28 50 95 50q113 0 110 -150v-814q0 -146 82 -232t219 -86t219 86t82 232v814q0 68 22 109q24 41 90 41z" />
    <glyph glyph-name="Yacute" unicode="&#xdd;" horiz-adv-x="1071" 
d="M552 1577q-26 0 -49 15q-47 31 -44 79q1 26 31 76l96 153q28 44 48 58t46 14t49 -15q47 -31 44 -79q-1 -26 -32 -76l-95 -152q-28 -44 -48 -58t-46 -15zM154 1466q28 0 52 -16t53 -76l277 -554l276 554q30 60 54 76t50 16q28 0 53 -12q55 -28 57 -72t-28 -101l-352 -700
v-439q0 -69 -16 -100q-28 -50 -94 -50t-95 50q-16 29 -16 100v439l-352 700q-29 57 -27 101t56 72q24 12 52 12z" />
    <glyph glyph-name="Thorn" unicode="&#xde;" horiz-adv-x="1304" 
d="M989 736q0 115 -70 180t-189 65h-319v-489h319q119 0 189 64t70 180zM411 1178h331q211 0 339 -124t128 -319q0 -194 -128 -317t-339 -123h-331v-153q-1 -68 -23 -109t-88 -41t-94 50q-17 31 -17 100v1174q1 68 23 109t88 41t94 -50q17 -31 17 -100v-138z" />
    <glyph glyph-name="germandbls" unicode="&#xdf;" horiz-adv-x="1155" 
d="M706 0q-131 0 -131 89q0 51 42 74q23 12 79 14q120 4 119 142v343q-1 130 -123 134q-58 2 -88 18t-29 64q-1 48 29 63t84 17t91 42q36 40 36 113q0 75 -52 125q-53 50 -169 50q-222 0 -219 -231v-923q0 -142 -105 -142q-64 0 -84 40t-20 102v935q0 199 118 301t318 103
q257 0 365 -154q57 -81 57 -198q0 -157 -127 -237q67 -36 97 -88t30 -147v-351q0 -138 -83 -218t-215 -80h-20z" />
    <glyph glyph-name="agrave" unicode="&#xe0;" horiz-adv-x="1085" 
d="M413 1280l-96 153q-31 50 -31 75q-3 48 44 79q54 33 98 -1q17 -12 45 -56l95 -153q31 -50 32 -75q3 -48 -44 -79q-54 -33 -98 1q-17 12 -45 56zM484 162q128 0 182 51t54 163v82h-246q-185 0 -185 -148t195 -148zM825 -8q-95 0 -99 104q-61 -60 -122 -84t-157 -23
q-188 -1 -275 89t-87 226t94 219t265 83h276v65q0 103 -52 153t-162 50t-202 -70q-36 -28 -75 -28t-63 28t-23 64q-1 62 103 122t286 60t290 -90q108 -91 108 -267v-559q0 -67 -16 -94q-26 -48 -89 -48z" />
    <glyph glyph-name="aacute" unicode="&#xe1;" horiz-adv-x="1085" 
d="M733 1433l-95 -153q-28 -44 -48 -58q-46 -32 -94 0t-45 80q1 26 31 75l96 153q28 44 48 58q46 32 94 0t45 -80q-1 -25 -32 -75zM484 162q128 0 182 51t54 163v82h-246q-185 0 -185 -148t195 -148zM825 -8q-95 0 -99 104q-61 -60 -122 -84t-157 -23q-188 -1 -275 89
t-87 226t94 219t265 83h276v65q0 103 -52 153t-162 50t-202 -70q-36 -28 -75 -28t-63 28t-23 64q-1 62 103 122t286 60t290 -90q108 -91 108 -267v-559q0 -67 -16 -94q-26 -48 -89 -48z" />
    <glyph glyph-name="acircumflex" unicode="&#xe2;" horiz-adv-x="1085" 
d="M525 1585q41 0 90 -49l170 -170q37 -38 47 -72t-25 -69q-37 -35 -71 -25t-70 46l-141 142l-140 -142q-37 -36 -71 -46t-70 25q-36 36 -23 79q6 25 44 62l170 170q49 49 90 49zM484 162q128 0 182 51t54 163v82h-246q-185 0 -185 -148t195 -148zM825 -8q-95 0 -99 104
q-61 -60 -122 -84t-157 -23q-188 -1 -275 89t-87 226t94 219t265 83h276v65q0 103 -52 153t-162 50t-202 -70q-36 -28 -75 -28t-63 28t-23 64q-1 62 103 122t286 60t290 -90q108 -91 108 -267v-559q0 -67 -16 -94q-26 -48 -89 -48z" />
    <glyph glyph-name="atilde" unicode="&#xe3;" horiz-adv-x="1085" 
d="M394 1329q-44 0 -83 -31q-73 -60 -121 -7q-17 21 -17 57t47 75q77 63 160 63t158 -41q75 -42 119 -42q45 0 83 31q74 60 120 7q18 -20 18 -56q0 -35 -62 -87t-157 -53q-44 0 -76 10q-33 10 -89 42t-100 32zM484 162q128 0 182 51t54 163v82h-246q-185 0 -185 -148
t195 -148zM825 -8q-95 0 -99 104q-61 -60 -122 -84t-157 -23q-188 -1 -275 89t-87 226t94 219t265 83h276v65q0 103 -52 153t-162 50t-202 -70q-36 -28 -75 -28t-63 28t-23 64q-1 62 103 122t286 60t290 -90q108 -91 108 -267v-559q0 -67 -16 -94q-26 -48 -89 -48z" />
    <glyph glyph-name="adieresis" unicode="&#xe4;" horiz-adv-x="1085" 
d="M417 1346q-1 -47 -35 -82t-82 -35t-81 34q-34 34 -34 82q-1 47 33 81t82 34t82 -34t35 -80zM636 1346q0 46 34 80t82 34t82 -34q33 -34 33 -80q0 -48 -33 -83q-34 -34 -82 -34t-82 35t-34 82zM484 162q128 0 182 51t54 163v82h-246q-185 0 -185 -148t195 -148zM825 -8
q-95 0 -99 104q-61 -60 -122 -84t-157 -23q-188 -1 -275 89t-87 226t94 219t265 83h276v65q0 103 -52 153t-162 50t-202 -70q-36 -28 -75 -28t-63 28t-23 64q-1 62 103 122t286 60t290 -90q108 -91 108 -267v-559q0 -67 -16 -94q-26 -48 -89 -48z" />
    <glyph glyph-name="aring" unicode="&#xe5;" horiz-adv-x="1085" 
d="M395 1436q0 -54 38 -92t92 -38t92 38t38 92t-38 91q-38 39 -92 39t-92 -38t-38 -92zM269 1436q-1 106 75 181t181 75t181 -75t75 -181q0 -106 -75 -182q-74 -76 -180 -74q-106 0 -182 75t-75 181zM484 162q128 0 182 51t54 163v82h-246q-185 0 -185 -148t195 -148z
M825 -8q-95 0 -99 104q-61 -60 -122 -84t-157 -23q-188 -1 -275 89t-87 226t94 219t265 83h276v65q0 103 -52 153t-162 50t-202 -70q-36 -28 -75 -28t-63 28t-23 64q-1 62 103 122t286 60t290 -90q108 -91 108 -267v-559q0 -67 -16 -94q-26 -48 -89 -48z" />
    <glyph glyph-name="ae" unicode="&#xe6;" horiz-adv-x="1708" 
d="M927 459q0 -135 69 -214t192 -79t205 65q47 38 82 38t62 -27t27 -62q0 -59 -103 -126t-273 -66q-250 0 -370 160q-75 -92 -159 -126t-212 -33q-188 -1 -275 89t-87 226t94 219t265 83h276v65q0 103 -52 153t-162 50t-202 -70q-36 -28 -75 -28t-63 28t-23 64q0 63 104 123
t258 61q249 0 347 -137q112 137 310 137t315 -132q117 -131 122 -341q1 -61 -27 -91t-93 -29h-552zM1394 604q-6 91 -31 146q-25 54 -78 90t-125 36t-126 -34q-103 -68 -107 -238h467zM484 162q128 0 182 51t54 163v82h-246q-185 0 -185 -148t195 -148z" />
    <glyph glyph-name="ccedilla" unicode="&#xe7;" horiz-adv-x="992" 
d="M560 -110q26 0 50 -15q47 -31 44 -79q-1 -26 -31 -76l-96 -152q-28 -44 -45 -57q-24 -15 -49 -15t-49 15q-48 30 -45 78q1 27 33 76l95 153q29 44 49 58q18 14 44 14zM113 519q0 398 288 502q80 29 189 29t211 -65q49 -33 75 -61t26 -64t-28 -66q-28 -29 -65 -29
q-36 1 -96 49t-140 48q-123 0 -187 -86t-64 -257t65 -257t186 -86q77 0 139 49t98 49t64 -30t28 -66t-27 -65t-74 -60q-102 -65 -211 -65t-189 29q-288 104 -288 502z" />
    <glyph glyph-name="egrave" unicode="&#xe8;" horiz-adv-x="1100" 
d="M442 1280l-95 153q-31 50 -32 75q-3 48 44 79q55 33 99 -1q17 -12 45 -56l95 -153q31 -50 32 -75q3 -48 -44 -79q-54 -32 -99 1q-17 12 -45 56zM786 604q-6 91 -30 146q-24 54 -78 90t-126 36t-126 -34q-101 -67 -107 -238h467zM319 459q-1 -135 69 -214t193 -79t204 65
q47 38 83 38t62 -27q27 -27 26 -62q0 -59 -102 -126q-102 -66 -291 -66q-188 0 -319 120t-131 392q1 272 119 411t320 139t318 -130q117 -131 122 -341q2 -61 -26 -91t-95 -29h-552z" />
    <glyph glyph-name="eacute" unicode="&#xe9;" horiz-adv-x="1100" 
d="M763 1433l-95 -153q-28 -44 -48 -58q-46 -32 -95 0q-48 32 -45 80q1 26 32 75l95 153q28 44 48 58q45 32 94 0t46 -80q-1 -25 -32 -75zM786 604q-6 91 -30 146q-24 54 -78 90t-126 36t-126 -34q-101 -67 -107 -238h467zM319 459q-1 -135 69 -214t193 -79t204 65
q47 38 83 38t62 -27q27 -27 26 -62q0 -59 -102 -126q-102 -66 -291 -66q-188 0 -319 120t-131 392q1 272 119 411t320 139t318 -130q117 -131 122 -341q2 -61 -26 -91t-95 -29h-552z" />
    <glyph glyph-name="ecircumflex" unicode="&#xea;" horiz-adv-x="1100" 
d="M555 1585q41 0 90 -49l170 -170q37 -38 47 -72t-25 -69q-37 -35 -71 -25t-71 46l-140 142l-140 -142q-37 -36 -71 -46t-71 25q-36 36 -22 79q6 25 44 62l170 170q49 49 90 49zM786 604q-6 91 -30 146q-24 54 -78 90t-126 36t-126 -34q-101 -67 -107 -238h467zM319 459
q-1 -135 69 -214t193 -79t204 65q47 38 83 38t62 -27q27 -27 26 -62q0 -59 -102 -126q-102 -66 -291 -66q-188 0 -319 120t-131 392q1 272 119 411t320 139t318 -130q117 -131 122 -341q2 -61 -26 -91t-95 -29h-552z" />
    <glyph glyph-name="edieresis" unicode="&#xeb;" horiz-adv-x="1100" 
d="M446 1346q0 -47 -34 -82t-82 -35q-47 0 -81 34t-34 82q0 47 34 81q33 34 81 34t82 -34t34 -80zM782 1460q48 0 81 -34q34 -34 34 -80q0 -48 -34 -82t-81 -35q-47 0 -82 35t-34 82q0 46 34 80t82 34zM786 604q-6 91 -30 146q-24 54 -78 90t-126 36t-126 -34
q-101 -67 -107 -238h467zM319 459q-1 -135 69 -214t193 -79t204 65q47 38 83 38t62 -27q27 -27 26 -62q0 -59 -102 -126q-102 -66 -291 -66q-188 0 -319 120t-131 392q1 272 119 411t320 139t318 -130q117 -131 122 -341q2 -61 -26 -91t-95 -29h-552z" />
    <glyph glyph-name="igrave" unicode="&#xec;" horiz-adv-x="540" 
d="M159 1280l-96 153q-31 50 -31 75q-3 48 44 79q54 33 98 -1q17 -12 45 -56l95 -153q31 -50 32 -75q3 -48 -44 -79q-54 -33 -98 1q-17 12 -45 56zM375 134q0 -142 -105 -142q-64 0 -84 40t-20 102v770q0 62 20 102t84 40q63 0 89 -49q15 -31 16 -93v-770z" />
    <glyph glyph-name="iacute" unicode="&#xed;" horiz-adv-x="540" 
d="M479 1433l-95 -153q-28 -44 -48 -58q-46 -32 -94 0t-45 80q1 26 31 75l96 153q28 44 48 58q46 32 94 0t45 -80q-1 -25 -32 -75zM375 134q0 -142 -105 -142q-64 0 -84 40t-20 102v770q0 62 20 102t84 40q63 0 89 -49q15 -31 16 -93v-770z" />
    <glyph glyph-name="icircumflex" unicode="&#xee;" horiz-adv-x="540" 
d="M271 1585q41 0 90 -49l170 -170q37 -38 47 -72t-25 -69q-37 -35 -71 -25t-70 46l-141 142l-140 -142q-37 -36 -71 -46t-70 25q-36 36 -23 79q6 25 44 62l170 170q49 49 90 49zM375 134q0 -142 -105 -142q-64 0 -84 40t-20 102v770q0 62 20 102t84 40q63 0 89 -49
q15 -31 16 -93v-770z" />
    <glyph glyph-name="idieresis" unicode="&#xef;" horiz-adv-x="540" 
d="M375 134q0 -142 -105 -142q-64 0 -84 40t-20 102v770q0 62 20 102t84 40q63 0 89 -49q15 -31 16 -93v-770zM185 1346q0 -47 -34 -82q-33 -35 -81 -35t-82 34t-34 82q0 47 33 81t81 34t83 -34q34 -34 34 -80zM472 1460q48 0 82 -34t33 -80q0 -48 -34 -82q-33 -34 -81 -35
q-48 0 -82 35t-35 82q1 46 35 80t82 34z" />
    <glyph glyph-name="eth" unicode="&#xf0;" horiz-adv-x="1099" 
d="M766 510q0 100 -13 166q-13 67 -63 118q-50 52 -140 52q-89 0 -140 -52q-52 -52 -64 -118t-12 -166t13 -168t63 -119t140 -51t140 51t63 119t13 168zM975 510q0 -142 -25 -234t-96 -167q-114 -121 -304 -121t-304 121q-72 75 -96 167t-25 233q0 141 26 236q27 95 101 172
t207 99q35 6 73 6t82 -10l-71 142h-165q-53 0 -74 12q-37 20 -37 68t37 69q20 12 74 12h85q-42 88 11 134q30 27 63 27t57 -16q24 -18 50 -71l37 -74h111q52 0 72 -12q37 -20 37 -68t-37 -69q-20 -12 -72 -12h-29l87 -169q76 -148 100 -241t25 -234z" />
    <glyph glyph-name="ntilde" unicode="&#xf1;" horiz-adv-x="1163" 
d="M458 1329q-44 0 -82 -31q-74 -61 -121 -7q-17 21 -17 57t47 75q77 63 161 63t157 -41q75 -42 119 -42t82 31q73 60 121 7q17 -20 17 -56t-47 -76q-77 -63 -171 -64q-44 0 -76 10t-90 42q-56 32 -100 32zM1008 134q0 -142 -105 -142q-63 0 -83 40t-21 102v499
q0 117 -58 173q-57 56 -151 56t-154 -58t-61 -171v-499q0 -142 -105 -142q-64 0 -84 40t-20 102v769q0 69 23 106t81 38q97 0 104 -110q108 114 270 114t262 -98t102 -289v-530z" />
    <glyph glyph-name="ograve" unicode="&#xf2;" horiz-adv-x="1099" 
d="M438 1280l-95 153q-31 50 -32 75q-3 48 44 79q55 33 99 -1q17 -12 45 -56l95 -153q31 -50 32 -75q3 -48 -44 -79q-55 -33 -99 1q-17 12 -45 56zM118 519q0 143 25 239t97 170q119 123 310 123t310 -123q70 -74 96 -170t26 -239t-26 -239t-96 -169q-119 -123 -310 -123
t-310 123q-72 74 -97 169t-25 239zM550 862q-93 0 -144 -51t-65 -121t-14 -172q0 -100 14 -170t57 -112q58 -60 152 -60t144 52t64 120q14 70 15 170q0 100 -14 172q-14 70 -65 121t-144 51z" />
    <glyph glyph-name="oacute" unicode="&#xf3;" horiz-adv-x="1099" 
d="M759 1433l-95 -153q-28 -44 -48 -58q-46 -32 -95 0q-48 32 -45 80q1 26 32 75l95 153q28 44 48 58q46 32 94 0t46 -80q-1 -25 -32 -75zM118 519q0 143 25 239t97 170q119 123 310 123t310 -123q70 -74 96 -170t26 -239t-26 -239t-96 -169q-119 -123 -310 -123t-310 123
q-72 74 -97 169t-25 239zM550 862q-93 0 -144 -51t-65 -121t-14 -172q0 -100 14 -170t57 -112q58 -60 152 -60t144 52t64 120q14 70 15 170q0 100 -14 172q-14 70 -65 121t-144 51z" />
    <glyph glyph-name="ocircumflex" unicode="&#xf4;" horiz-adv-x="1099" 
d="M551 1585q41 0 90 -49l170 -170q37 -38 47 -72t-25 -69q-37 -35 -71 -25t-71 46l-140 142l-140 -142q-37 -36 -71 -46t-71 25q-36 36 -22 79q6 25 44 62l170 170q49 49 90 49zM118 519q0 143 25 239t97 170q119 123 310 123t310 -123q70 -74 96 -170t26 -239t-26 -239
t-96 -169q-119 -123 -310 -123t-310 123q-72 74 -97 169t-25 239zM550 862q-93 0 -144 -51t-65 -121t-14 -172q0 -100 14 -170t57 -112q58 -60 152 -60t144 52t64 120q14 70 15 170q0 100 -14 172q-14 70 -65 121t-144 51z" />
    <glyph glyph-name="otilde" unicode="&#xf5;" horiz-adv-x="1099" 
d="M419 1329q-44 0 -82 -31q-74 -61 -121 -7q-17 21 -17 57t47 75q77 63 161 63t157 -41q74 -42 118 -42t83 31q73 60 121 7q17 -20 17 -56t-47 -76q-77 -63 -171 -64q-45 0 -77 10t-88 42t-101 32zM118 519q0 143 25 239t97 170q119 123 310 123t310 -123q70 -74 96 -170
t26 -239t-26 -239t-96 -169q-119 -123 -310 -123t-310 123q-72 74 -97 169t-25 239zM550 862q-93 0 -144 -51t-65 -121t-14 -172q0 -100 14 -170t57 -112q58 -60 152 -60t144 52t64 120q14 70 15 170q0 100 -14 172q-14 70 -65 121t-144 51z" />
    <glyph glyph-name="odieresis" unicode="&#xf6;" horiz-adv-x="1099" 
d="M442 1346q0 -47 -34 -82t-82 -35q-47 0 -81 34t-34 82q0 47 34 81q33 34 81 34t82 -34t34 -80zM778 1460q48 0 81 -34q34 -34 34 -80q0 -48 -34 -82t-81 -35q-47 0 -82 35t-34 82q0 46 34 80t82 34zM118 519q0 143 25 239t97 170q119 123 310 123t310 -123
q70 -74 96 -170t26 -239t-26 -239t-96 -169q-119 -123 -310 -123t-310 123q-72 74 -97 169t-25 239zM550 862q-93 0 -144 -51t-65 -121t-14 -172q0 -100 14 -170t57 -112q58 -60 152 -60t144 52t64 120q14 70 15 170q0 100 -14 172q-14 70 -65 121t-144 51z" />
    <glyph glyph-name="divide" unicode="&#xf7;" horiz-adv-x="1091" 
d="M867 475h-643q-60 0 -94 20t-34 74t43 80q24 14 85 15h643q61 0 85 -15q43 -26 43 -80q-1 -54 -35 -74t-93 -20zM695 966q0 -62 -44 -106t-105 -44t-106 44q-44 44 -44 106t44 104q44 43 106 43t105 -43q44 -43 44 -104zM695 173q0 -61 -44 -105t-105 -44t-106 44
q-44 44 -44 105t44 105t106 43q62 1 105 -43q44 -44 44 -105z" />
    <glyph glyph-name="oslash" unicode="&#xf8;" horiz-adv-x="1099" 
d="M562 176q80 0 132 52t65 122q14 68 14 194t-38 189l-307 -522q54 -35 134 -35zM538 862q-82 0 -134 -51q-51 -51 -64 -120t-13 -196t37 -188l307 522q-51 33 -133 33zM549 1051q111 0 203 -46l41 69q54 88 117 50q40 -23 38 -56t-25 -71l-51 -84q62 -71 86 -165t24 -232
q0 -139 -26 -236t-96 -169q-119 -123 -311 -123q-111 0 -203 46l-42 -71q-54 -88 -118 -50q-40 24 -38 56t26 71l52 85q-61 71 -85 161q-23 90 -23 232t26 240q26 97 96 170q119 123 309 123z" />
    <glyph glyph-name="ugrave" unicode="&#xf9;" horiz-adv-x="1163" 
d="M462 1280l-95 153q-31 50 -32 75q-3 48 44 79q54 33 98 -1q17 -12 45 -56l95 -153q31 -50 32 -75q3 -48 -44 -79q-54 -33 -98 1q-17 12 -45 56zM788 904q0 141 105 143q63 0 89 -50q15 -31 15 -93v-769q0 -69 -23 -106t-80 -37q-99 0 -104 109q-108 -113 -270 -113
t-264 98q-100 98 -100 289v529q0 62 20 102t84 40q63 0 89 -49q15 -31 16 -93v-498q-1 -116 57 -173t152 -57t154 58t60 172v498z" />
    <glyph glyph-name="uacute" unicode="&#xfa;" horiz-adv-x="1163" 
d="M782 1433l-95 -153q-28 -44 -48 -58q-46 -32 -94 0t-45 80q1 26 31 75l96 153q28 44 48 58q46 32 94 0t45 -80q-1 -25 -32 -75zM788 904q0 141 105 143q63 0 89 -50q15 -31 15 -93v-769q0 -69 -23 -106t-80 -37q-99 0 -104 109q-108 -113 -270 -113t-264 98
q-100 98 -100 289v529q0 62 20 102t84 40q63 0 89 -49q15 -31 16 -93v-498q-1 -116 57 -173t152 -57t154 58t60 172v498z" />
    <glyph glyph-name="ucircumflex" unicode="&#xfb;" horiz-adv-x="1163" 
d="M574 1585q41 0 91 -49l170 -170q38 -38 44 -62q13 -43 -23 -79q-37 -35 -71 -25t-70 46l-141 142l-140 -142q-36 -36 -70 -46t-71 25q-36 36 -23 79q6 25 44 62l170 170q49 49 90 49zM788 904q0 141 105 143q63 0 89 -50q15 -31 15 -93v-769q0 -69 -23 -106t-80 -37
q-99 0 -104 109q-108 -113 -270 -113t-264 98q-100 98 -100 289v529q0 62 20 102t84 40q63 0 89 -49q15 -31 16 -93v-498q-1 -116 57 -173t152 -57t154 58t60 172v498z" />
    <glyph glyph-name="udieresis" unicode="&#xfc;" horiz-adv-x="1163" 
d="M466 1346q0 -47 -34 -82t-82 -35t-82 34t-34 82q0 47 34 81t81 34q49 0 83 -34t34 -80zM685 1346q0 46 34 80q35 34 83 34t81 -34t33 -80q0 -48 -33 -83q-33 -34 -81 -34t-83 35q-34 35 -34 82zM788 904q0 141 105 143q63 0 89 -50q15 -31 15 -93v-769q0 -69 -23 -106
t-80 -37q-99 0 -104 109q-108 -113 -270 -113t-264 98q-100 98 -100 289v529q0 62 20 102t84 40q63 0 89 -49q15 -31 16 -93v-498q-1 -116 57 -173t152 -57t154 58t60 172v498z" />
    <glyph glyph-name="yacute" unicode="&#xfd;" horiz-adv-x="919" 
d="M666 1433l-96 -153q-28 -44 -48 -58q-46 -32 -94 0t-45 80q1 26 32 75l95 153q28 44 48 58q46 32 94 0t45 -80q0 -25 -31 -75zM156 1047q38 1 60 -25q21 -26 37 -76l205 -636l209 636q16 50 37 75q22 25 60 25t66 -18q28 -19 38 -50t-14 -94l-378 -1092
q-74 -206 -279 -206q-128 0 -126 96q0 91 101 93q49 1 81 25t53 85l50 153l-290 846q-24 67 -14 96t38 48t66 19z" />
    <glyph glyph-name="thorn" unicode="&#xfe;" horiz-adv-x="1132" 
d="M805 519q0 203 -56 273t-159 70q-154 0 -194 -143q-21 -76 -21 -168q0 -93 4 -139t17 -93t36 -76t63 -48t95 -19q104 0 159 70q56 70 56 273zM375 -285q0 -142 -105 -142q-64 0 -84 40t-20 102v1609q0 62 20 102t84 40t84 -40t21 -102v-390q54 65 119 91t153 26
q160 0 252 -93q69 -70 92 -178t23 -260q0 -154 -23 -262t-92 -178q-92 -92 -254 -92q-87 0 -151 26t-119 91v-390z" />
    <glyph glyph-name="ydieresis" unicode="&#xff;" horiz-adv-x="919" 
d="M349 1346q0 -47 -34 -82t-82 -35q-47 0 -81 34t-34 82q0 47 33 81t81 34t82 -34t35 -80zM685 1460q47 0 81 -34t34 -80q0 -48 -34 -82t-82 -35q-48 0 -81 35q-34 35 -35 82q0 46 34 80t83 34zM156 1047q38 1 60 -25q21 -26 37 -76l205 -636l209 636q16 50 37 75
q22 25 60 25t66 -18q28 -19 38 -50t-14 -94l-378 -1092q-74 -206 -279 -206q-128 0 -126 96q0 91 101 93q49 1 81 25t53 85l50 153l-290 846q-24 67 -14 96t38 48t66 19z" />
    <glyph glyph-name="Amacron" unicode="&#x100;" horiz-adv-x="1275" 
d="M434 1640q-115 0 -115 84t115 84h409q116 0 114 -84q-1 -49 -31 -66t-83 -18h-409zM1196 18q-26 -26 -78 -26q-53 0 -82 50q-9 17 -23 55l-73 196h-604l-73 -196q-24 -66 -50 -86q-25 -19 -67 -19t-75 36q-34 36 -22 88q5 21 18 55l446 1189q39 108 125 107t125 -107
l446 -1189q25 -66 19 -96q-6 -31 -32 -57zM871 481l-233 638l-234 -638h467z" />
    <glyph glyph-name="amacron" unicode="&#x101;" horiz-adv-x="1085" 
d="M729 1435q114 0 114 -84t-114 -84h-408q-115 0 -115 83t115 85h408zM484 162q128 0 182 51t54 163v82h-246q-185 0 -185 -148t195 -148zM825 -8q-95 0 -99 104q-61 -60 -122 -84t-157 -23q-188 -1 -275 89t-87 226t94 219t265 83h276v65q0 103 -52 153t-162 50t-202 -70
q-36 -28 -75 -28t-63 28t-23 64q-1 62 103 122t286 60t290 -90q108 -91 108 -267v-559q0 -67 -16 -94q-26 -48 -89 -48z" />
    <glyph glyph-name="Abreve" unicode="&#x102;" horiz-adv-x="1275" 
d="M638 1755q83 0 167 74q64 56 116 0q56 -63 -25 -134q-114 -105 -258 -105t-258 105q-81 71 -28 131t119 3q84 -74 167 -74zM1196 18q-26 -26 -78 -26q-53 0 -82 50q-9 17 -23 55l-73 196h-604l-73 -196q-24 -66 -50 -86q-25 -19 -67 -19t-75 36q-34 36 -22 88q5 21 18 55
l446 1189q39 108 125 107t125 -107l446 -1189q25 -66 19 -96q-6 -31 -32 -57zM871 481l-233 638l-234 -638h467z" />
    <glyph glyph-name="abreve" unicode="&#x103;" horiz-adv-x="1085" 
d="M525 1381q83 0 167 74q66 58 116 0q56 -63 -25 -134q-114 -104 -258 -104t-258 104q-82 71 -27 131t118 3q84 -74 167 -74zM484 162q128 0 182 51t54 163v82h-246q-185 0 -185 -148t195 -148zM825 -8q-95 0 -99 104q-61 -60 -122 -84t-157 -23q-188 -1 -275 89t-87 226
t94 219t265 83h276v65q0 103 -52 153t-162 50t-202 -70q-36 -28 -75 -28t-63 28t-23 64q-1 62 103 122t286 60t290 -90q108 -91 108 -267v-559q0 -67 -16 -94q-26 -48 -89 -48z" />
    <glyph glyph-name="Aogonek" unicode="&#x104;" horiz-adv-x="1275" 
d="M1128 -110q26 0 50 -15q47 -31 44 -79q-1 -26 -32 -76l-95 -152q-28 -44 -45 -57q-24 -15 -50 -15t-49 15q-48 30 -45 78q1 27 33 76l95 153q28 44 48 58t46 14zM1196 18q-26 -26 -78 -26q-53 0 -82 50q-9 17 -23 55l-73 196h-604l-73 -196q-24 -66 -50 -86
q-25 -19 -67 -19t-75 36q-34 36 -22 88q5 21 18 55l446 1189q39 108 125 107t125 -107l446 -1189q25 -66 19 -96q-6 -31 -32 -57zM871 481l-233 638l-234 -638h467z" />
    <glyph glyph-name="aogonek" unicode="&#x105;" horiz-adv-x="1085" 
d="M798 -110q26 0 49 -15q47 -31 44 -79q-1 -26 -32 -76l-95 -152q-28 -44 -48 -58t-46 -14t-49 15q-49 29 -47 67t34 87l95 153q29 44 49 58t46 14zM484 162q128 0 182 51t54 163v82h-246q-185 0 -185 -148t195 -148zM825 -8q-95 0 -99 104q-61 -60 -122 -84t-157 -23
q-188 -1 -275 89t-87 226t94 219t265 83h276v65q0 103 -52 153t-162 50t-202 -70q-36 -28 -75 -28t-63 28t-23 64q-1 62 103 122t286 60t290 -90q108 -91 108 -267v-559q0 -67 -16 -94q-26 -48 -89 -48z" />
    <glyph glyph-name="Cacute" unicode="&#x106;" horiz-adv-x="1283" 
d="M680 1577q-26 0 -49 15q-47 31 -44 79q1 26 31 76l96 153q28 44 48 58t46 14t49 -15q47 -31 44 -79q-1 -26 -32 -76l-95 -152q-28 -44 -48 -58t-46 -15zM138 729q0 314 34 414t113 179q148 148 375 148q243 0 375 -142q119 -128 119 -247q0 -49 -32 -79t-72 -30t-68 22
t-62 100q-34 80 -99 130t-177 50t-198 -91q-55 -61 -71 -149t-16 -305t16 -305t71 -149q85 -91 197 -91q199 0 277 180q34 80 62 101q26 21 68 21t73 -30t31 -79q0 -119 -126 -254t-361 -135q-234 0 -382 148q-140 140 -145 374q-2 109 -2 219z" />
    <glyph glyph-name="cacute" unicode="&#x107;" horiz-adv-x="992" 
d="M782 1433l-95 -153q-28 -44 -48 -58q-46 -32 -94 0t-45 80q1 26 31 75l96 153q28 44 48 58q46 32 94 0t45 -80q-1 -25 -32 -75zM113 519q0 398 288 502q80 29 189 29t211 -65q49 -33 75 -61t26 -64t-28 -66q-28 -29 -65 -29q-36 1 -96 49t-140 48q-123 0 -187 -86
t-64 -257t65 -257t186 -86q77 0 139 49t98 49t64 -30t28 -66t-27 -65t-74 -60q-102 -65 -211 -65t-189 29q-288 104 -288 502z" />
    <glyph glyph-name="Ccircumflex" unicode="&#x108;" horiz-adv-x="1283" 
d="M663 1959q41 0 90 -49l170 -170q38 -38 44 -63q13 -43 -23 -79q-37 -35 -71 -25t-70 47l-140 141l-141 -141q-36 -36 -70 -46t-71 24q-36 36 -23 79q6 25 44 63l170 170q50 49 91 49zM138 729q0 314 34 414t113 179q148 148 375 148q243 0 375 -142q119 -128 119 -247
q0 -49 -32 -79t-72 -30t-68 22t-62 100q-34 80 -99 130t-177 50t-198 -91q-55 -61 -71 -149t-16 -305t16 -305t71 -149q85 -91 197 -91q199 0 277 180q34 80 62 101q26 21 68 21t73 -30t31 -79q0 -119 -126 -254t-361 -135q-234 0 -382 148q-140 140 -145 374q-2 109 -2 219
z" />
    <glyph glyph-name="ccircumflex" unicode="&#x109;" horiz-adv-x="992" 
d="M574 1585q41 0 91 -49l170 -170q38 -38 44 -62q13 -43 -23 -79q-37 -35 -71 -25t-70 46l-141 142l-140 -142q-36 -36 -70 -46t-71 25q-36 36 -23 79q6 25 44 62l170 170q49 49 90 49zM113 519q0 398 288 502q80 29 189 29t211 -65q49 -33 75 -61t26 -64t-28 -66
q-28 -29 -65 -29q-36 1 -96 49t-140 48q-123 0 -187 -86t-64 -257t65 -257t186 -86q77 0 139 49t98 49t64 -30t28 -66t-27 -65t-74 -60q-102 -65 -211 -65t-189 29q-288 104 -288 502z" />
    <glyph glyph-name="Cdotaccent" unicode="&#x10a;" horiz-adv-x="1283" 
d="M548 1729q0 47 34 81t82 34t81 -34q34 -34 34 -81t-34 -81t-81 -35q-47 0 -82 34q-34 35 -34 82zM138 729q0 314 34 414t113 179q148 148 375 148q243 0 375 -142q119 -128 119 -247q0 -49 -32 -79t-72 -30t-68 22t-62 100q-34 80 -99 130t-177 50t-198 -91
q-55 -61 -71 -149t-16 -305t16 -305t71 -149q85 -91 197 -91q199 0 277 180q34 80 62 101q26 21 68 21t73 -30t31 -79q0 -119 -126 -254t-361 -135q-234 0 -382 148q-140 140 -145 374q-2 109 -2 219z" />
    <glyph glyph-name="cdotaccent" unicode="&#x10b;" horiz-adv-x="992" 
d="M459 1355q0 48 34 82q33 33 81 33t82 -34t34 -81q0 -48 -34 -82t-82 -34t-82 34t-33 82zM113 519q0 398 288 502q80 29 189 29t211 -65q49 -33 75 -61t26 -64t-28 -66q-28 -29 -65 -29q-36 1 -96 49t-140 48q-123 0 -187 -86t-64 -257t65 -257t186 -86q77 0 139 49t98 49
t64 -30t28 -66t-27 -65t-74 -60q-102 -65 -211 -65t-189 29q-288 104 -288 502z" />
    <glyph glyph-name="Ccaron" unicode="&#x10c;" horiz-adv-x="1283" 
d="M663 1569q-42 0 -91 48l-171 171q-81 79 -21 140q61 62 141 -20l142 -142l141 142q80 80 140 20q61 -61 -20 -140l-171 -171q-48 -48 -90 -48zM138 729q0 314 34 414t113 179q148 148 375 148q243 0 375 -142q119 -128 119 -247q0 -49 -32 -79t-72 -30t-68 22t-62 100
q-34 80 -99 130t-177 50t-198 -91q-55 -61 -71 -149t-16 -305t16 -305t71 -149q85 -91 197 -91q199 0 277 180q34 80 62 101q26 21 68 21t73 -30t31 -79q0 -119 -126 -254t-361 -135q-234 0 -382 148q-140 140 -145 374q-2 109 -2 219z" />
    <glyph glyph-name="ccaron" unicode="&#x10d;" horiz-adv-x="992" 
d="M574 1195q-42 0 -90 48l-171 171q-81 80 -21 140q61 61 141 -20l141 -141l142 141q80 80 140 20t-20 -140l-171 -171q-49 -48 -91 -48zM113 519q0 398 288 502q80 29 189 29t211 -65q49 -33 75 -61t26 -64t-28 -66q-28 -29 -65 -29q-36 1 -96 49t-140 48q-123 0 -187 -86
t-64 -257t65 -257t186 -86q77 0 139 49t98 49t64 -30t28 -66t-27 -65t-74 -60q-102 -65 -211 -65t-189 29q-288 104 -288 502z" />
    <glyph glyph-name="Dcaron" unicode="&#x10e;" horiz-adv-x="1363" 
d="M681 1569q-42 0 -90 48l-171 171q-81 78 -21 140q60 61 141 -20l141 -142l141 142q80 80 141 20q61 -61 -21 -140l-171 -171q-48 -48 -90 -48zM411 1262v-1065h266q165 0 251 99q50 56 63 150t13 282t-12 284q-14 94 -64 150q-86 99 -251 100h-266zM325 1458h377
q268 0 416 -185q71 -90 89 -204q19 -114 19 -338t-20 -340t-90 -208q-142 -183 -414 -183h-377q-72 0 -104 32t-32 103v1188q0 71 32 103t104 32z" />
    <glyph glyph-name="dcaron" unicode="&#x10f;" horiz-adv-x="1131" 
d="M1196 1151q-32 0 -58 17q-26 18 -34 46t12 89l55 165q17 53 39 74t55 21q33 1 59 -17t32 -46q8 -28 -11 -89l-56 -166q-17 -53 -39 -73t-54 -21zM327 519q0 -206 56 -274q56 -69 159 -69q154 0 194 143q22 80 22 203t-18 184q-18 60 -40 89q-23 29 -63 48t-95 19
q-190 0 -211 -236q-4 -46 -4 -107zM861 1466q105 0 105 -142v-1189q0 -143 -105 -143q-99 0 -103 114q-100 -120 -267 -119t-259 93q-70 70 -92 178t-22 262q0 153 23 261t91 177q92 92 252 93q88 0 153 -26t120 -91v390q1 62 21 102t83 40z" />
    <glyph glyph-name="Dcroat" unicode="&#x110;" horiz-adv-x="1404" 
d="M452 1262v-439h184q58 -1 90 -19t31 -69q1 -51 -31 -69t-90 -19h-184v-450h266q165 0 251 99q50 56 63 150q14 94 14 282t-14 284q-14 94 -63 150q-86 99 -251 100h-266zM169 647q-57 1 -89 19t-31 69q-1 51 31 69t89 19h61v500q0 71 32 103t104 32h377q268 0 416 -185
q71 -90 89 -204t18 -338t-18 -340q-20 -116 -91 -208q-142 -183 -414 -183h-377q-72 0 -104 32t-32 103v512h-61z" />
    <glyph glyph-name="dcroat" unicode="&#x111;" horiz-adv-x="1138" 
d="M327 519q0 -206 56 -274q56 -69 159 -69q154 0 194 143q22 80 22 203t-18 184q-18 60 -40 89q-23 29 -63 48t-95 19q-190 0 -211 -236q-4 -46 -4 -107zM118 520q0 153 23 261t91 177q92 92 252 93q88 0 153 -26t120 -91v220h-134q-50 0 -80 16t-30 64t30 64t80 16h134v10
q1 62 21 102t83 40t83 -40t22 -102v-10h23q50 0 80 -16t30 -64t-30 -64t-80 -16h-23v-1020q0 -142 -105 -142q-99 0 -103 114q-100 -120 -267 -119t-259 93q-70 70 -92 178t-22 262z" />
    <glyph glyph-name="Emacron" unicode="&#x112;" horiz-adv-x="1231" 
d="M439 1640q-114 0 -114 84t114 84h409q115 0 115 -83t-115 -85h-409zM411 1262v-428h481q63 0 90 -15q45 -26 45 -84t-36 -78t-99 -20h-481v-440h585q63 0 90 -15q46 -26 46 -84t-46 -84q-27 -14 -90 -14h-671q-72 0 -104 32t-32 103v1188q0 71 32 103t104 32h671
q63 0 99 -20q37 -20 37 -78t-46 -84q-27 -14 -90 -14h-585z" />
    <glyph glyph-name="emacron" unicode="&#x113;" horiz-adv-x="1100" 
d="M759 1435q113 0 113 -84q0 -50 -30 -67t-83 -17h-409q-116 0 -114 84q0 49 31 66t83 18h409zM786 604q-6 91 -30 146q-24 54 -78 90t-126 36t-126 -34q-101 -67 -107 -238h467zM319 459q-1 -135 69 -214t193 -79t204 65q47 38 83 38t62 -27q27 -27 26 -62
q0 -59 -102 -126q-102 -66 -291 -66q-188 0 -319 120t-131 392q1 272 119 411t320 139t318 -130q117 -131 122 -341q2 -61 -26 -91t-95 -29h-552z" />
    <glyph glyph-name="Ebreve" unicode="&#x114;" horiz-adv-x="1231" 
d="M643 1755q83 0 167 74q64 56 116 0q56 -63 -25 -134q-114 -105 -258 -105t-258 105q-81 71 -28 131t119 3q84 -74 167 -74zM411 1262v-428h481q63 0 90 -15q45 -26 45 -84t-36 -78t-99 -20h-481v-440h585q63 0 90 -15q46 -26 46 -84t-46 -84q-27 -14 -90 -14h-671
q-72 0 -104 32t-32 103v1188q0 71 32 103t104 32h671q63 0 99 -20q37 -20 37 -78t-46 -84q-27 -14 -90 -14h-585z" />
    <glyph glyph-name="ebreve" unicode="&#x115;" horiz-adv-x="1100" 
d="M555 1381q83 0 167 74q65 57 116 0q56 -63 -25 -134q-114 -104 -258 -104t-258 104q-81 71 -27 131q54 61 118 3q84 -74 167 -74zM786 604q-6 91 -30 146q-24 54 -78 90t-126 36t-126 -34q-101 -67 -107 -238h467zM319 459q-1 -135 69 -214t193 -79t204 65q47 38 83 38
t62 -27q27 -27 26 -62q0 -59 -102 -126q-102 -66 -291 -66q-188 0 -319 120t-131 392q1 272 119 411t320 139t318 -130q117 -131 122 -341q2 -61 -26 -91t-95 -29h-552z" />
    <glyph glyph-name="Edotaccent" unicode="&#x116;" horiz-adv-x="1231" 
d="M528 1729q0 47 34 81t82 34t82 -34t34 -81t-34 -81t-82 -35q-48 1 -82 35t-34 81zM411 1262v-428h481q63 0 90 -15q45 -26 45 -84t-36 -78t-99 -20h-481v-440h585q63 0 90 -15q46 -26 46 -84t-46 -84q-27 -14 -90 -14h-671q-72 0 -104 32t-32 103v1188q0 71 32 103
t104 32h671q63 0 99 -20q37 -20 37 -78t-46 -84q-27 -14 -90 -14h-585z" />
    <glyph glyph-name="edotaccent" unicode="&#x117;" horiz-adv-x="1100" 
d="M439 1355q1 48 35 82q34 33 81 33t81 -34t34 -81q0 -48 -34 -82t-81 -34t-81 34t-35 82zM786 604q-6 91 -30 146q-24 54 -78 90t-126 36t-126 -34q-101 -67 -107 -238h467zM319 459q-1 -135 69 -214t193 -79t204 65q47 38 83 38t62 -27q27 -27 26 -62q0 -59 -102 -126
q-102 -66 -291 -66q-188 0 -319 120t-131 392q1 272 119 411t320 139t318 -130q117 -131 122 -341q2 -61 -26 -91t-95 -29h-552z" />
    <glyph glyph-name="Eogonek" unicode="&#x118;" horiz-adv-x="1231" 
d="M1014 -110q26 0 49 -15q47 -31 44 -79q-1 -26 -32 -76l-95 -152q-28 -44 -45 -57q-24 -15 -49 -15t-49 15q-48 30 -45 78q1 27 32 76l96 153q28 44 48 58t46 14zM411 1262v-428h481q63 0 90 -15q45 -26 45 -84t-36 -78t-99 -20h-481v-440h585q63 0 90 -15q46 -26 46 -84
t-46 -84q-27 -14 -90 -14h-671q-72 0 -104 32t-32 103v1188q0 71 32 103t104 32h671q63 0 99 -20q37 -20 37 -78t-46 -84q-27 -14 -90 -14h-585z" />
    <glyph glyph-name="eogonek" unicode="&#x119;" horiz-adv-x="1100" 
d="M705 -110q26 0 50 -15q47 -31 44 -79q-1 -26 -32 -76l-95 -152q-28 -44 -48 -58t-46 -14t-50 15q-48 30 -45 78q1 27 33 76l95 153q29 44 49 58t45 14zM786 604q-6 91 -30 146q-24 54 -78 90t-126 36t-126 -34q-101 -67 -107 -238h467zM319 459q-1 -135 69 -214t193 -79
t204 65q47 38 83 38t62 -27q27 -27 26 -62q0 -59 -102 -126q-102 -66 -291 -66q-188 0 -319 120t-131 392q1 272 119 411t320 139t318 -130q117 -131 122 -341q2 -61 -26 -91t-95 -29h-552z" />
    <glyph glyph-name="Ecaron" unicode="&#x11a;" horiz-adv-x="1231" 
d="M643 1569q-42 0 -90 48l-171 171q-81 79 -21 140t141 -20l141 -142l141 142q80 80 141 20q61 -61 -21 -140l-171 -171q-48 -48 -90 -48zM411 1262v-428h481q63 0 90 -15q45 -26 45 -84t-36 -78t-99 -20h-481v-440h585q63 0 90 -15q46 -26 46 -84t-46 -84q-27 -14 -90 -14
h-671q-72 0 -104 32t-32 103v1188q0 71 32 103t104 32h671q63 0 99 -20q37 -20 37 -78t-46 -84q-27 -14 -90 -14h-585z" />
    <glyph glyph-name="ecaron" unicode="&#x11b;" horiz-adv-x="1100" 
d="M555 1195q-42 0 -90 48l-171 171q-80 80 -21 140q60 61 141 -20l141 -141l141 141q80 80 141 20q60 -60 -21 -140l-171 -171q-48 -48 -90 -48zM786 604q-6 91 -30 146q-24 54 -78 90t-126 36t-126 -34q-101 -67 -107 -238h467zM319 459q-1 -135 69 -214t193 -79t204 65
q47 38 83 38t62 -27q27 -27 26 -62q0 -59 -102 -126q-102 -66 -291 -66q-188 0 -319 120t-131 392q1 272 119 411t320 139t318 -130q117 -131 122 -341q2 -61 -26 -91t-95 -29h-552z" />
    <glyph glyph-name="Gcircumflex" unicode="&#x11c;" horiz-adv-x="1312" 
d="M662 1959q41 0 90 -49l170 -170q38 -38 44 -63q13 -43 -23 -79q-37 -35 -71 -25t-70 47l-140 141l-141 -141q-37 -36 -71 -46t-70 24q-36 36 -23 79q6 25 44 63l170 170q50 49 91 49zM359 728q1 -218 17 -308q16 -89 69 -145q85 -91 215 -91t219 88q49 50 66 116t17 186
h-185q-63 0 -90 15q-45 26 -45 84t36 78t99 20h262q72 0 104 -32t32 -103v-22q-1 -186 -29 -290t-110 -186q-150 -150 -376 -150t-375 148q-140 140 -145 374q-2 109 -2 219q0 314 34 414t113 179q148 148 375 148q243 0 375 -142q119 -128 119 -247q0 -49 -32 -79t-72 -30
t-68 22t-62 100q-34 80 -99 130t-177 50t-198 -91q-55 -61 -71 -149t-16 -306z" />
    <glyph glyph-name="gcircumflex" unicode="&#x11d;" horiz-adv-x="1125" 
d="M541 1585q41 0 90 -49l170 -170q38 -38 44 -62q13 -43 -23 -79q-37 -35 -71 -25t-70 46l-140 142l-141 -142q-36 -36 -70 -46t-71 25q-36 36 -22 79q6 25 44 62l170 170q49 49 90 49zM536 864q-150 0 -188 -141q-21 -73 -21 -156t7 -157t39 -117q62 -80 167 -80t158 70
t53 241q0 172 -36 240t-94 88q-35 12 -85 12zM959 903v-897q0 -193 -121 -315t-325 -122q-147 1 -249 57t-103 120q0 39 26 65q27 26 59 26q32 1 102 -45t159 -46q125 0 184 75t60 189v133q-98 -118 -262 -118q-163 0 -255 92q-70 71 -94 171t-22 251q0 151 24 251t102 181
q80 80 240 80q84 0 148 -26t120 -91q5 113 103 113q58 0 81 -38t23 -106z" />
    <glyph glyph-name="Gbreve" unicode="&#x11e;" horiz-adv-x="1312" 
d="M662 1755q83 0 166 74q65 57 116 0q57 -64 -24 -134q-114 -105 -258 -105t-259 105q-82 71 -28 130t120 4q84 -74 167 -74zM359 728q1 -218 17 -308q16 -89 69 -145q85 -91 215 -91t219 88q49 50 66 116t17 186h-185q-63 0 -90 15q-45 26 -45 84t36 78t99 20h262
q72 0 104 -32t32 -103v-22q-1 -186 -29 -290t-110 -186q-150 -150 -376 -150t-375 148q-140 140 -145 374q-2 109 -2 219q0 314 34 414t113 179q148 148 375 148q243 0 375 -142q119 -128 119 -247q0 -49 -32 -79t-72 -30t-68 22t-62 100q-34 80 -99 130t-177 50t-198 -91
q-55 -61 -71 -149t-16 -306z" />
    <glyph glyph-name="gbreve" unicode="&#x11f;" horiz-adv-x="1125" 
d="M541 1381q83 0 167 74q66 57 115 0q57 -64 -24 -134q-114 -104 -258 -104t-258 104q-81 71 -28 131q54 60 119 3q84 -74 167 -74zM536 864q-150 0 -188 -141q-21 -73 -21 -156t7 -157t39 -117q62 -80 167 -80t158 70t53 241q0 172 -36 240t-94 88q-35 12 -85 12zM959 903
v-897q0 -193 -121 -315t-325 -122q-147 1 -249 57t-103 120q0 39 26 65q27 26 59 26q32 1 102 -45t159 -46q125 0 184 75t60 189v133q-98 -118 -262 -118q-163 0 -255 92q-70 71 -94 171t-22 251q0 151 24 251t102 181q80 80 240 80q84 0 148 -26t120 -91q5 113 103 113
q58 0 81 -38t23 -106z" />
    <glyph glyph-name="Gdotaccent" unicode="&#x120;" horiz-adv-x="1312" 
d="M547 1729q0 47 34 81t82 34q47 0 81 -34t34 -81t-34 -81t-82 -35q-48 1 -81 35q-34 34 -34 81zM359 728q1 -218 17 -308q16 -89 69 -145q85 -91 215 -91t219 88q49 50 66 116t17 186h-185q-63 0 -90 15q-45 26 -45 84t36 78t99 20h262q72 0 104 -32t32 -103v-22
q-1 -186 -29 -290t-110 -186q-150 -150 -376 -150t-375 148q-140 140 -145 374q-2 109 -2 219q0 314 34 414t113 179q148 148 375 148q243 0 375 -142q119 -128 119 -247q0 -49 -32 -79t-72 -30t-68 22t-62 100q-34 80 -99 130t-177 50t-198 -91q-55 -61 -71 -149t-16 -306z
" />
    <glyph glyph-name="gdotaccent" unicode="&#x121;" horiz-adv-x="1125" 
d="M425 1355q0 48 34 82q33 33 81 33t82 -34t34 -81q0 -48 -34 -82t-81 -34t-82 34q-34 34 -34 82zM536 864q-150 0 -188 -141q-21 -73 -21 -156t7 -157t39 -117q62 -80 167 -80t158 70t53 241q0 172 -36 240t-94 88q-35 12 -85 12zM959 903v-897q0 -193 -121 -315
t-325 -122q-147 1 -249 57t-103 120q0 39 26 65q27 26 59 26q32 1 102 -45t159 -46q125 0 184 75t60 189v133q-98 -118 -262 -118q-163 0 -255 92q-70 71 -94 171t-22 251q0 151 24 251t102 181q80 80 240 80q84 0 148 -26t120 -91q5 113 103 113q58 0 81 -38t23 -106z" />
    <glyph glyph-name="Gcommaaccent" unicode="&#x122;" horiz-adv-x="1312" 
d="M676 -110q26 0 49 -15q47 -31 44 -79q-1 -26 -32 -76l-95 -152q-28 -44 -48 -58q-46 -32 -94 0t-45 79q1 26 31 76l96 153q28 44 48 58t46 14zM359 728q1 -218 17 -308q16 -89 69 -145q85 -91 215 -91t219 88q49 50 66 116t17 186h-185q-63 0 -90 15q-45 26 -45 84t36 78
t99 20h262q72 0 104 -32t32 -103v-22q-1 -186 -29 -290t-110 -186q-150 -150 -376 -150t-375 148q-140 140 -145 374q-2 109 -2 219q0 314 34 414t113 179q148 148 375 148q243 0 375 -142q119 -128 119 -247q0 -49 -32 -79t-72 -30t-68 22t-62 100q-34 80 -99 130t-177 50
t-198 -91q-55 -61 -71 -149t-16 -306z" />
    <glyph glyph-name="gcommaaccent" unicode="&#x123;" horiz-adv-x="1125" 
d="M749 1433l-96 -153q-28 -44 -48 -58q-46 -32 -94 0t-45 80q1 26 32 75l95 153q28 44 48 58q46 32 94 0t45 -80q0 -25 -31 -75zM536 864q-150 0 -188 -141q-21 -73 -21 -156t7 -157t39 -117q62 -80 167 -80t158 70t53 241q0 172 -36 240t-94 88q-35 12 -85 12zM959 903
v-897q0 -193 -121 -315t-325 -122q-147 1 -249 57t-103 120q0 39 26 65q27 26 59 26q32 1 102 -45t159 -46q125 0 184 75t60 189v133q-98 -118 -262 -118q-163 0 -255 92q-70 71 -94 171t-22 251q0 151 24 251t102 181q80 80 240 80q84 0 148 -26t120 -91q5 113 103 113
q58 0 81 -38t23 -106z" />
    <glyph glyph-name="Hcircumflex" unicode="&#x124;" horiz-adv-x="1413" 
d="M707 1959q41 0 90 -49l170 -170q38 -38 44 -63q13 -43 -23 -79q-37 -35 -71 -25t-70 47l-140 141l-141 -141q-36 -36 -70 -46t-71 24q-36 36 -23 79q6 25 44 63l170 170q50 49 91 49zM411 835h591v481q0 68 22 109t90 41q66 0 93 -50q17 -31 17 -100v-1174
q0 -68 -22 -109t-90 -41q-66 0 -93 50q-17 31 -17 100v496h-591v-496q-1 -68 -23 -109t-88 -41t-94 50q-17 31 -17 100v1174q1 68 23 109t88 41t94 -50q17 -31 17 -100v-481z" />
    <glyph glyph-name="hcircumflex" unicode="&#x125;" horiz-adv-x="1164" 
d="M271 1951q41 0 90 -49l170 -170q37 -38 47 -72t-25 -70q-37 -35 -71 -25t-70 47l-141 141l-140 -141q-37 -36 -71 -46t-70 24q-36 36 -23 79q6 25 44 63l170 170q49 49 90 49zM1009 134q0 -142 -105 -142q-64 0 -84 40t-20 102v499q0 117 -58 173t-152 56t-155 -57
q-60 -57 -60 -172v-499q0 -142 -105 -142q-64 0 -84 40t-20 102v1190q0 62 20 102t84 40t84 -40t21 -102v-390q105 117 269 117q164 -1 264 -99t101 -288v-530z" />
    <glyph glyph-name="Hbar" unicode="&#x126;" horiz-adv-x="1496" 
d="M452 835h591v209h-591v-209zM49 1133q0 88 120 88h61v95q0 68 22 109t90 41q66 0 93 -50q17 -31 17 -100v-95h591v95q1 68 23 109t88 41t94 -50q17 -31 17 -100v-95h61q58 0 81 -14q40 -25 40 -75q1 -50 -31 -68t-90 -20h-61v-902q-1 -68 -23 -109t-88 -41t-94 50
q-17 31 -17 100v496h-591v-496q0 -68 -22 -109t-90 -41q-66 0 -93 50q-17 31 -17 100v902h-61q-57 0 -80 14q-40 24 -40 75z" />
    <glyph glyph-name="hbar" unicode="&#x127;" horiz-adv-x="1165" 
d="M34 1234q0 80 109 80h24v10q1 62 21 102t83 40t83 -40t22 -102v-10h134q50 0 80 -16t30 -64t-30 -64t-80 -16h-134v-220q104 117 268 117q164 -1 264 -99t102 -288v-530q0 -142 -105 -142q-63 0 -83 40t-21 102v499q0 117 -58 173q-59 56 -153 56t-154 -57t-59 -172
l-1 -499q0 -142 -105 -142q-63 0 -83 40t-21 102v1020h-24q-109 0 -109 80z" />
    <glyph glyph-name="Itilde" unicode="&#x128;" horiz-adv-x="600" 
d="M170 1696q-44 0 -83 -31q-38 -31 -69 -31t-50 22t-19 58t47 76q77 63 160 63t158 -42t119 -42q45 0 83 31t69 31t49 -22t19 -58q0 -36 -47 -76q-77 -63 -171 -63q-44 0 -76 10q-33 10 -89 42t-100 32zM411 142q-1 -68 -23 -109t-88 -41t-94 50q-17 31 -17 100v1174
q1 68 23 109t88 41t94 -50q17 -31 17 -100v-1174z" />
    <glyph glyph-name="itilde" unicode="&#x129;" horiz-adv-x="540" 
d="M140 1329q-44 0 -84 -31q-74 -59 -119 -7q-17 21 -17 57t46 75q77 63 161 63t158 -41q74 -42 118 -42q45 0 83 31q74 60 120 7q18 -20 18 -56t-47 -76q-77 -63 -171 -64q-44 0 -76 10t-90 42q-56 32 -100 32zM375 134q0 -142 -105 -142q-64 0 -84 40t-20 102v770
q0 62 20 102t84 40q63 0 89 -49q15 -31 16 -93v-770z" />
    <glyph glyph-name="Imacron" unicode="&#x12a;" horiz-adv-x="600" 
d="M97 1640q-114 0 -114 84t114 84h409q115 0 115 -83t-115 -85h-409zM411 142q-1 -68 -23 -109t-88 -41t-94 50q-17 31 -17 100v1174q1 68 23 109t88 41t94 -50q17 -31 17 -100v-1174z" />
    <glyph glyph-name="imacron" unicode="&#x12b;" horiz-adv-x="540" 
d="M475 1435q114 0 114 -84t-114 -84h-408q-115 0 -115 83t115 85h408zM375 134q0 -142 -105 -142q-64 0 -84 40t-20 102v770q0 62 20 102t84 40q63 0 89 -49q15 -31 16 -93v-770z" />
    <glyph glyph-name="Ibreve" unicode="&#x12c;" horiz-adv-x="600" 
d="M301 1755q83 0 167 74q64 56 116 0q56 -63 -25 -134q-114 -105 -258 -105t-258 105q-81 71 -28 131t119 3q84 -74 167 -74zM411 142q-1 -68 -23 -109t-88 -41t-94 50q-17 31 -17 100v1174q1 68 23 109t88 41t94 -50q17 -31 17 -100v-1174z" />
    <glyph glyph-name="ibreve" unicode="&#x12d;" horiz-adv-x="540" 
d="M271 1381q83 0 167 74q66 58 116 0q56 -63 -25 -134q-114 -104 -258 -104t-258 104q-82 71 -27 131t118 3q84 -74 167 -74zM376 134q0 -142 -105 -142q-63 0 -83 40t-21 102v770q1 62 21 102t83 40t89 -49q15 -31 16 -93v-770z" />
    <glyph glyph-name="Iogonek" unicode="&#x12e;" horiz-adv-x="600" 
d="M294 -110q26 0 49 -15q47 -31 44 -79q-1 -26 -32 -76l-95 -152q-28 -44 -48 -58t-46 -14t-49 15q-48 30 -45 78q1 27 32 76l96 153q28 44 48 58t46 14zM411 142q-1 -68 -23 -109t-88 -41t-94 50q-17 31 -17 100v1174q1 68 23 109t88 41t94 -50q17 -31 17 -100v-1174z" />
    <glyph glyph-name="iogonek" unicode="&#x12f;" horiz-adv-x="540" 
d="M258 -110q26 0 50 -15q47 -31 44 -79q-1 -26 -31 -76l-96 -152q-28 -44 -48 -58t-46 -14t-49 15q-48 30 -45 78q1 27 33 76l95 153q29 44 49 58q18 14 44 14zM144 1377q0 52 37 89t89 37t89 -37t37 -89t-37 -89t-89 -37t-89 37t-37 89zM375 134q0 -142 -105 -142
q-64 0 -84 40t-20 102v770q0 62 20 102t84 40q63 0 89 -49q15 -31 16 -93v-770z" />
    <glyph glyph-name="Idotaccent" unicode="&#x130;" horiz-adv-x="600" 
d="M186 1729q0 47 34 81t82 34t82 -34t34 -81t-34 -81t-82 -35q-48 1 -82 35t-34 81zM411 142q-1 -68 -23 -109t-88 -41t-94 50q-17 31 -17 100v1174q1 68 23 109t88 41t94 -50q17 -31 17 -100v-1174z" />
    <glyph glyph-name="dotlessi" unicode="&#x131;" horiz-adv-x="540" 
d="M375 134q0 -142 -105 -142q-64 0 -84 40t-20 102v770q0 62 20 102t84 40q63 0 89 -49q15 -31 16 -93v-770z" />
    <glyph glyph-name="IJ" unicode="&#x132;" horiz-adv-x="1637" 
d="M1358 1466q113 0 110 -150v-855q0 -146 -66 -256q-130 -217 -434 -217q-150 0 -266 83q-52 39 -52 86t28 75t64 27q36 1 96 -37t145 -38q126 0 195 76t69 219v837q1 68 23 109t88 41zM411 142q-1 -68 -23 -109t-88 -41t-94 50q-17 31 -17 100v1174q1 68 23 109t88 41
t94 -50q17 -31 17 -100v-1174z" />
    <glyph glyph-name="ij" unicode="&#x133;" horiz-adv-x="1081" 
d="M613 -424q-130 0 -130 89q0 51 42 74q23 12 76 14q106 3 106 120v1031q1 62 21 102t83 40t89 -49q15 -31 15 -93v-1040q0 -170 -122 -247q-65 -41 -159 -41h-21zM685 1377q0 52 37 89t89 37t89 -37t37 -89t-37 -89t-89 -37t-89 37t-37 89zM144 1377q0 52 37 89t89 37
t89 -37t37 -89t-37 -89t-89 -37t-89 37t-37 89zM375 134q0 -142 -105 -142q-64 0 -84 40t-20 102v770q0 62 20 102t84 40q63 0 89 -49q15 -31 16 -93v-770z" />
    <glyph glyph-name="Jcircumflex" unicode="&#x134;" horiz-adv-x="1036" 
d="M759 1959q41 0 90 -49l170 -170q38 -38 44 -63q13 -43 -23 -79q-36 -35 -70 -25t-71 47l-140 141l-141 -141q-36 -36 -70 -46t-71 24q-36 36 -22 79q6 25 44 63l170 170q49 49 90 49zM760 1466q113 0 109 -150v-855q0 -146 -66 -256q-131 -217 -435 -217q-150 0 -265 83
q-52 37 -52 85q1 48 29 76t64 27q36 1 95 -37q60 -38 145 -38q126 0 195 76t69 219v837q0 68 22 109q24 41 90 41z" />
    <glyph glyph-name="jcircumflex" unicode="&#x135;" horiz-adv-x="540" 
d="M271 1585q41 0 90 -49l170 -170q37 -38 47 -72t-25 -69q-37 -35 -71 -25t-70 46l-141 142l-140 -142q-37 -36 -71 -46t-70 25q-36 36 -23 79q6 25 44 62l170 170q49 49 90 49zM72 -424q-130 0 -130 89q0 51 42 74q23 12 75 14q106 3 106 120v1031q1 62 21 102t83 40
t89 -49q15 -31 16 -93v-1040q0 -169 -123 -247q-65 -41 -159 -41h-20z" />
    <glyph glyph-name="Kcommaaccent" unicode="&#x136;" horiz-adv-x="1325" 
d="M714 -110q26 0 49 -15q47 -31 44 -79q-1 -26 -32 -76l-95 -152q-28 -44 -48 -58q-46 -32 -94 0t-45 79q1 26 31 76l96 153q28 44 48 58t46 14zM411 142q-1 -68 -23 -109t-88 -41t-94 50q-17 31 -17 100v1174q1 68 23 109t88 41t94 -50q17 -31 17 -100v-586l552 670
q29 36 51 51t55 15t69 -30t34 -64q0 -34 -10 -53t-39 -53l-310 -375l399 -702q34 -59 35 -91q2 -58 -54 -91q-25 -15 -61 -15t-59 22t-49 68l-365 642l-248 -299v-283z" />
    <glyph glyph-name="kcommaaccent" unicode="&#x137;" horiz-adv-x="1064" 
d="M577 -110q26 0 50 -15q47 -31 44 -79q-1 -26 -32 -76l-95 -152q-28 -44 -48 -58q-45 -32 -94 0t-46 79q1 26 32 76l95 153q28 44 48 58t46 14zM375 134q0 -142 -105 -142q-64 0 -84 40t-20 102v1190q0 62 20 102t84 40t84 -40t21 -102v-765l375 427q88 100 162 34
q30 -27 30 -66t-48 -94l-214 -244l277 -438q36 -58 36 -98q-1 -40 -39 -64t-69 -24t-52 18t-48 61l-251 401l-159 -184v-154z" />
    <glyph glyph-name="kgreenlandic" unicode="&#x138;" horiz-adv-x="1065" 
d="M375 134q0 -142 -105 -142q-64 0 -84 40t-20 102v770q0 62 20 102t84 40q63 0 89 -49q15 -31 16 -93v-345l375 427q88 100 162 34q30 -27 30 -66t-48 -94l-214 -244l278 -438q36 -58 36 -98t-38 -64t-70 -24q-31 0 -52 18t-48 61l-251 398l-160 -184v-151z" />
    <glyph glyph-name="Lacute" unicode="&#x139;" horiz-adv-x="1172" 
d="M326 1577q-26 0 -51 15q-47 31 -44 79q1 26 32 76l95 153q28 44 48 58t46 14t50 -15q47 -31 44 -79q-1 -26 -32 -76l-95 -152q-28 -44 -48 -58q-19 -14 -45 -15zM325 0q-72 0 -104 32t-32 103v1181q1 68 23 109t88 41t94 -50q17 -31 17 -100v-1119h575q63 0 90 -15
q45 -26 45 -84t-36 -78t-99 -20h-661z" />
    <glyph glyph-name="lacute" unicode="&#x13a;" horiz-adv-x="627" 
d="M282 1569q-26 0 -50 15q-47 31 -44 79q1 26 32 76l95 152q28 45 48 59t46 14t50 -15q47 -31 44 -79q-1 -26 -32 -76l-95 -153q-28 -44 -48 -58t-46 -14zM593 89q0 -89 -130 -89h-21q-94 0 -159 41q-122 77 -122 247v1038q1 62 21 102t83 40t83 -40t22 -102v-1029
q0 -117 105 -120q53 -2 76 -14q42 -23 42 -74z" />
    <glyph glyph-name="Lcommaaccent" unicode="&#x13b;" horiz-adv-x="1172" 
d="M640 -110q26 0 49 -15q47 -31 44 -79q-1 -26 -32 -76l-95 -152q-28 -44 -48 -58q-46 -32 -94 0t-45 79q1 26 32 76l95 153q28 44 48 58t46 14zM325 0q-72 0 -104 32t-32 103v1181q1 68 23 109t88 41t94 -50q17 -31 17 -100v-1119h575q63 0 90 -15q45 -26 45 -84t-36 -78
t-99 -20h-661z" />
    <glyph glyph-name="lcommaaccent" unicode="&#x13c;" horiz-adv-x="627" 
d="M372 -110q26 0 50 -15q47 -31 44 -79q-1 -26 -32 -76l-95 -152q-28 -44 -48 -58q-46 -32 -94 0t-45 79q1 26 31 76l96 153q28 44 48 58q19 14 45 14zM593 89q0 -89 -130 -89h-21q-94 0 -159 41q-122 77 -122 247v1038q1 62 21 102t83 40t83 -40t22 -102v-1029
q0 -117 105 -120q53 -2 76 -14q42 -23 42 -74z" />
    <glyph glyph-name="Lcaron" unicode="&#x13d;" horiz-adv-x="1172" 
d="M724 1151q-32 0 -58 17q-26 18 -32 46q-8 28 11 89l55 165q18 53 40 74t54 21q32 1 58 -17t33 -46t-12 -89l-55 -166q-17 -53 -39 -73q-23 -20 -55 -21zM325 0q-72 0 -104 32t-32 103v1181q1 68 23 109t88 41t94 -50q17 -31 17 -100v-1119h575q63 0 90 -15q45 -26 45 -84
t-36 -78t-99 -20h-661z" />
    <glyph glyph-name="lcaron" unicode="&#x13e;" horiz-adv-x="627" 
d="M582 1151q-32 0 -58 17q-26 18 -33 46t12 89l55 165q17 53 39 74q23 21 55 21q32 1 58 -17t33 -46t-12 -89l-55 -166q-18 -53 -40 -73t-54 -21zM593 89q0 -89 -130 -89h-21q-94 0 -159 41q-122 77 -122 247v1038q1 62 21 102t83 40t83 -40t22 -102v-1029q0 -117 105 -120
q53 -2 76 -14q42 -23 42 -74z" />
    <glyph glyph-name="Ldot" unicode="&#x13f;" horiz-adv-x="1175" 
d="M325 0q-72 0 -104 32t-32 103v1181q1 68 23 109t88 41t94 -50q17 -31 17 -100v-1119h575q63 0 90 -15q45 -26 45 -84t-36 -78t-99 -20h-661zM782 729q0 47 34 81t82 34t82 -34t34 -81t-34 -81t-82 -34t-82 34t-34 81z" />
    <glyph glyph-name="ldot" unicode="&#x140;" horiz-adv-x="797" 
d="M548 560q0 48 34 82t82 34t81 -34q34 -34 34 -82t-34 -82t-81 -34t-82 34q-34 34 -34 82zM593 89q0 -89 -130 -89h-21q-94 0 -159 41q-122 77 -122 247v1038q1 62 21 102t83 40t83 -40t22 -102v-1029q0 -117 105 -120q53 -2 76 -14q42 -23 42 -74z" />
    <glyph glyph-name="Lslash" unicode="&#x141;" horiz-adv-x="1213" 
d="M366 0q-72 0 -104 32t-32 103v423l-23 -11q-47 -24 -77 -24q-30 -1 -55 25q-26 26 -26 62t19 56t60 40l102 51v559q0 68 22 109t90 41q66 0 93 -50q17 -31 17 -100v-449l180 91q46 24 76 24t56 -26t26 -61q0 -36 -19 -56t-60 -39l-259 -130v-473h575q63 0 90 -15
q45 -26 45 -84t-36 -78t-99 -20h-661z" />
    <glyph glyph-name="lslash" unicode="&#x142;" horiz-adv-x="689" 
d="M638 89q0 -89 -130 -89h-21q-94 0 -159 41q-124 78 -122 247v376l-20 -10q-43 -22 -67 -21q-45 0 -68 45q-9 18 -9 41t14 41t59 40l91 45v479q0 62 20 102t84 40t84 -40t21 -102v-375l68 35q43 22 78 22t58 -47t-6 -79q-14 -18 -58 -41l-140 -71v-471q0 -117 105 -120
q53 -2 76 -14q42 -23 42 -74z" />
    <glyph glyph-name="Nacute" unicode="&#x143;" horiz-adv-x="1477" 
d="M756 1577q-26 0 -49 15q-47 31 -44 79q1 26 31 76l96 153q28 44 48 58t46 14t49 -15q47 -31 44 -79q-1 -26 -32 -76l-95 -152q-28 -44 -48 -58t-46 -15zM1178 1466q113 0 110 -150v-1184q0 -74 -34 -107t-76 -33q-44 0 -72 22t-63 75l-632 935v-882q-1 -68 -23 -109
t-88 -41t-94 50q-17 31 -17 100v1183q-1 75 33 109t78 32q44 0 71 -22q28 -22 63 -75l633 -935v882q0 66 16 100q28 50 95 50z" />
    <glyph glyph-name="nacute" unicode="&#x144;" horiz-adv-x="1163" 
d="M798 1433l-96 -153q-28 -44 -48 -58q-46 -32 -94 0t-45 80q1 26 32 75l95 153q28 44 48 58q46 32 94 0t45 -80q0 -25 -31 -75zM1008 134q0 -142 -105 -142q-63 0 -83 40t-21 102v499q0 117 -58 173q-57 56 -151 56t-154 -58t-61 -171v-499q0 -142 -105 -142q-64 0 -84 40
t-20 102v769q0 69 23 106t81 38q97 0 104 -110q108 114 270 114t262 -98t102 -289v-530z" />
    <glyph glyph-name="Ncommaaccent" unicode="&#x145;" horiz-adv-x="1477" 
d="M754 -110q26 0 49 -15q47 -31 44 -79q-1 -26 -32 -76l-95 -152q-28 -44 -48 -58q-46 -32 -94 0t-46 68t32 87l95 153q29 44 49 58t46 14zM1178 1466q113 0 110 -150v-1184q0 -74 -34 -107t-76 -33q-44 0 -72 22t-63 75l-632 935v-882q-1 -68 -23 -109t-88 -41t-94 50
q-17 31 -17 100v1183q-1 75 33 109t78 32q44 0 71 -22q28 -22 63 -75l633 -935v882q0 66 16 100q28 50 95 50z" />
    <glyph glyph-name="ncommaaccent" unicode="&#x146;" horiz-adv-x="1163" 
d="M602 -110q26 0 50 -15q47 -31 44 -79q0 -26 -31 -76l-96 -152q-28 -44 -48 -58q-46 -32 -94 0t-45 79q1 26 32 76l95 153q28 44 48 58q19 14 45 14zM1008 134q0 -142 -105 -142q-63 0 -83 40t-21 102v499q0 117 -58 173q-57 56 -151 56t-154 -58t-61 -171v-499
q0 -142 -105 -142q-64 0 -84 40t-20 102v769q0 69 23 106t81 38q97 0 104 -110q108 114 270 114t262 -98t102 -289v-530z" />
    <glyph glyph-name="Ncaron" unicode="&#x147;" horiz-adv-x="1477" 
d="M738 1569q-42 0 -90 48l-171 171q-81 79 -21 140q61 62 141 -20l141 -142l142 142q80 80 140 20q61 -61 -21 -140l-171 -171q-48 -48 -90 -48zM1178 1466q113 0 110 -150v-1184q0 -74 -34 -107t-76 -33q-44 0 -72 22t-63 75l-632 935v-882q-1 -68 -23 -109t-88 -41
t-94 50q-17 31 -17 100v1183q-1 75 33 109t78 32q44 0 71 -22q28 -22 63 -75l633 -935v882q0 66 16 100q28 50 95 50z" />
    <glyph glyph-name="ncaron" unicode="&#x148;" horiz-adv-x="1163" 
d="M590 1195q-42 0 -90 48l-171 171q-80 80 -21 140q60 61 141 -20l141 -141l141 141q81 81 141 20q59 -60 -21 -140l-171 -171q-48 -48 -90 -48zM1008 134q0 -142 -105 -142q-63 0 -83 40t-21 102v499q0 117 -58 173q-57 56 -151 56t-154 -58t-61 -171v-499
q0 -142 -105 -142q-64 0 -84 40t-20 102v769q0 69 23 106t81 38q97 0 104 -110q108 114 270 114t262 -98t102 -289v-530z" />
    <glyph glyph-name="napostrophe" unicode="&#x149;" horiz-adv-x="1565" 
d="M407 1297l-73 -216q-20 -62 -44 -85q-24 -22 -61 -22t-69 21q-61 40 -25 152l73 216q20 62 44 85q24 22 61 22q36 0 69 -21t39 -56t-14 -96zM1046 1051q162 0 264 -98q100 -98 100 -289v-530q0 -62 -20 -102t-84 -40t-84 40t-21 102v499q0 117 -58 173q-57 56 -151 56
t-154 -58t-61 -171v-499q-1 -62 -21 -102t-83 -40t-83 40t-22 102v769q0 69 24 106t81 38q98 0 103 -110q108 114 270 114z" />
    <glyph glyph-name="Eng" unicode="&#x14a;" horiz-adv-x="1477" 
d="M986 -424q-130 0 -130 89q0 51 42 74q23 12 76 14q105 3 105 120v168l-668 981v-880q-1 -68 -23 -109t-88 -41t-94 50q-17 31 -17 100v1184q1 73 33 107q32 33 76 33t73 -22q28 -22 64 -75l632 -933v880q0 66 16 100q28 50 95 50t94 -50q16 -29 16 -100v-1452
q0 -170 -122 -247q-65 -41 -159 -41h-21z" />
    <glyph glyph-name="eng" unicode="&#x14b;" horiz-adv-x="1163" 
d="M644 1051q162 0 263 -98t101 -289v-800q0 -169 -123 -247q-65 -41 -159 -41h-20q-131 0 -131 89q0 51 42 74q23 12 76 14q105 3 106 120v760q0 117 -58 173q-57 56 -151 56t-154 -58t-61 -171v-499q0 -142 -105 -142q-64 0 -84 40t-20 102v769q0 69 23 106t81 38
q97 0 104 -110q108 114 270 114z" />
    <glyph glyph-name="Omacron" unicode="&#x14c;" horiz-adv-x="1325" 
d="M458 1640q-115 0 -115 84t115 84h408q115 0 115 -83t-115 -85h-408zM662 184q131 0 218 92q53 58 69 146t17 307q0 219 -17 308q-16 89 -69 146q-86 91 -218 91t-217 -91q-53 -56 -69 -145t-16 -309q0 -221 16 -309t69 -144q86 -92 217 -92zM138 729q0 314 34 414
t113 179q148 148 377 148t377 -148q119 -119 137 -295q11 -98 11 -252q0 -359 -35 -460t-113 -179q-148 -148 -377 -148t-377 148q-140 140 -145 374q-2 109 -2 219z" />
    <glyph glyph-name="omacron" unicode="&#x14d;" horiz-adv-x="1099" 
d="M755 1435q113 0 113 -84t-113 -84h-409q-115 0 -115 83t115 85h409zM118 519q0 143 25 239t97 170q119 123 310 123t310 -123q70 -74 96 -170t26 -239t-26 -239t-96 -169q-119 -123 -310 -123t-310 123q-72 74 -97 169t-25 239zM550 862q-93 0 -144 -51t-65 -121
t-14 -172q0 -100 14 -170t57 -112q58 -60 152 -60t144 52t64 120q14 70 15 170q0 100 -14 172q-14 70 -65 121t-144 51z" />
    <glyph glyph-name="Obreve" unicode="&#x14e;" horiz-adv-x="1325" 
d="M662 1755q83 0 166 74q65 57 116 0q57 -64 -24 -134q-114 -105 -258 -105t-259 105q-82 71 -28 130t120 4q84 -74 167 -74zM662 184q131 0 218 92q53 58 69 146t17 307q0 219 -17 308q-16 89 -69 146q-86 91 -218 91t-217 -91q-53 -56 -69 -145t-16 -309q0 -221 16 -309
t69 -144q86 -92 217 -92zM138 729q0 314 34 414t113 179q148 148 377 148t377 -148q119 -119 137 -295q11 -98 11 -252q0 -359 -35 -460t-113 -179q-148 -148 -377 -148t-377 148q-140 140 -145 374q-2 109 -2 219z" />
    <glyph glyph-name="obreve" unicode="&#x14f;" horiz-adv-x="1099" 
d="M551 1381q83 0 167 74q65 57 116 0q56 -63 -25 -134q-114 -104 -258 -104t-258 104q-81 71 -27 131q54 61 118 3q84 -74 167 -74zM118 519q0 143 25 239t97 170q119 123 310 123t310 -123q70 -74 96 -170t26 -239t-26 -239t-96 -169q-119 -123 -310 -123t-310 123
q-72 74 -97 169t-25 239zM550 862q-93 0 -144 -51t-65 -121t-14 -172q0 -100 14 -170t57 -112q58 -60 152 -60t144 52t64 120q14 70 15 170q0 100 -14 172q-14 70 -65 121t-144 51z" />
    <glyph glyph-name="Ohungarumlaut" unicode="&#x150;" horiz-adv-x="1325" 
d="M870 1577q-26 0 -50 15q-47 31 -44 79q1 26 32 76l95 153q28 44 48 58q19 14 45 14t51 -15q47 -31 44 -79q-1 -26 -32 -76l-95 -152q-28 -44 -48 -58t-46 -15zM492 1577q-26 0 -50 15q-47 31 -44 79q1 26 32 76l95 153q28 44 48 58q19 14 45 14t51 -15q47 -31 44 -79
q-1 -26 -32 -76l-95 -152q-28 -44 -48 -58t-46 -15zM662 184q131 0 218 92q53 58 69 146t17 307q0 219 -17 308q-16 89 -69 146q-86 91 -218 91t-217 -91q-53 -56 -69 -145t-16 -309q0 -221 16 -309t69 -144q86 -92 217 -92zM138 729q0 314 34 414t113 179q148 148 377 148
t377 -148q119 -119 137 -295q11 -98 11 -252q0 -359 -35 -460t-113 -179q-148 -148 -377 -148t-377 148q-140 140 -145 374q-2 109 -2 219z" />
    <glyph glyph-name="ohungarumlaut" unicode="&#x151;" horiz-adv-x="1099" 
d="M949 1433l-95 -153q-28 -44 -48 -58q-46 -32 -94 0t-45 80q1 26 31 75l96 153q28 44 48 58q46 32 94 0t45 -80q-1 -25 -32 -75zM569 1433l-95 -153q-28 -44 -48 -58q-46 -32 -94 0t-45 80q1 26 31 75l96 153q28 44 48 58q46 32 94 0t45 -80q-1 -25 -32 -75zM118 519
q0 143 25 239t97 170q119 123 310 123t310 -123q70 -74 96 -170t26 -239t-26 -239t-96 -169q-119 -123 -310 -123t-310 123q-72 74 -97 169t-25 239zM550 862q-93 0 -144 -51t-65 -121t-14 -172q0 -100 14 -170t57 -112q58 -60 152 -60t144 52t64 120q14 70 15 170
q0 100 -14 172q-14 70 -65 121t-144 51z" />
    <glyph glyph-name="OE" unicode="&#x152;" horiz-adv-x="2007" 
d="M1772 0h-678q-70 0 -100 30t-35 59q-123 -101 -296 -101q-229 0 -378 148q-140 140 -145 374q-2 109 -2 219q0 314 34 414t113 179q148 148 378 148q174 0 296 -101q5 31 35 60t100 29h678q63 0 99 -20t36 -78t-36 -78t-99 -20h-586v-428h481q63 0 90 -15q45 -26 45 -84
t-36 -78t-99 -20h-481v-440h586q63 0 90 -15q45 -26 45 -84t-36 -78t-99 -20zM662 184q131 0 218 92q53 58 69 146t17 307q0 219 -17 308q-16 89 -69 146q-86 91 -218 91t-217 -91q-53 -56 -69 -145t-16 -309q0 -221 16 -309t69 -144q86 -92 217 -92z" />
    <glyph glyph-name="oe" unicode="&#x153;" horiz-adv-x="1762" 
d="M551 1052q225 0 335 -167q111 167 320 167t326 -132q117 -131 123 -341v-9q0 -113 -121 -111h-552q0 -135 69 -214t192 -79t205 65q47 38 82 38t62 -27t27 -62q0 -59 -103 -126t-274 -66q-244 0 -359 164q-51 -77 -137 -121t-195 -43q-191 0 -310 123q-72 73 -98 169
t-25 239q0 143 25 239q26 96 98 170q120 124 310 124zM1214 876q-147 0 -205 -131q-24 -52 -27 -141h467q-6 91 -31 146q-25 54 -78 90t-126 36zM551 862q-93 0 -144 -51t-65 -121t-14 -172q0 -100 14 -170t57 -112q57 -60 151 -60t144 52t66 120q14 70 14 170t-14 172
q-14 70 -65 121t-144 51z" />
    <glyph glyph-name="Racute" unicode="&#x154;" horiz-adv-x="1344" 
d="M688 1577q-26 0 -50 15q-47 31 -44 79q1 26 32 76l95 153q28 44 48 58q19 14 45 14t50 -15q47 -31 44 -79q0 -26 -31 -76l-96 -152q-28 -44 -48 -58q-19 -14 -45 -15zM738 1262h-327v-459h327q113 0 181 60q67 59 67 167t-68 170t-180 62zM189 142v1181q0 71 32 103
t104 32h430q205 0 329 -119t123 -307q0 -150 -80 -250t-208 -137l261 -456q34 -59 34 -91q2 -58 -54 -91q-26 -15 -62 -15t-58 22q-23 22 -49 68l-304 532h-276v-472q-1 -68 -23 -109t-88 -41t-94 50q-17 31 -17 100z" />
    <glyph glyph-name="racute" unicode="&#x155;" horiz-adv-x="901" 
d="M655 1433l-95 -153q-28 -44 -48 -58q-46 -32 -94 0t-45 80q1 26 31 75l96 153q28 44 48 58q46 32 94 0t45 -80q-1 -25 -32 -75zM374 930q100 121 280 121q96 0 162 -45t66 -94q0 -48 -29 -78q-30 -30 -68 -30q-37 0 -89 29t-109 29q-91 0 -151 -63t-61 -169v-496
q0 -142 -105 -142q-64 0 -84 40t-20 102v769q0 69 23 106t81 38q100 0 104 -117z" />
    <glyph glyph-name="Rcommaaccent" unicode="&#x156;" horiz-adv-x="1344" 
d="M696 -110q26 0 50 -15q47 -31 45 -79q-1 -26 -32 -76l-95 -152q-28 -44 -48 -58q-46 -32 -95 0q-48 32 -45 79q1 26 32 76l95 153q28 44 48 58q19 14 45 14zM738 1262h-327v-459h327q113 0 181 60q67 59 67 167t-68 170t-180 62zM189 142v1181q0 71 32 103t104 32h430
q205 0 329 -119t123 -307q0 -150 -80 -250t-208 -137l261 -456q34 -59 34 -91q2 -58 -54 -91q-26 -15 -62 -15t-58 22q-23 22 -49 68l-304 532h-276v-472q-1 -68 -23 -109t-88 -41t-94 50q-17 31 -17 100z" />
    <glyph glyph-name="rcommaaccent" unicode="&#x157;" horiz-adv-x="901" 
d="M258 -110q26 0 49 -15q47 -31 44 -79q-1 -26 -32 -76l-95 -152q-28 -44 -48 -58q-46 -32 -94 0t-45 79q1 26 32 76l95 153q28 44 48 58t46 14zM374 930q100 121 280 121q96 0 162 -45t66 -94q0 -48 -29 -78q-30 -30 -68 -30q-37 0 -89 29t-109 29q-91 0 -151 -63
t-61 -169v-496q0 -142 -105 -142q-64 0 -84 40t-20 102v769q0 69 23 106t81 38q100 0 104 -117z" />
    <glyph glyph-name="Rcaron" unicode="&#x158;" horiz-adv-x="1344" 
d="M670 1569q-42 0 -90 48l-171 171q-81 78 -21 140t140 -20l142 -142l141 142q80 80 140 20q61 -61 -20 -140l-171 -171q-48 -48 -90 -48zM738 1262h-327v-459h327q113 0 181 60q67 59 67 167t-68 170t-180 62zM189 142v1181q0 71 32 103t104 32h430q205 0 329 -119
t123 -307q0 -150 -80 -250t-208 -137l261 -456q34 -59 34 -91q2 -58 -54 -91q-26 -15 -62 -15t-58 22q-23 22 -49 68l-304 532h-276v-472q-1 -68 -23 -109t-88 -41t-94 50q-17 31 -17 100z" />
    <glyph glyph-name="rcaron" unicode="&#x159;" horiz-adv-x="901" 
d="M448 1195q-42 0 -91 48l-171 171q-80 80 -20 140q61 61 140 -20l141 -141l142 141q80 80 140 20t-20 -140l-171 -171q-48 -48 -90 -48zM374 930q100 121 280 121q96 0 162 -45t66 -94q0 -48 -29 -78q-30 -30 -68 -30q-37 0 -89 29t-109 29q-91 0 -151 -63t-61 -169v-496
q0 -142 -105 -142q-64 0 -84 40t-20 102v769q0 69 23 106t81 38q100 0 104 -117z" />
    <glyph glyph-name="Sacute" unicode="&#x15a;" horiz-adv-x="1210" 
d="M622 1577q-26 0 -50 15q-47 31 -44 79q1 26 32 76l95 153q28 44 48 58t46 14t50 -15q47 -31 44 -79q-1 -26 -32 -76l-95 -152q-28 -44 -48 -58t-46 -15zM610 184q119 0 197 59q79 59 79 164t-55 153t-161 63l-173 24q-176 26 -280 121q-103 95 -103 282t131 304t356 116
q103 0 177 -18t164 -66t91 -113q0 -38 -26 -69q-52 -62 -163 5q-110 68 -244 68t-202 -62q-69 -62 -69 -158q0 -95 54 -143t159 -64l174 -27q180 -27 270 -108q119 -109 119 -303t-145 -309t-376 -115t-396 98q-58 34 -80 62t-23 68q0 40 31 72q58 58 168 -17
q64 -43 136 -65t190 -22z" />
    <glyph glyph-name="sacute" unicode="&#x15b;" horiz-adv-x="1022" 
d="M731 1433l-95 -153q-28 -44 -48 -58q-46 -32 -94 0t-45 80q1 26 31 75l95 153q29 44 49 58q46 32 94 0t45 -80q-1 -25 -32 -75zM933 316q1 -158 -119 -243t-328 -85t-347 94q-57 39 -57 85t30 71q57 48 152 -14q94 -62 218 -62q248 1 248 147q0 110 -140 123l-167 15
q-307 28 -307 285q0 148 111 234q112 85 275 85t285 -58q47 -23 68 -44q19 -23 19 -57t-25 -62q-27 -26 -56 -26t-73 21q-112 55 -209 55t-145 -38t-48 -96q0 -59 34 -87q36 -28 109 -34l164 -16q308 -30 308 -293z" />
    <glyph glyph-name="Scircumflex" unicode="&#x15c;" horiz-adv-x="1210" 
d="M604 1959q41 0 90 -49l170 -170q38 -38 48 -72t-26 -70q-37 -35 -71 -25t-71 47l-140 141l-140 -141q-37 -36 -71 -46t-70 25t-23 78q6 25 44 63l170 170q49 49 90 49zM610 184q119 0 197 59q79 59 79 164t-55 153t-161 63l-173 24q-176 26 -280 121q-103 95 -103 282
t131 304t356 116q103 0 177 -18t164 -66t91 -113q0 -38 -26 -69q-52 -62 -163 5q-110 68 -244 68t-202 -62q-69 -62 -69 -158q0 -95 54 -143t159 -64l174 -27q180 -27 270 -108q119 -109 119 -303t-145 -309t-376 -115t-396 98q-58 34 -80 62t-23 68q0 40 31 72
q58 58 168 -17q64 -43 136 -65t190 -22z" />
    <glyph glyph-name="scircumflex" unicode="&#x15d;" horiz-adv-x="1022" 
d="M523 1585q41 0 90 -49l170 -170q37 -38 47 -72t-25 -69q-37 -35 -71 -25t-70 46l-141 142l-140 -142q-37 -36 -71 -46t-70 26t-23 78q6 25 44 62l170 170q49 49 90 49zM933 316q1 -158 -119 -243t-328 -85t-347 94q-57 39 -57 85t30 71q57 48 152 -14q94 -62 218 -62
q248 1 248 147q0 110 -140 123l-167 15q-307 28 -307 285q0 148 111 234q112 85 275 85t285 -58q47 -23 68 -44q19 -23 19 -57t-25 -62q-27 -26 -56 -26t-73 21q-112 55 -209 55t-145 -38t-48 -96q0 -59 34 -87q36 -28 109 -34l164 -16q308 -30 308 -293z" />
    <glyph glyph-name="Scedilla" unicode="&#x15e;" horiz-adv-x="1210" 
d="M570 -110q26 0 51 -15q47 -31 44 -79q-1 -26 -32 -76l-95 -152q-28 -44 -45 -57q-24 -15 -50 -15t-49 15q-48 30 -45 78q1 27 33 76l95 153q29 44 49 58q18 14 44 14zM610 184q119 0 197 59q79 59 79 164t-55 153t-161 63l-173 24q-176 26 -280 121q-103 95 -103 282
t131 304t356 116q103 0 177 -18t164 -66t91 -113q0 -38 -26 -69q-52 -62 -163 5q-110 68 -244 68t-202 -62q-69 -62 -69 -158q0 -95 54 -143t159 -64l174 -27q180 -27 270 -108q119 -109 119 -303t-145 -309t-376 -115t-396 98q-58 34 -80 62t-23 68q0 40 31 72
q58 58 168 -17q64 -43 136 -65t190 -22z" />
    <glyph glyph-name="scedilla" unicode="&#x15f;" horiz-adv-x="1022" 
d="M510 -110q26 0 49 -15q47 -31 44 -79q-1 -26 -32 -76l-95 -152q-28 -44 -45 -57q-24 -15 -49 -15t-49 15q-48 30 -45 78q1 27 33 76l95 153q28 44 48 58t46 14zM933 316q1 -158 -119 -243t-328 -85t-347 94q-57 39 -57 85t30 71q57 48 152 -14q94 -62 218 -62
q248 1 248 147q0 110 -140 123l-167 15q-307 28 -307 285q0 148 111 234q112 85 275 85t285 -58q47 -23 68 -44q19 -23 19 -57t-25 -62q-27 -26 -56 -26t-73 21q-112 55 -209 55t-145 -38t-48 -96q0 -59 34 -87q36 -28 109 -34l164 -16q308 -30 308 -293z" />
    <glyph glyph-name="Scaron" unicode="&#x160;" horiz-adv-x="1210" 
d="M604 1569q-42 0 -90 48l-171 171q-81 79 -21 140t141 -20l141 -142l141 142q80 80 141 20q61 -61 -21 -140l-171 -171q-48 -48 -90 -48zM610 184q119 0 197 59q79 59 79 164t-55 153t-161 63l-173 24q-176 26 -280 121q-103 95 -103 282t131 304t356 116q103 0 177 -18
t164 -66t91 -113q0 -38 -26 -69q-52 -62 -163 5q-110 68 -244 68t-202 -62q-69 -62 -69 -158q0 -95 54 -143t159 -64l174 -27q180 -27 270 -108q119 -109 119 -303t-145 -309t-376 -115t-396 98q-58 34 -80 62t-23 68q0 40 31 72q58 58 168 -17q64 -43 136 -65t190 -22z" />
    <glyph glyph-name="scaron" unicode="&#x161;" horiz-adv-x="1022" 
d="M523 1195q-42 0 -90 48l-171 171q-80 80 -20 140t140 -20l141 -141l142 141q80 80 140 20t-21 -140l-171 -171q-48 -48 -90 -48zM933 316q1 -158 -119 -243t-328 -85t-347 94q-57 39 -57 85t30 71q57 48 152 -14q94 -62 218 -62q248 1 248 147q0 110 -140 123l-167 15
q-307 28 -307 285q0 148 111 234q112 85 275 85t285 -58q47 -23 68 -44q19 -23 19 -57t-25 -62q-27 -26 -56 -26t-73 21q-112 55 -209 55t-145 -38t-48 -96q0 -59 34 -87q36 -28 109 -34l164 -16q308 -30 308 -293z" />
    <glyph glyph-name="Tcommaaccent" unicode="&#x162;" horiz-adv-x="1142" 
d="M560 -110q26 0 49 -15q47 -31 44 -79q-1 -26 -31 -76l-96 -152q-28 -44 -45 -57q-23 -15 -49 -15t-49 15q-48 30 -45 78q1 27 33 76l95 153q28 44 48 58t46 14zM571 -8q-113 0 -110 150v1120h-275q-63 0 -99 20t-36 78t36 78t99 20h770q64 0 100 -20t36 -78t-36 -78
t-100 -20h-274v-1120q0 -66 -16 -100q-28 -50 -95 -50z" />
    <glyph glyph-name="tcommaaccent" unicode="&#x163;" horiz-adv-x="719" 
d="M394 -110q26 0 50 -15q47 -31 44 -79q0 -26 -31 -76l-96 -152q-28 -44 -48 -58q-46 -32 -94 0t-45 79q1 26 32 76l95 153q28 44 48 58q19 14 45 14zM641 89q0 -89 -130 -89h-21q-94 0 -159 41q-122 77 -122 247v591h-48q-110 0 -110 79q0 48 30 64t80 16h48v163
q1 62 21 102t83 40t83 -40t22 -102v-163h112q50 0 80 -16t30 -64q0 -79 -110 -79h-112v-582q0 -117 105 -120q53 -2 76 -14q42 -23 42 -74z" />
    <glyph glyph-name="Tcaron" unicode="&#x164;" horiz-adv-x="1142" 
d="M570 1569q-42 0 -90 48l-171 171q-81 79 -21 140q61 62 141 -20l141 -142l142 142q80 80 140 20q62 -62 -21 -140l-171 -171q-48 -48 -90 -48zM571 -8q-113 0 -110 150v1120h-275q-63 0 -99 20t-36 78t36 78t99 20h770q64 0 100 -20t36 -78t-36 -78t-100 -20h-274v-1120
q0 -66 -16 -100q-28 -50 -95 -50z" />
    <glyph glyph-name="tcaron" unicode="&#x165;" horiz-adv-x="719" 
d="M624 1151q-32 0 -59 17q-25 18 -33 46t12 89l55 165q17 53 39 74t54 21q32 1 59 -17q26 -18 33 -46t-12 -89l-55 -166q-17 -53 -39 -73t-54 -21zM641 89q0 -89 -130 -89h-21q-94 0 -159 41q-122 77 -122 247v591h-48q-110 0 -110 79q0 48 30 64t80 16h48v163q1 62 21 102
t83 40t83 -40t22 -102v-163h112q50 0 80 -16t30 -64q0 -79 -110 -79h-112v-582q0 -117 105 -120q53 -2 76 -14q42 -23 42 -74z" />
    <glyph glyph-name="Tbar" unicode="&#x166;" horiz-adv-x="1142" 
d="M571 -8q-113 0 -110 150v505h-125q-56 1 -88 19t-32 69t32 69t88 19h125v439h-275q-63 0 -99 20t-36 78t36 78t99 20h770q64 0 100 -20t36 -78t-36 -78t-100 -20h-274v-439h125q57 -1 89 -19t32 -69t-32 -69t-89 -19h-125v-505q0 -66 -16 -100q-28 -50 -95 -50z" />
    <glyph glyph-name="tbar" unicode="&#x167;" horiz-adv-x="719" 
d="M508 490h-90v-193q0 -117 105 -120q53 -2 76 -14q42 -23 42 -74q0 -89 -130 -89h-21q-94 0 -159 41q-122 77 -122 247v202h-48q-110 0 -110 80q0 48 30 64t80 16h48v229h-48q-110 0 -110 79q0 48 30 64t80 16h48v163q1 62 21 102t83 40t83 -40t22 -102v-163h113
q50 0 80 -16t30 -64q0 -79 -110 -79h-113v-229h90q111 0 109 -80q0 -80 -109 -80z" />
    <glyph glyph-name="Utilde" unicode="&#x168;" horiz-adv-x="1378" 
d="M558 1696q-44 0 -83 -31q-38 -31 -69 -31t-50 22t-19 58t47 76q77 63 160 63t158 -42t119 -42t82 31q37 31 69 31t50 -22t19 -58q0 -36 -47 -76q-77 -63 -171 -63q-44 0 -76 10q-33 10 -89 42t-100 32zM1102 1466q113 0 109 -150v-824q0 -223 -148 -364
q-149 -140 -374 -140t-374 140q-148 140 -148 364v824q0 43 2 61q3 18 14 39q28 50 95 50q113 0 110 -150v-814q0 -146 82 -232t219 -86t219 86t82 232v814q0 68 22 109q24 41 90 41z" />
    <glyph glyph-name="utilde" unicode="&#x169;" horiz-adv-x="1163" 
d="M442 1329q-44 0 -82 -31q-74 -59 -120 -7q-18 21 -18 57t47 75q77 63 161 63t158 -41q74 -42 118 -42t83 31q75 59 120 7q17 -20 17 -56t-46 -76q-77 -63 -171 -64q-45 0 -77 10t-88 42q-58 32 -102 32zM788 904q0 141 105 143q63 0 89 -50q15 -31 15 -93v-769
q0 -69 -23 -106t-80 -37q-99 0 -104 109q-108 -113 -270 -113t-264 98q-100 98 -100 289v529q0 62 20 102t84 40q63 0 89 -49q15 -31 16 -93v-498q-1 -116 57 -173t152 -57t154 58t60 172v498z" />
    <glyph glyph-name="Umacron" unicode="&#x16a;" horiz-adv-x="1378" 
d="M485 1640q-114 0 -114 84t114 84h409q115 0 115 -83t-115 -85h-409zM1102 1466q113 0 109 -150v-824q0 -223 -148 -364q-149 -140 -374 -140t-374 140q-148 140 -148 364v824q0 43 2 61q3 18 14 39q28 50 95 50q113 0 110 -150v-814q0 -146 82 -232t219 -86t219 86
t82 232v814q0 68 22 109q24 41 90 41z" />
    <glyph glyph-name="umacron" unicode="&#x16b;" horiz-adv-x="1163" 
d="M778 1435q114 0 114 -84t-114 -84h-408q-115 0 -115 83t115 85h408zM788 904q0 141 105 143q63 0 89 -50q15 -31 15 -93v-769q0 -69 -23 -106t-80 -37q-99 0 -104 109q-108 -113 -270 -113t-264 98q-100 98 -100 289v529q0 62 20 102t84 40q63 0 89 -49q15 -31 16 -93
v-498q-1 -116 57 -173t152 -57t154 58t60 172v498z" />
    <glyph glyph-name="Ubreve" unicode="&#x16c;" horiz-adv-x="1378" 
d="M689 1755q83 0 167 74q64 56 116 0q56 -63 -25 -134q-114 -105 -258 -105t-258 105q-82 71 -28 130t119 4q84 -74 167 -74zM1102 1466q113 0 109 -150v-824q0 -223 -148 -364q-149 -140 -374 -140t-374 140q-148 140 -148 364v824q0 43 2 61q3 18 14 39q28 50 95 50
q113 0 110 -150v-814q0 -146 82 -232t219 -86t219 86t82 232v814q0 68 22 109q24 41 90 41z" />
    <glyph glyph-name="ubreve" unicode="&#x16d;" horiz-adv-x="1163" 
d="M574 1381q83 0 167 74q66 58 116 0q57 -64 -24 -134q-115 -104 -259 -104t-258 104q-82 71 -27 131q54 60 119 3q83 -74 166 -74zM788 904q0 141 105 143q63 0 89 -50q15 -31 15 -93v-769q0 -69 -23 -106t-80 -37q-99 0 -104 109q-108 -113 -270 -113t-264 98
q-100 98 -100 289v529q0 62 20 102t84 40q63 0 89 -49q15 -31 16 -93v-498q-1 -116 57 -173t152 -57t154 58t60 172v498z" />
    <glyph glyph-name="Uring" unicode="&#x16e;" horiz-adv-x="1378" 
d="M559 1791q0 -54 38 -92t92 -38t92 38t38 92t-38 92t-92 38t-92 -38t-38 -92zM433 1791q0 105 75 181q74 76 180 75q106 0 182 -75q76 -74 75 -180q0 -106 -75 -182q-74 -76 -180 -75q-106 0 -182 75q-75 76 -75 181zM1102 1466q113 0 109 -150v-824q0 -223 -148 -364
q-149 -140 -374 -140t-374 140q-148 140 -148 364v824q0 43 2 61q3 18 14 39q28 50 95 50q113 0 110 -150v-814q0 -146 82 -232t219 -86t219 86t82 232v814q0 68 22 109q24 41 90 41z" />
    <glyph glyph-name="uring" unicode="&#x16f;" horiz-adv-x="1163" 
d="M444 1436q0 -54 38 -92t92 -38t93 38q38 38 38 92t-38 91q-39 39 -93 39t-92 -38t-38 -92zM318 1436q0 106 76 181t180 75t180 -75t76 -181t-75 -182t-181 -74q-106 0 -180 75q-76 75 -76 181zM788 904q0 141 105 143q63 0 89 -50q15 -31 15 -93v-769q0 -69 -23 -106
t-80 -37q-99 0 -104 109q-108 -113 -270 -113t-264 98q-100 98 -100 289v529q0 62 20 102t84 40q63 0 89 -49q15 -31 16 -93v-498q-1 -116 57 -173t152 -57t154 58t60 172v498z" />
    <glyph glyph-name="Uhungarumlaut" unicode="&#x170;" horiz-adv-x="1378" 
d="M898 1577q-26 0 -50 15q-47 31 -44 79q1 26 32 76l95 153q28 44 48 58q19 14 45 14t50 -15q47 -31 44 -79q-1 -26 -32 -76l-95 -152q-28 -44 -48 -58q-19 -14 -45 -15zM520 1577q-26 0 -50 15q-47 31 -44 79q1 26 32 76l95 153q28 44 48 58q19 14 45 14t50 -15
q47 -31 44 -79q0 -26 -31 -76l-96 -152q-28 -44 -48 -58q-19 -14 -45 -15zM1102 1466q113 0 109 -150v-824q0 -223 -148 -364q-149 -140 -374 -140t-374 140q-148 140 -148 364v824q0 43 2 61q3 18 14 39q28 50 95 50q113 0 110 -150v-814q0 -146 82 -232t219 -86t219 86
t82 232v814q0 68 22 109q24 41 90 41z" />
    <glyph glyph-name="uhungarumlaut" unicode="&#x171;" horiz-adv-x="1163" 
d="M973 1433l-95 -153q-28 -44 -48 -58q-46 -32 -95 0q-48 32 -45 80q1 26 32 75l95 153q28 44 48 58q45 32 94 0t46 -80q-1 -25 -32 -75zM593 1433l-95 -153q-28 -44 -48 -58q-46 -32 -95 0q-48 32 -45 80q1 26 32 75l95 153q28 44 48 58q45 32 94 0t46 -80q-1 -25 -32 -75
zM788 904q0 141 105 143q63 0 89 -50q15 -31 15 -93v-769q0 -69 -23 -106t-80 -37q-99 0 -104 109q-108 -113 -270 -113t-264 98q-100 98 -100 289v529q0 62 20 102t84 40q63 0 89 -49q15 -31 16 -93v-498q-1 -116 57 -173t152 -57t154 58t60 172v498z" />
    <glyph glyph-name="Uogonek" unicode="&#x172;" horiz-adv-x="1378" 
d="M916 -110q26 0 51 -15q47 -31 44 -79q-1 -26 -32 -76l-95 -152q-28 -44 -45 -57q-23 -15 -49 -15t-50 15q-48 30 -45 78q1 27 33 76l95 153q29 44 49 58q18 14 44 14zM1102 1466q113 0 109 -150v-824q0 -223 -148 -364q-149 -140 -374 -140t-374 140q-148 140 -148 364
v824q0 43 2 61q3 18 14 39q28 50 95 50q113 0 110 -150v-814q0 -146 82 -232t219 -86t219 86t82 232v814q0 68 22 109q24 41 90 41z" />
    <glyph glyph-name="uogonek" unicode="&#x173;" horiz-adv-x="1163" 
d="M866 -110q26 0 49 -15q47 -31 44 -79q-1 -26 -31 -76l-95 -152q-28 -44 -49 -58t-46 -14t-49 15q-48 30 -45 78q1 27 33 76l95 153q28 44 48 58t46 14zM788 904q0 141 105 143q63 0 89 -50q15 -31 15 -93v-769q0 -69 -23 -106t-80 -37q-99 0 -104 109
q-108 -113 -270 -113t-264 98q-100 98 -100 289v529q0 62 20 102t84 40q63 0 89 -49q15 -31 16 -93v-498q-1 -116 57 -173t152 -57t154 58t60 172v498z" />
    <glyph glyph-name="Wcircumflex" unicode="&#x174;" horiz-adv-x="1771" 
d="M884 1959q41 0 90 -49l170 -170q38 -38 44 -63q13 -43 -23 -79q-37 -35 -71 -25t-70 47l-140 141l-141 -141q-37 -36 -71 -46t-70 24q-36 36 -22 79q6 25 44 63l170 170q49 49 90 49zM886 1465q48 0 74 -25t39 -75l267 -953l233 938q16 66 40 92t64 24q39 0 69 -20
t37 -50t-9 -97l-295 -1183q-32 -126 -130 -124q-45 0 -79 27q-32 27 -51 97l-259 923l-259 -923q-34 -126 -132 -125q-97 1 -128 125l-295 1183q-16 67 -10 97t37 50q30 20 70 20q39 0 63 -26t40 -90l234 -938l266 953q14 50 40 75t74 25z" />
    <glyph glyph-name="wcircumflex" unicode="&#x175;" horiz-adv-x="1501" 
d="M752 1585q41 0 90 -49l170 -170q38 -38 44 -62q13 -43 -23 -79q-37 -35 -71 -25t-70 46l-140 142l-141 -142q-37 -36 -71 -46t-70 25q-36 36 -23 79q6 25 45 62l170 170q49 49 90 49zM751 1047q43 0 71 -25t50 -98l188 -614l179 630q17 60 41 84t60 23t64 -21t36 -50
t-10 -90l-228 -765q-24 -79 -55 -105t-75 -24q-44 0 -76 25t-55 104l-190 613l-191 -613q-24 -79 -55 -105t-75 -24q-44 0 -76 25t-55 104l-227 765q-17 60 -11 90q7 30 35 50t66 20t60 -22q22 -23 40 -84l179 -630l188 614q23 74 51 98t71 25z" />
    <glyph glyph-name="Ycircumflex" unicode="&#x176;" horiz-adv-x="1071" 
d="M535 1959q41 0 90 -49l170 -170q38 -38 44 -63q13 -43 -23 -79q-37 -35 -71 -25t-70 47l-140 141l-141 -141q-36 -36 -70 -46t-71 24q-36 36 -23 79q6 25 44 63l170 170q50 49 91 49zM154 1466q28 0 52 -16t53 -76l277 -554l276 554q30 60 54 76t50 16q28 0 53 -12
q55 -28 57 -72t-28 -101l-352 -700v-439q0 -69 -16 -100q-28 -50 -94 -50t-95 50q-16 29 -16 100v439l-352 700q-29 57 -27 101t56 72q24 12 52 12z" />
    <glyph glyph-name="ycircumflex" unicode="&#x177;" horiz-adv-x="919" 
d="M458 1585q41 0 90 -49l170 -170q38 -38 44 -62q13 -43 -23 -79q-37 -35 -71 -25t-70 46l-140 142l-141 -142q-37 -36 -71 -46t-70 25q-36 36 -22 79q6 25 44 62l170 170q49 49 90 49zM156 1047q38 1 60 -25q21 -26 37 -76l205 -636l209 636q16 50 37 75q22 25 60 25
t66 -18q28 -19 38 -50t-14 -94l-378 -1092q-74 -206 -279 -206q-128 0 -126 96q0 91 101 93q49 1 81 25t53 85l50 153l-290 846q-24 67 -14 96t38 48t66 19z" />
    <glyph glyph-name="Ydieresis" unicode="&#x178;" horiz-adv-x="1071" 
d="M426 1718q0 -47 -35 -82q-35 -34 -82 -34t-81 34t-34 82t34 81q34 34 82 34t82 -34t34 -81zM759 1833q47 0 81 -34q34 -33 34 -81t-34 -82t-80 -34q-47 0 -82 34t-35 82q0 47 34 81t82 34zM154 1466q28 0 52 -16t53 -76l277 -554l276 554q30 60 54 76t50 16q28 0 53 -12
q55 -28 57 -72t-28 -101l-352 -700v-439q0 -69 -16 -100q-28 -50 -94 -50t-95 50q-16 29 -16 100v439l-352 700q-29 57 -27 101t56 72q24 12 52 12z" />
    <glyph glyph-name="Zacute" unicode="&#x179;" horiz-adv-x="1141" 
d="M598 1577q-26 0 -50 15q-47 31 -44 79q1 26 32 76l95 153q28 44 48 58q19 14 45 14t50 -15q47 -31 44 -79q-1 -26 -32 -76l-95 -152q-28 -44 -48 -58q-19 -14 -45 -15zM253 1458h643q86 0 118 -33t32 -75t-37 -104l-647 -1049h549q63 0 90 -15q45 -26 45 -84t-45 -84
q-27 -14 -90 -14h-672q-84 0 -117 33t-33 75t38 104l645 1050h-519q-63 0 -99 20t-36 78t36 78t99 20z" />
    <glyph glyph-name="zacute" unicode="&#x17a;" horiz-adv-x="948" 
d="M701 1433l-95 -153q-28 -44 -48 -58q-46 -32 -94 0t-45 80q1 26 32 75l95 153q28 44 48 58q46 32 94 0t45 -80q-1 -25 -32 -75zM207 0q-131 0 -131 91q0 27 8 47q9 20 34 55l476 657h-365q-59 0 -93 20t-35 74q0 54 43 80q24 14 85 14h509q132 0 132 -90q0 -44 -42 -101
l-478 -659h394q61 0 85 -14q43 -26 43 -80t-34 -74t-94 -20h-537z" />
    <glyph glyph-name="Zdotaccent" unicode="&#x17b;" horiz-adv-x="1141" 
d="M465 1729q0 47 34 81t82 34t82 -34q33 -34 33 -81t-33 -82q-34 -34 -82 -34q-48 1 -82 35t-34 81zM253 1458h643q86 0 118 -33t32 -75t-37 -104l-647 -1049h549q63 0 90 -15q45 -26 45 -84t-45 -84q-27 -14 -90 -14h-672q-84 0 -117 33t-33 75t38 104l645 1050h-519
q-63 0 -99 20t-36 78t36 78t99 20z" />
    <glyph glyph-name="zdotaccent" unicode="&#x17c;" horiz-adv-x="948" 
d="M378 1355q0 48 34 82q34 33 82 33t81 -34q34 -34 34 -81q0 -48 -34 -82t-81 -34t-82 34q-34 34 -34 82zM207 0q-131 0 -131 91q0 27 8 47q9 20 34 55l476 657h-365q-59 0 -93 20t-35 74q0 54 43 80q24 14 85 14h509q132 0 132 -90q0 -44 -42 -101l-478 -659h394
q61 0 85 -14q43 -26 43 -80t-34 -74t-94 -20h-537z" />
    <glyph glyph-name="Zcaron" unicode="&#x17d;" horiz-adv-x="1141" 
d="M580 1569q-42 0 -91 48l-171 171q-80 79 -20 140q61 62 140 -20l142 -142l141 142q80 80 140 20q61 -61 -20 -140l-171 -171q-48 -48 -90 -48zM253 1458h643q86 0 118 -33t32 -75t-37 -104l-647 -1049h549q63 0 90 -15q45 -26 45 -84t-45 -84q-27 -14 -90 -14h-672
q-84 0 -117 33t-33 75t38 104l645 1050h-519q-63 0 -99 20t-36 78t36 78t99 20z" />
    <glyph glyph-name="zcaron" unicode="&#x17e;" horiz-adv-x="948" 
d="M494 1195q-42 0 -91 48l-171 171q-80 80 -20 140q61 61 140 -20l142 -141l141 141q80 80 140 20t-20 -140l-171 -171q-48 -48 -90 -48zM207 0q-131 0 -131 91q0 27 8 47q9 20 34 55l476 657h-365q-59 0 -93 20t-35 74q0 54 43 80q24 14 85 14h509q132 0 132 -90
q0 -44 -42 -101l-478 -659h394q61 0 85 -14q43 -26 43 -80t-34 -74t-94 -20h-537z" />
    <glyph glyph-name="longs" unicode="&#x17f;" horiz-adv-x="540" 
d="M468 1468q130 0 130 -89q0 -51 -42 -73q-23 -12 -76 -15q-105 -3 -105 -120v-1037q0 -142 -105 -142q-64 0 -84 40t-20 102v1047q0 170 122 246q65 41 159 41h21z" />
    <glyph glyph-name="uni018F" unicode="&#x18f;" horiz-adv-x="1315" 
d="M350 601v-22q0 -120 18 -188t67 -119q88 -88 219 -88t216 91q45 49 63 117t21 209h-604zM1178 729q0 -314 -34 -414t-113 -179q-147 -148 -375 -148t-376 148q-82 84 -112 190t-30 292v22q0 72 32 104t103 31h683q-2 186 -18 268t-69 140q-85 91 -197 91t-177 -50
t-99 -130t-62 -101q-27 -21 -69 -21t-74 30q-58 58 -2 193q27 65 91 133q133 142 368 142q234 0 383 -148q140 -140 145 -374q2 -109 2 -219z" />
    <glyph glyph-name="florin" unicode="&#x192;" horiz-adv-x="896" 
d="M178 641q-111 0 -109 80q-1 47 29 63t80 17h125l76 380q30 143 111 215t204 72h19q131 0 131 -89q0 -84 -101 -89h-19q-121 -3 -146 -130l-72 -359h121q109 0 109 -80t-109 -80h-153l-190 -953q-21 -115 -103 -115q-41 0 -68 26q-46 44 -23 128l181 914h-93z" />
    <glyph glyph-name="uni01B5" unicode="&#x1b5;" horiz-adv-x="1141" 
d="M325 823h178l269 439h-519q-63 0 -99 20t-36 78t36 78t99 20h643q86 0 118 -33t32 -75t-37 -104l-260 -423h63q58 -1 90 -19t31 -69q1 -51 -31 -69t-90 -19h-172l-278 -450h549q63 0 90 -15q45 -26 45 -84t-45 -84q-27 -14 -90 -14h-672q-84 0 -117 33t-33 75t38 104
l267 435h-69q-57 1 -89 19t-31 69q-1 51 31 69t89 19z" />
    <glyph glyph-name="uni01B6" unicode="&#x1b6;" horiz-adv-x="948" 
d="M207 0q-131 0 -131 91q0 27 8 47q9 20 34 55l191 265h-47q-53 0 -74 12q-37 20 -36 68q0 48 36 68q20 12 74 12h164l168 232h-365q-59 0 -93 20t-35 74q0 54 43 80q24 14 85 14h509q132 0 132 -90q0 -44 -42 -101l-165 -229h32q52 0 73 -12q37 -20 37 -68t-37 -68
q-20 -12 -73 -12h-149l-196 -270h394q61 0 85 -14q43 -26 43 -80t-34 -74t-94 -20h-537z" />
    <glyph glyph-name="uni01C4" unicode="&#x1c4;" horiz-adv-x="2502" 
d="M1940 1569q-42 0 -90 48l-171 171q-81 79 -21 140q61 62 141 -20l141 -142l142 142q80 80 140 20q61 -61 -20 -140l-171 -171q-49 -48 -91 -48zM1614 1458h643q85 0 117 -33q63 -64 -4 -179l-647 -1049h549q63 0 90 -15q45 -26 45 -84t-36 -78t-99 -20h-673
q-85 0 -117 33t-32 75t38 104l645 1050h-519q-63 0 -99 20t-36 78t36 78t99 20zM411 1262v-1065h266q165 0 251 99q50 56 63 150t13 282t-12 284q-14 94 -64 150q-86 99 -251 100h-266zM325 1458h377q268 0 416 -185q71 -90 89 -204q19 -114 19 -338t-20 -340t-90 -208
q-142 -183 -414 -183h-377q-72 0 -104 32t-32 103v1188q0 71 32 103t104 32z" />
    <glyph glyph-name="uni01C5" unicode="&#x1c5;" horiz-adv-x="2313" 
d="M1859 1195q-42 0 -91 48l-171 171q-81 80 -21 140q61 61 141 -20l142 -141l141 141q80 80 140 20t-20 -140l-171 -171q-48 -48 -90 -48zM1572 0q-131 0 -131 91q0 27 8 47q9 20 34 55l476 657h-365q-60 0 -94 20t-34 74t43 80q24 14 85 14h509q132 0 132 -90
q0 -44 -42 -101l-478 -659h394q61 0 85 -14q43 -26 43 -80q-1 -54 -35 -74t-93 -20h-537zM411 1262v-1065h266q165 0 251 99q50 56 63 150t13 282t-12 284q-14 94 -64 150q-86 99 -251 100h-266zM325 1458h377q268 0 416 -185q71 -90 89 -204q19 -114 19 -338t-20 -340
t-90 -208q-142 -183 -414 -183h-377q-72 0 -104 32t-32 103v1188q0 71 32 103t104 32z" />
    <glyph glyph-name="uni01C6" unicode="&#x1c6;" horiz-adv-x="2083" 
d="M1629 1195q-42 0 -90 48l-171 171q-80 80 -20 140t140 -20l141 -141l141 141q80 80 141 20q60 -60 -21 -140l-171 -171q-48 -48 -90 -48zM1342 0q-131 0 -131 91q0 41 42 102l477 657h-365q-59 0 -93 20t-35 74q0 54 43 80q24 14 85 14h509q132 0 132 -90q0 -44 -42 -101
l-478 -659h394q61 0 85 -14q43 -26 43 -80t-34 -74t-94 -20h-538zM735 319q22 80 22 203q1 123 -17 184q-18 60 -41 89q-53 67 -158 67q-154 0 -194 -143q-21 -76 -21 -200t21 -200q40 -143 194 -143t194 143zM860 1466q105 0 105 -142v-1189q0 -143 -105 -143
q-99 0 -103 114q-100 -120 -267 -119t-259 93q-69 70 -91 178t-23 262q0 153 23 261t91 177q92 92 252 93q88 0 153 -26t120 -91v390q0 62 20 102t84 40z" />
    <glyph glyph-name="uni01C7" unicode="&#x1c7;" horiz-adv-x="2210" 
d="M325 0q-72 0 -104 32t-32 103v1181q1 68 23 109t88 41t94 -50q17 -31 17 -100v-1119h575q63 0 90 -15q45 -26 45 -84t-36 -78t-99 -20h-661zM1224 156q0 48 28 76t64 27q36 1 96 -37t144 -38q126 0 196 76q69 76 69 219v837q0 43 2 61q3 18 14 39q29 50 95 50t93 -50
q17 -31 17 -100v-855q0 -146 -66 -256q-132 -217 -436 -217q-150 0 -264 83q-52 37 -52 85z" />
    <glyph glyph-name="uni01C8" unicode="&#x1c8;" horiz-adv-x="1718" 
d="M1248 -424q-130 0 -130 89q0 51 42 74q23 12 76 14q105 3 105 120v1031q0 141 105 143q63 0 89 -50q15 -31 15 -93v-1040q0 -170 -122 -247q-65 -41 -159 -41h-21zM1320 1377q0 52 37 89t89 37t89 -37t37 -89t-37 -89t-89 -37t-89 37t-37 89zM325 0q-72 0 -104 32
t-32 103v1181q1 68 23 109t88 41t94 -50q17 -31 17 -100v-1119h575q63 0 90 -15q45 -26 45 -84t-36 -78t-99 -20h-661z" />
    <glyph glyph-name="uni01C9" unicode="&#x1c9;" horiz-adv-x="1179" 
d="M710 -424q-130 0 -130 89q0 51 42 74q23 12 75 14q106 3 106 120v1031q1 62 21 102t83 40t89 -49q15 -31 16 -93v-1040q0 -169 -123 -247q-65 -41 -159 -41h-20zM781 1377q0 52 37 89t89 37t89 -37t37 -89t-37 -89t-89 -37t-89 37t-37 89zM593 89q0 -89 -130 -89h-21
q-94 0 -159 41q-122 77 -122 247v1038q1 62 21 102t83 40t83 -40t22 -102v-1029q0 -117 105 -120q53 -2 76 -14q42 -23 42 -74z" />
    <glyph glyph-name="uni01CA" unicode="&#x1ca;" horiz-adv-x="2513" 
d="M1178 1466q113 0 110 -150v-1184q0 -74 -34 -107t-76 -33q-44 0 -72 22t-63 75l-632 935v-882q-1 -68 -23 -109t-88 -41t-94 50q-17 31 -17 100v1183q-1 75 33 109t78 32q44 0 71 -22q28 -22 63 -75l633 -935v882q0 66 16 100q28 50 95 50zM1527 156q0 48 28 76t64 27
q36 1 96 -37t145 -38q126 0 195 76t69 219v837q0 43 2 61q3 18 14 39q28 50 94 50t95 -50q16 -29 16 -100v-855q0 -146 -66 -256q-131 -217 -435 -217q-150 0 -265 83q-52 37 -52 85z" />
    <glyph glyph-name="uni01CB" unicode="&#x1cb;" horiz-adv-x="2021" 
d="M1178 1466q113 0 110 -150v-1184q0 -74 -34 -107t-76 -33q-44 0 -72 22t-63 75l-632 935v-882q-1 -68 -23 -109t-88 -41t-94 50q-17 31 -17 100v1183q-1 75 33 109t78 32q44 0 71 -22q28 -22 63 -75l633 -935v882q0 66 16 100q28 50 95 50zM1551 -424q-130 0 -130 89
q0 51 42 74q23 12 76 14q106 3 106 120v1031q1 62 21 102t83 40t89 -49q15 -31 15 -93v-1040q0 -170 -122 -247q-65 -41 -159 -41h-21zM1623 1377q0 52 37 89t89 37t89 -37t37 -89t-37 -89t-89 -37t-89 37t-37 89z" />
    <glyph glyph-name="uni01CC" unicode="&#x1cc;" horiz-adv-x="1709" 
d="M1239 -424q-130 0 -130 89q0 51 42 74q23 12 76 14q105 3 105 120v1031q0 141 105 143q63 0 89 -50q15 -31 15 -93v-1040q0 -169 -122 -247q-65 -41 -159 -41h-21zM1311 1377q0 52 37 89t89 37t89 -37t37 -89t-37 -89t-89 -37t-89 37t-37 89zM1008 134q0 -142 -105 -142
q-63 0 -83 40t-21 102v499q0 117 -58 173q-57 56 -151 56t-154 -58t-61 -171v-499q0 -142 -105 -142q-64 0 -84 40t-20 102v769q0 69 23 106t81 38q97 0 104 -110q108 114 270 114t262 -98t102 -289v-530z" />
    <glyph glyph-name="uni01F1" unicode="&#x1f1;" horiz-adv-x="2499" 
d="M1611 1458h643q86 0 118 -33q64 -65 -6 -179l-646 -1049h549q63 0 90 -15q45 -26 45 -84t-36 -78t-99 -20h-673q-84 0 -116 33t-33 75q0 42 38 104l645 1050h-519q-63 0 -99 20t-36 78t36 78t99 20zM411 1262v-1065h266q165 0 251 99q50 56 63 150t13 282t-12 284
q-14 94 -64 150q-86 99 -251 100h-266zM325 1458h377q268 0 416 -185q71 -90 89 -204q19 -114 19 -338t-20 -340t-90 -208q-142 -183 -414 -183h-377q-72 0 -104 32t-32 103v1188q0 71 32 103t104 32z" />
    <glyph glyph-name="uni01F2" unicode="&#x1f2;" horiz-adv-x="2312" 
d="M411 1262v-1065h266q165 0 251 99q50 56 63 150t13 282t-12 284q-14 94 -64 150q-86 99 -251 100h-266zM325 1458h377q268 0 416 -185q71 -90 89 -204q19 -114 19 -338t-20 -340t-90 -208q-142 -183 -414 -183h-377q-72 0 -104 32t-32 103v1188q0 71 32 103t104 32z
M1571 0q-131 0 -131 91q0 27 8 47q9 20 34 55l476 657h-365q-59 0 -93 20t-35 74q0 54 43 80q24 14 85 14h509q132 0 132 -90q0 -44 -42 -101l-478 -659h394q61 0 85 -14q43 -26 43 -80t-34 -74t-94 -20h-537z" />
    <glyph glyph-name="uni01F3" unicode="&#x1f3;" horiz-adv-x="2080" 
d="M735 319q22 80 22 203q1 123 -17 184q-18 60 -41 89q-53 67 -158 67q-154 0 -194 -143q-21 -76 -21 -200t21 -200q40 -143 194 -143t194 143zM860 1466q105 0 105 -142v-1189q0 -143 -105 -143q-99 0 -103 114q-100 -120 -267 -119t-259 93q-69 70 -91 178t-23 262
q0 153 23 261t91 177q92 92 252 93q88 0 153 -26t120 -91v390q0 62 20 102t84 40zM1339 0q-131 0 -131 91q0 41 42 102l476 657h-364q-60 0 -94 20t-34 74t43 80q24 14 85 14h509q132 0 132 -90q0 -44 -42 -101l-478 -659h394q61 0 85 -14q43 -26 43 -80q-1 -54 -35 -74
t-93 -20h-538z" />
    <glyph glyph-name="Aringacute" unicode="&#x1fa;" horiz-adv-x="1275" 
d="M508 1516q0 -54 38 -92t92 -38t92 38t38 92t-38 91q-38 39 -92 39t-92 -38t-38 -92zM818 1968l-100 -101q-37 -37 -71 -47t-70 26q-36 35 -23 78q6 25 44 63l100 101q37 36 71 46t71 -25q36 -36 22 -78q-6 -25 -44 -63zM871 481l-233 638l-234 -638h467zM382 1516
q0 106 75 181t181 75t180 -75q76 -75 76 -181q0 -65 -30 -121t-81 -90l426 -1134q25 -66 19 -96q-6 -31 -32 -57t-78 -26q-53 0 -82 50q-9 17 -23 55l-73 196h-604l-73 -196q-24 -66 -50 -86q-25 -19 -67 -19t-75 36q-34 36 -22 88q5 21 18 55l426 1134q-111 76 -111 211z
" />
    <glyph glyph-name="aringacute" unicode="&#x1fb;" horiz-adv-x="1085" 
d="M395 1436q0 -54 38 -92t92 -38t92 38t38 92t-38 91q-38 39 -92 39t-92 -38t-38 -92zM269 1436q-1 106 75 181t181 75t181 -75t75 -181q0 -106 -75 -182q-74 -76 -180 -74q-106 0 -182 75t-75 181zM484 162q128 0 182 51t54 163v82h-246q-185 0 -185 -148t195 -148z
M825 -8q-95 0 -99 104q-61 -60 -122 -84t-157 -23q-188 -1 -275 89t-87 226t94 219t265 83h276v65q0 103 -52 153t-162 50t-202 -70q-36 -28 -75 -28t-63 28t-23 64q-1 62 103 122t286 60t290 -90q108 -91 108 -267v-559q0 -67 -16 -94q-26 -48 -89 -48zM706 1888l-101 -101
q-37 -37 -71 -47t-70 25q-36 36 -23 79q6 25 44 63l101 101q36 36 70 46t71 -24q36 -36 23 -79q-6 -25 -44 -63z" />
    <glyph glyph-name="AEacute" unicode="&#x1fc;" horiz-adv-x="1896" 
d="M1004 1577q-26 0 -50 15q-47 31 -44 79q1 26 32 76l95 153q28 44 48 58q19 14 45 14t51 -15q47 -31 44 -79q-1 -26 -32 -76l-95 -152q-28 -44 -48 -58t-46 -15zM854 520v753l-375 -753h375zM810 1458h851q63 0 99 -20t36 -78t-36 -78t-99 -20h-586v-428h481q64 0 100 -20
t36 -79q0 -58 -36 -78t-100 -20h-481v-440h586q63 0 90 -15q45 -26 45 -84t-36 -78t-99 -20h-672q-71 0 -103 32t-32 103v198h-469l-124 -249q-29 -60 -53 -76t-52 -16t-52 12q-54 28 -56 72t27 101l573 1149q36 72 73 102t89 30z" />
    <glyph glyph-name="aeacute" unicode="&#x1fd;" horiz-adv-x="1708" 
d="M1027 1433l-95 -153q-28 -44 -48 -58q-45 -32 -94 0t-46 80q1 26 32 75l95 153q28 44 48 58q46 32 95 0q48 -32 45 -80q-1 -25 -32 -75zM927 459q0 -135 69 -214t192 -79t205 65q47 38 82 38t62 -27t27 -62q0 -59 -103 -126t-273 -66q-250 0 -370 160q-75 -92 -159 -126
t-212 -33q-188 -1 -275 89t-87 226t94 219t265 83h276v65q0 103 -52 153t-162 50t-202 -70q-36 -28 -75 -28t-63 28t-23 64q0 63 104 123t258 61q249 0 347 -137q112 137 310 137t315 -132q117 -131 122 -341q1 -61 -27 -91t-93 -29h-552zM1394 604q-6 91 -31 146
q-25 54 -78 90t-125 36t-126 -34q-103 -68 -107 -238h467zM484 162q128 0 182 51t54 163v82h-246q-185 0 -185 -148t195 -148z" />
    <glyph glyph-name="Oslashacute" unicode="&#x1fe;" horiz-adv-x="1325" 
d="M680 1577q-26 0 -50 15q-47 31 -44 79q1 26 31 76l96 153q28 44 48 58q19 14 45 14t50 -15q47 -31 44 -79q-1 -26 -32 -76l-95 -152q-28 -44 -48 -58q-19 -14 -45 -15zM663 184q130 0 217 92q53 58 69 146q17 88 17 278t-10 266t-45 130l-412 -865q73 -47 164 -47z
M359 758q-1 -192 9 -267t45 -130l412 867q-72 46 -162 46q-132 0 -218 -91q-53 -56 -69 -145q-16 -88 -17 -280zM663 -12q-132 0 -236 52l-30 -62q-25 -49 -55 -69t-76 3t-45 71q0 26 24 72l41 81q-117 117 -137 295q-11 98 -11 253q0 359 34 459t113 179q148 148 378 148
q125 0 233 -51l31 61q25 49 55 69t76 -3q46 -24 45 -60q0 -36 -24 -83l-40 -81q119 -119 137 -295q11 -98 11 -354q0 -257 -35 -358t-113 -179q-148 -148 -376 -148z" />
    <glyph glyph-name="oslashacute" unicode="&#x1ff;" horiz-adv-x="1099" 
d="M758 1433l-95 -153q-29 -44 -49 -58q-46 -32 -94 0t-45 80q1 26 32 75l95 153q28 44 48 58q46 32 94 0t46 -80q-1 -25 -32 -75zM562 176q80 0 132 52t65 122q14 68 14 194t-38 189l-307 -522q54 -35 134 -35zM538 862q-82 0 -134 -51q-51 -51 -64 -120t-13 -196t37 -188
l307 522q-51 33 -133 33zM549 1051q111 0 203 -46l41 69q54 88 117 50q40 -23 38 -56t-25 -71l-51 -84q62 -71 86 -165t24 -232q0 -139 -26 -236t-96 -169q-119 -123 -311 -123q-111 0 -203 46l-42 -71q-54 -88 -118 -50q-40 24 -38 56t26 71l52 85q-61 71 -85 161
q-23 90 -23 232t26 240q26 97 96 170q119 123 309 123z" />
    <glyph glyph-name="Scommaaccent" unicode="&#x218;" horiz-adv-x="1210" 
d="M584 -110q26 0 50 -15q47 -31 44 -79q-1 -26 -32 -76l-95 -152q-28 -44 -48 -58q-46 -32 -94 0t-45 79q1 26 31 76l95 153q28 44 48 58t46 14zM610 184q119 0 197 59q79 59 79 164t-55 153t-161 63l-173 24q-176 26 -280 121q-103 95 -103 282t131 304t356 116
q103 0 177 -18t164 -66t91 -113q0 -38 -26 -69q-52 -62 -163 5q-110 68 -244 68t-202 -62q-69 -62 -69 -158q0 -95 54 -143t159 -64l174 -27q180 -27 270 -108q119 -109 119 -303t-145 -309t-376 -115t-396 98q-58 34 -80 62t-23 68q0 40 31 72q58 58 168 -17
q64 -43 136 -65t190 -22z" />
    <glyph glyph-name="scommaaccent" unicode="&#x219;" horiz-adv-x="1022" 
d="M510 -110q26 0 49 -15q47 -31 44 -79q-1 -26 -32 -76l-95 -152q-28 -44 -48 -58q-46 -32 -94 0t-45 79q1 26 32 76l95 153q28 44 48 58t46 14zM933 316q1 -158 -119 -243t-328 -85t-347 94q-57 39 -57 85t30 71q57 48 152 -14q94 -62 218 -62q248 1 248 147
q0 110 -140 123l-167 15q-307 28 -307 285q0 148 111 234q112 85 275 85t285 -58q47 -23 68 -44q19 -23 19 -57t-25 -62q-27 -26 -56 -26t-73 21q-112 55 -209 55t-145 -38t-48 -96q0 -59 34 -87q36 -28 109 -34l164 -16q308 -30 308 -293z" />
    <glyph glyph-name="uni021A" unicode="&#x21a;" horiz-adv-x="1142" 
d="M558 -110q26 0 50 -15q47 -31 44 -79q0 -26 -31 -76l-96 -152q-28 -44 -48 -58q-46 -32 -94 0t-45 79q1 26 32 76l95 153q28 44 48 58q19 14 45 14zM571 -8q-113 0 -110 150v1120h-275q-63 0 -99 20t-36 78t36 78t99 20h770q64 0 100 -20t36 -78t-36 -78t-100 -20h-274
v-1120q0 -66 -16 -100q-28 -50 -95 -50z" />
    <glyph glyph-name="uni021B" unicode="&#x21b;" horiz-adv-x="719" 
d="M394 -110q26 0 50 -15q47 -31 44 -79q0 -26 -31 -76l-96 -152q-28 -44 -48 -58q-46 -32 -94 0t-45 79q1 26 32 76l95 153q28 44 48 58q19 14 45 14zM641 89q0 -89 -130 -89h-21q-94 0 -159 41q-122 77 -122 247v591h-48q-110 0 -110 79q0 48 30 64t80 16h48v163
q1 62 21 102t83 40t83 -40t22 -102v-163h112q50 0 80 -16t30 -64q0 -79 -110 -79h-112v-582q0 -117 105 -120q53 -2 76 -14q42 -23 42 -74z" />
    <glyph glyph-name="uni0237" unicode="&#x237;" horiz-adv-x="540" 
d="M72 -424q-130 0 -130 89q0 51 42 74q23 12 75 14q106 3 106 120v1031q1 62 21 102t83 40t89 -49q15 -31 16 -93v-1040q0 -169 -123 -247q-65 -41 -159 -41h-20z" />
    <glyph glyph-name="uni0259" unicode="&#x259;" horiz-adv-x="1100" 
d="M548 162q72 0 126 35q103 67 107 237h-467q6 -91 31 -146q25 -54 78 -90t125 -36zM549 -12q-201 0 -318 131t-122 341q-1 62 27 91t93 29h552q0 135 -69 214q-69 78 -192 78t-205 -65q-47 -38 -82 -38t-61 27t-28 62q0 59 103 126t289 67t319 -121t133 -392
q0 -272 -119 -411t-320 -139z" />
    <glyph glyph-name="uni02BB" unicode="&#x2bb;" horiz-adv-x="539" 
d="M406 1297l-73 -216q-21 -62 -45 -85q-24 -22 -60 -22t-70 21q-61 40 -24 152l73 216q21 62 45 85q24 22 60 22t69 -21t39 -56t-14 -96z" />
    <glyph glyph-name="afii57929" unicode="&#x2bc;" horiz-adv-x="539" 
d="M406 1297l-73 -216q-21 -62 -45 -85q-24 -22 -60 -22t-70 21q-61 40 -24 152l73 216q21 62 45 85q24 22 60 22t69 -21t39 -56t-14 -96z" />
    <glyph glyph-name="circumflex" unicode="&#x2c6;" horiz-adv-x="1101" 
d="M551 1585q41 0 90 -49l170 -170q37 -38 47 -72t-25 -69q-37 -35 -71 -25t-71 46l-140 142l-140 -142q-37 -36 -71 -46t-71 25q-36 36 -22 79q6 25 44 62l170 170q49 49 90 49z" />
    <glyph glyph-name="caron" unicode="&#x2c7;" horiz-adv-x="1101" 
d="M551 1195q-42 0 -90 48l-171 171q-80 80 -21 140q60 61 141 -20l141 -141l141 141q80 80 141 20q60 -60 -21 -140l-171 -171q-48 -48 -90 -48z" />
    <glyph glyph-name="breve" unicode="&#x2d8;" horiz-adv-x="1101" 
d="M551 1381q83 0 167 74q65 57 116 0q56 -63 -25 -134q-114 -104 -258 -104t-258 104q-81 71 -27 131q54 61 118 3q84 -74 167 -74z" />
    <glyph glyph-name="dotaccent" unicode="&#x2d9;" horiz-adv-x="1101" 
d="M435 1355q1 48 35 82q34 33 81 33t81 -34t34 -81q0 -48 -34 -82t-81 -34t-81 34t-35 82z" />
    <glyph glyph-name="ring" unicode="&#x2da;" horiz-adv-x="1101" 
d="M421 1436q0 -54 38 -92q37 -38 91 -38t93 38q38 38 38 92t-38 91q-37 39 -91 39t-92 -38t-39 -92zM295 1436q0 106 75 181t181 75t181 -75t75 -181t-75 -182t-181 -74q-106 0 -181 75t-75 181z" />
    <glyph glyph-name="ogonek" unicode="&#x2db;" horiz-adv-x="1024" 
d="M537 -110q26 0 50 -15q47 -31 44 -79q-1 -26 -32 -76l-95 -152q-28 -44 -45 -57q-24 -15 -50 -15t-49 15q-48 30 -45 78q1 27 33 76l95 153q29 44 49 58t45 14z" />
    <glyph glyph-name="tilde" unicode="&#x2dc;" horiz-adv-x="1101" 
d="M419 1329q-44 0 -82 -31q-74 -61 -121 -7q-17 21 -17 57t47 75q77 63 161 63t157 -41q74 -42 118 -42t83 31q73 60 121 7q17 -20 17 -56t-47 -76q-77 -63 -171 -64q-45 0 -77 10t-88 42t-101 32z" />
    <glyph glyph-name="hungarumlaut" unicode="&#x2dd;" horiz-adv-x="1101" 
d="M949 1439l-95 -153q-28 -44 -48 -58q-46 -32 -94 0t-45 80q1 26 31 75l96 153q28 44 48 58q46 32 94 0t45 -80q-1 -25 -32 -75zM569 1439l-95 -153q-28 -44 -48 -58q-46 -32 -94 0t-45 80q1 26 31 75l96 153q28 44 48 58q46 32 94 0t45 -80q-1 -25 -32 -75z" />
    <glyph glyph-name="uni0394" unicode="&#x394;" horiz-adv-x="1263" 
d="M632 1119l-342 -922h681zM1218 96q0 -96 -149 -96h-874q-149 0 -149 105q0 31 24 92l437 1163q39 108 125 107t125 -107l437 -1163q24 -61 24 -101z" />
    <glyph glyph-name="uni03A9" unicode="&#x3a9;" horiz-adv-x="1378" 
d="M877 0q-111 0 -111 94q0 51 54 87q86 55 120 119t43 162q9 97 9 292t-16 284t-70 145q-85 91 -217 91t-217 -91q-54 -56 -70 -145t-16 -284t10 -292q10 -98 43 -162t119 -119q54 -36 54 -87q0 -94 -110 -94h-263q-63 0 -99 20t-37 78q0 58 36 78t100 21h76
q-67 59 -98 127q-52 113 -52 416t34 403q34 99 112 179q147 148 377 148t379 -148q140 -140 145 -374q7 -319 -7 -438q-13 -119 -45 -186t-97 -127h77q63 0 90 -15q45 -26 45 -84t-36 -78t-99 -20h-263z" />
    <glyph glyph-name="uni03BC" unicode="&#x3bc;" horiz-adv-x="1173" 
d="M375 -286q0 -142 -105 -142q-64 0 -84 40t-20 102v1190q0 62 20 102t84 40q63 0 89 -49q15 -31 16 -93v-498q0 -116 58 -173q57 -57 151 -57t154 58t61 172v498q1 62 21 102t83 40t89 -49q15 -31 16 -93v-769q0 -143 -105 -143q-56 0 -85 41q-16 22 -18 68
q-108 -114 -274 -113q-96 0 -151 52v-326z" />
    <glyph glyph-name="pi" unicode="&#x3c0;" horiz-adv-x="1183" 
d="M1018 134q0 -142 -105 -142q-63 0 -83 40t-21 102v716h-434v-716q0 -142 -105 -142q-64 0 -84 40t-20 102v776q0 69 30 99t98 29h596q68 0 98 -30t30 -98v-776z" />
    <glyph glyph-name="uni0400" unicode="&#x400;" horiz-adv-x="1231" 
d="M500 1972q26 0 44 -14q20 -14 48 -58l95 -153q31 -50 32 -76q3 -48 -44 -79q-25 -15 -51 -15q-26 1 -45 15q-20 14 -48 58l-95 152q-31 50 -32 76q-3 48 45 79q25 15 51 15zM411 1262v-428h481q63 0 90 -15q45 -26 45 -84t-36 -78t-99 -20h-481v-440h585q63 0 90 -15
q46 -26 46 -84t-46 -84q-27 -14 -90 -14h-671q-72 0 -104 32t-32 103v1188q0 71 32 103t104 32h671q63 0 99 -20q37 -20 37 -78t-46 -84q-27 -14 -90 -14h-585z" />
    <glyph glyph-name="afii10023" unicode="&#x401;" horiz-adv-x="1231" 
d="M535 1718q0 -47 -35 -82q-35 -34 -82 -34t-81 34t-34 82t34 81q33 34 81 34t82 -34t35 -81zM983 1718q0 -48 -34 -82t-81 -34t-82 34t-34 82q0 47 34 81t82 34t81 -34q34 -33 34 -81zM411 1262v-428h481q63 0 90 -15q45 -26 45 -84t-36 -78t-99 -20h-481v-440h585
q63 0 90 -15q46 -26 46 -84t-46 -84q-27 -14 -90 -14h-671q-72 0 -104 32t-32 103v1188q0 71 32 103t104 32h671q63 0 99 -20q37 -20 37 -78t-46 -84q-27 -14 -90 -14h-585z" />
    <glyph glyph-name="afii10051" unicode="&#x402;" horiz-adv-x="1513" 
d="M896 713h-278v-571q0 -69 -16 -100q-28 -50 -94 -50t-94 50q-17 31 -17 100v1120h-211q-63 0 -99 20t-36 78t36 78t99 20h769q63 0 99 -20t37 -78q0 -58 -36 -78t-100 -20h-337v-357h296q210 0 336 -119q126 -120 126 -330t-122 -334t-322 -126h-13q-38 0 -65 14
q-49 26 -49 84t39 84q16 12 54 13h7q118 3 184 71q65 68 65 193t-68 191t-190 67z" />
    <glyph glyph-name="afii10052" unicode="&#x403;" horiz-adv-x="1147" 
d="M600 1577q-26 0 -50 15q-47 31 -44 79q1 26 32 76l95 153q28 44 48 58q19 14 45 14t50 -15q47 -31 44 -79q-1 -26 -32 -76l-95 -152q-28 -44 -48 -58q-19 -14 -45 -15zM411 142q-1 -68 -23 -109t-88 -41t-94 50q-17 31 -17 100v1181q0 71 32 103t104 32h637q63 0 99 -20
t36 -78t-36 -78t-99 -20h-551v-1120z" />
    <glyph glyph-name="afii10053" unicode="&#x404;" horiz-adv-x="1283" 
d="M138 729q0 314 34 414t113 179q148 148 375 148q243 0 375 -142q119 -128 119 -247q0 -49 -32 -79t-72 -30t-68 22t-62 100q-34 80 -99 130t-177 50t-198 -91q-49 -52 -66 -125t-21 -224h366q63 0 90 -15q45 -26 45 -84t-36 -78t-99 -20h-366q1 -159 19 -234t68 -128
q85 -91 197 -91q199 0 277 180q34 80 62 101q26 21 68 21t73 -30t31 -79q0 -119 -126 -254t-361 -135q-234 0 -382 148q-140 140 -145 374q-2 109 -2 219z" />
    <glyph glyph-name="afii10054" unicode="&#x405;" horiz-adv-x="1210" 
d="M610 184q119 0 197 59q79 59 79 164t-55 153t-161 63l-173 24q-176 26 -280 121q-103 95 -103 282t131 304t356 116q103 0 177 -18t164 -66t91 -113q0 -38 -26 -69q-52 -62 -163 5q-110 68 -244 68t-202 -62q-69 -62 -69 -158q0 -95 54 -143t159 -64l174 -27
q180 -27 270 -108q119 -109 119 -303t-145 -309t-376 -115t-396 98q-58 34 -80 62t-23 68q0 40 31 72q58 58 168 -17q64 -43 136 -65t190 -22z" />
    <glyph glyph-name="afii10055" unicode="&#x406;" horiz-adv-x="600" 
d="M411 142q-1 -68 -23 -109t-88 -41t-94 50q-17 31 -17 100v1174q1 68 23 109t88 41t94 -50q17 -31 17 -100v-1174z" />
    <glyph glyph-name="afii10056" unicode="&#x407;" horiz-adv-x="600" 
d="M411 142q-1 -68 -23 -109t-88 -41t-94 50q-17 31 -17 100v1174q1 68 23 109t88 41t94 -50q17 -31 17 -100v-1174zM215 1729q0 -47 -35 -82t-82 -35t-81 34q-33 34 -33 82t34 82t80 33q48 1 82 -33t35 -81zM389 1729q0 47 34 81t82 33q48 1 82 -33t34 -82t-34 -82t-81 -34
t-82 35t-35 82z" />
    <glyph glyph-name="afii10057" unicode="&#x408;" horiz-adv-x="1036" 
d="M760 1466q113 0 109 -150v-855q0 -146 -66 -256q-131 -217 -435 -217q-150 0 -265 83q-52 37 -52 85q1 48 29 76t64 27q36 1 95 -37q60 -38 145 -38q126 0 195 76t69 219v837q0 68 22 109q24 41 90 41z" />
    <glyph glyph-name="afii10058" unicode="&#x409;" horiz-adv-x="2164" 
d="M1284 686v-489h323q119 0 189 65q70 66 69 180q0 114 -70 179t-188 65h-323zM1284 1323v-440h335q211 1 339 -123t128 -318t-128 -318t-339 -124h-421q-72 0 -104 32t-31 103v1127h-430v-462q0 -453 -112 -631q-105 -169 -307 -169q-92 0 -117 14q-46 26 -46 84t46 85
q22 13 57 15q140 2 202 156t63 490v479q0 71 32 103t103 32h595q71 0 103 -32t32 -103z" />
    <glyph glyph-name="afii10059" unicode="&#x40a;" horiz-adv-x="2104" 
d="M1224 686v-489h322q119 0 189 65q69 66 69 180t-70 179t-188 65h-322zM1114 1466q66 0 93 -50q17 -31 17 -100v-433h335q211 1 339 -123t127 -318q0 -194 -128 -318t-338 -124h-421q-72 0 -104 32t-32 103v551h-591v-544q-1 -68 -23 -109t-88 -41t-94 50q-17 31 -17 100
v1174q1 68 23 109t88 41t94 -50q17 -31 17 -100v-433h591v433q0 69 17 100q29 50 95 50z" />
    <glyph glyph-name="afii10060" unicode="&#x40b;" horiz-adv-x="1527" 
d="M1092 1360q0 -58 -36 -78t-100 -20h-340v-357h295q207 0 334 -120t127 -316v-327q0 -69 -16 -100q-28 -50 -94 -50t-95 50q-16 29 -16 100v327q0 112 -69 176t-189 64h-277v-567q0 -69 -16 -100q-28 -50 -94 -50t-94 50q-17 31 -17 100v1120h-209q-63 0 -99 20t-36 78
t36 78t99 20h770q64 0 100 -20t36 -78z" />
    <glyph glyph-name="afii10061" unicode="&#x40c;" horiz-adv-x="1263" 
d="M664 1577q-26 0 -50 15q-47 31 -44 79q1 26 32 76l95 153q28 44 48 58t46 14t50 -15q47 -31 44 -79q-1 -26 -32 -76l-95 -152q-28 -44 -48 -58t-46 -15zM411 142q-1 -68 -23 -109t-88 -41t-94 50q-17 31 -17 100v1174q1 68 23 109t88 41t94 -50q17 -31 17 -100v-462h76
l450 546q29 36 51 51t55 15t69 -30t35 -64q0 -34 -11 -53t-38 -53l-428 -503l471 -570q49 -60 49 -101t-36 -71q-36 -29 -68 -29q-34 0 -56 15t-50 51l-487 591h-82v-507z" />
    <glyph glyph-name="uni040D" unicode="&#x40d;" horiz-adv-x="1455" 
d="M584 1972q26 0 46 -14t47 -58l95 -153q31 -50 32 -76q3 -48 -44 -79q-24 -15 -50 -15q-26 1 -46 15t-48 58l-95 152q-31 50 -32 76q-3 48 45 79q24 15 50 15zM1266 142q0 -68 -22 -109t-90 -41q-66 0 -93 50q-17 31 -17 100v908l-612 -961q-33 -50 -62 -74
q-29 -23 -72 -23t-76 33t-33 107v1184q1 68 23 109t88 41t94 -50q17 -31 17 -100v-907l613 960q33 51 62 74t72 23q44 0 76 -32t32 -108v-1184z" />
    <glyph glyph-name="afii10062" unicode="&#x40e;" horiz-adv-x="1063" 
d="M545 1755q83 0 167 74q65 56 115 0q57 -64 -24 -134q-114 -105 -258 -105t-258 105q-81 71 -28 131t119 3q84 -74 167 -74zM262 0q-62 0 -98 20t-37 78q0 59 45 84q26 14 83 14t88 22q30 22 57 75l25 48l-367 947q-25 66 -19 96q7 30 33 57t66 27q42 0 63 -18
q21 -16 30 -33t24 -55l283 -738l271 738q24 65 49 85q26 21 68 21t66 -27q24 -26 31 -56q6 -30 -17 -97l-378 -1007q-105 -281 -332 -281h-34z" />
    <glyph glyph-name="afii10145" unicode="&#x40f;" horiz-adv-x="1411" 
d="M816 -186q0 -70 -16 -101q-28 -50 -94 -50t-95 50q-16 29 -16 101v186h-270q-72 0 -104 32t-32 103v1181q1 68 23 109t88 41t94 -50q17 -31 17 -100v-1119h589v1119q0 68 22 109t90 41q66 0 93 -50q17 -31 17 -100v-1181q0 -71 -32 -103t-104 -32h-270v-186z" />
    <glyph glyph-name="afii10017" unicode="&#x410;" horiz-adv-x="1275" 
d="M1196 18q-26 -26 -78 -26q-53 0 -82 50q-9 17 -23 55l-73 196h-604l-73 -196q-24 -66 -50 -86q-25 -19 -67 -19t-75 36q-34 36 -22 88q5 21 18 55l446 1189q39 108 125 107t125 -107l446 -1189q25 -66 19 -96q-6 -31 -32 -57zM871 481l-233 638l-234 -638h467z" />
    <glyph glyph-name="afii10018" unicode="&#x411;" horiz-adv-x="1291" 
d="M411 686v-489h322q119 0 189 65q70 66 70 180t-71 179q-70 65 -188 65h-322zM411 1262v-379h334q211 1 339 -123t128 -318t-128 -318t-339 -124h-420q-72 0 -104 32t-32 103v1188q0 71 32 103t104 32h674q63 0 99 -20t37 -78q0 -58 -36 -78t-100 -20h-588z" />
    <glyph glyph-name="afii10019" unicode="&#x412;" horiz-adv-x="1357" 
d="M411 841h327q110 0 174 55t64 155t-65 155t-173 56h-327v-421zM759 644h-348v-447h348q113 0 176 62t63 162q0 99 -63 161t-176 62zM779 0h-454q-72 0 -104 32t-32 103v1188q0 71 32 103t104 32h432q203 0 321 -108t119 -291q0 -112 -58 -195t-139 -114q94 -38 156 -124
t64 -214q0 -196 -121 -304t-320 -108z" />
    <glyph glyph-name="afii10020" unicode="&#x413;" horiz-adv-x="1147" 
d="M411 142q-1 -68 -23 -109t-88 -41t-94 50q-17 31 -17 100v1181q0 71 32 103t104 32h637q63 0 99 -20t36 -78t-36 -78t-99 -20h-551v-1120z" />
    <glyph glyph-name="afii10021" unicode="&#x414;" horiz-adv-x="1432" 
d="M973 197v1065h-413v-313q1 -445 -153 -752h566zM39 -186v247q0 72 32 104t103 32h3q169 331 169 869v264q0 98 62 119q22 9 62 9h589q71 0 103 -32t32 -103v-1126h36q72 0 104 -32t31 -104v-247q0 -67 -16 -101q-28 -50 -95 -50t-94 50q-18 32 -16 101v186h-884v-186
q0 -70 -16 -101q-28 -50 -94 -50t-95 50q-11 20 -14 39q-2 19 -2 62z" />
    <glyph glyph-name="afii10022" unicode="&#x415;" horiz-adv-x="1231" 
d="M411 1262v-428h481q63 0 90 -15q45 -26 45 -84t-36 -78t-99 -20h-481v-440h585q63 0 90 -15q46 -26 46 -84t-46 -84q-27 -14 -90 -14h-671q-72 0 -104 32t-32 103v1188q0 71 32 103t104 32h671q63 0 99 -20q37 -20 37 -78t-46 -84q-27 -14 -90 -14h-585z" />
    <glyph glyph-name="afii10024" unicode="&#x416;" horiz-adv-x="1906" 
d="M953 -8q-113 0 -110 150v507h-72l-487 -591q-30 -36 -52 -51t-55 -15t-68 30t-35 64t10 53q11 19 39 54l471 570l-428 503q-28 34 -39 53t-11 53t36 65q36 29 69 29t55 -15t51 -51l449 -546h67v462q0 43 2 61q3 18 14 39q29 50 95 50t94 -50q16 -29 16 -100v-462h66
l450 546q30 36 52 51t54 15t68 -30t36 -64t-11 -53t-38 -53l-428 -503l471 -570q49 -60 49 -101q1 -41 -35 -71q-36 -29 -70 -29t-54 15q-22 15 -51 51l-487 591h-72v-507q0 -66 -16 -100q-28 -50 -95 -50z" />
    <glyph glyph-name="afii10025" unicode="&#x417;" horiz-adv-x="1271" 
d="M1111 1075q0 -226 -200 -322q108 -43 166 -130t58 -211q1 -192 -141 -308t-361 -116q-263 0 -409 158q-103 113 -103 223q0 50 30 80q32 29 74 29q41 0 71 -22t60 -95q75 -180 281 -180q124 0 200 65q75 64 75 176t-66 172t-192 59h-77q-59 0 -93 20q-34 21 -34 73t42 78
q26 13 85 14h80q111 0 172 59t61 163t-68 161q-69 58 -183 58q-212 0 -285 -199q-36 -98 -122 -98q-40 0 -72 30t-32 78q0 50 28 110t76 112q145 159 402 158q211 0 344 -108t133 -287z" />
    <glyph glyph-name="afii10026" unicode="&#x418;" horiz-adv-x="1455" 
d="M1266 142q0 -68 -22 -109t-90 -41q-66 0 -93 50q-17 31 -17 100v908l-612 -961q-33 -50 -62 -74q-29 -23 -72 -23t-76 33t-33 107v1184q1 68 23 109t88 41t94 -50q17 -31 17 -100v-907l613 960q33 51 62 74t72 23q44 0 76 -32t32 -108v-1184z" />
    <glyph glyph-name="afii10027" unicode="&#x419;" horiz-adv-x="1455" 
d="M728 1755q83 0 167 74q64 56 116 0q56 -63 -25 -134q-114 -105 -258 -105t-258 105q-81 71 -28 131t119 3q84 -74 167 -74zM1266 142q0 -68 -22 -109t-90 -41q-66 0 -93 50q-17 31 -17 100v908l-612 -961q-33 -50 -62 -74q-29 -23 -72 -23t-76 33t-33 107v1184
q1 68 23 109t88 41t94 -50q17 -31 17 -100v-907l613 960q33 51 62 74t72 23q44 0 76 -32t32 -108v-1184z" />
    <glyph glyph-name="afii10028" unicode="&#x41a;" horiz-adv-x="1263" 
d="M411 142q-1 -68 -23 -109t-88 -41t-94 50q-17 31 -17 100v1174q1 68 23 109t88 41t94 -50q17 -31 17 -100v-462h76l450 546q29 36 51 51t55 15t69 -30t35 -64q0 -34 -11 -53t-38 -53l-428 -503l471 -570q49 -60 49 -101t-36 -71q-36 -29 -68 -29q-34 0 -56 15t-50 51
l-487 591h-82v-507z" />
    <glyph glyph-name="afii10029" unicode="&#x41b;" horiz-adv-x="1473" 
d="M1174 -8q-114 0 -111 150v1120h-430v-462q0 -453 -112 -631q-105 -169 -307 -169q-92 0 -117 14q-46 26 -46 84t46 85q22 13 58 15q140 2 202 156t62 490v479q0 71 32 103t103 32h595q71 0 103 -32t32 -103v-1181q0 -69 -16 -100q-28 -50 -94 -50z" />
    <glyph glyph-name="afii10030" unicode="&#x41c;" horiz-adv-x="1665" 
d="M411 142q-1 -68 -23 -109t-88 -41t-94 50q-17 31 -17 100v1188q0 70 33 104q34 34 76 32q42 0 70 -16t52 -65l414 -843l411 843q25 49 53 65t70 16t75 -33t33 -103v-1188q0 -68 -22 -109t-90 -41q-66 0 -93 50q-17 31 -17 100v833l-308 -645q-38 -82 -112 -82t-114 82
l-309 645v-833z" />
    <glyph glyph-name="afii10031" unicode="&#x41d;" horiz-adv-x="1413" 
d="M411 835h591v481q0 68 22 109t90 41q66 0 93 -50q17 -31 17 -100v-1174q0 -68 -22 -109t-90 -41q-66 0 -93 50q-17 31 -17 100v496h-591v-496q-1 -68 -23 -109t-88 -41t-94 50q-17 31 -17 100v1174q1 68 23 109t88 41t94 -50q17 -31 17 -100v-481z" />
    <glyph glyph-name="afii10032" unicode="&#x41e;" horiz-adv-x="1325" 
d="M662 184q131 0 218 92q53 58 69 146t17 307q0 219 -17 308q-16 89 -69 146q-86 91 -218 91t-217 -91q-53 -56 -69 -145t-16 -309q0 -221 16 -309t69 -144q86 -92 217 -92zM138 729q0 314 34 414t113 179q148 148 377 148t377 -148q119 -119 137 -295q11 -98 11 -252
q0 -359 -35 -460t-113 -179q-148 -148 -377 -148t-377 148q-140 140 -145 374q-2 109 -2 219z" />
    <glyph glyph-name="afii10033" unicode="&#x41f;" horiz-adv-x="1413" 
d="M411 142q-1 -68 -23 -109t-88 -41t-94 50q-17 31 -17 100v1181q0 71 32 103t104 32h764q71 0 103 -32t32 -103v-1181q0 -68 -22 -109t-90 -41q-66 0 -93 50q-17 31 -17 100v1120h-591v-1120z" />
    <glyph glyph-name="afii10034" unicode="&#x420;" horiz-adv-x="1287" 
d="M411 1262v-490h319q118 0 188 65t70 180t-69 180q-70 65 -189 65h-319zM189 142v1181q0 71 32 103t104 32h417q211 0 339 -124t128 -318t-128 -317t-339 -124h-331v-433q-1 -68 -23 -109t-88 -41t-94 50q-17 31 -17 100z" />
    <glyph glyph-name="afii10035" unicode="&#x421;" horiz-adv-x="1287" 
d="M138 729q0 314 34 414t113 179q148 148 375 148q243 0 375 -142q119 -128 119 -247q0 -49 -32 -79t-72 -30t-68 22t-62 100q-34 80 -99 130t-177 50t-198 -91q-55 -61 -71 -149t-16 -305t16 -305t71 -149q85 -91 197 -91q199 0 277 180q34 80 62 101q26 21 68 21t73 -30
t31 -79q0 -119 -126 -254t-361 -135q-234 0 -382 148q-140 140 -145 374q-2 109 -2 219z" />
    <glyph glyph-name="afii10036" unicode="&#x422;" horiz-adv-x="1142" 
d="M571 -8q-113 0 -110 150v1120h-275q-63 0 -99 20t-36 78t36 78t99 20h770q64 0 100 -20t36 -78t-36 -78t-100 -20h-274v-1120q0 -66 -16 -100q-28 -50 -95 -50z" />
    <glyph glyph-name="afii10037" unicode="&#x423;" horiz-adv-x="1063" 
d="M262 0q-62 0 -98 20t-37 78q0 59 45 84q26 14 83 14t88 22q30 22 57 75l25 48l-367 947q-25 66 -19 96q7 30 33 57t66 27q42 0 63 -18q21 -16 30 -33t24 -55l283 -738l271 738q24 65 49 85q26 21 68 21t66 -27q24 -26 31 -56q6 -30 -17 -97l-378 -1007
q-105 -281 -332 -281h-34z" />
    <glyph glyph-name="afii10038" unicode="&#x424;" horiz-adv-x="1648" 
d="M322 775q0 -306 206 -382q76 -28 186 -31v826q-214 -7 -303 -108t-89 -305zM1327 775q0 204 -89 305t-303 108v-826q214 6 303 108t89 305zM824 -17q-113 0 -110 150v41q-318 10 -466 162t-148 440t148 438q148 152 466 162q0 43 2 61q3 18 14 39q28 50 94 50t95 -50
q16 -29 16 -100q317 -10 465 -162t148 -440t-147 -438q-147 -152 -466 -162v-41q0 -66 -16 -100q-28 -50 -95 -50z" />
    <glyph glyph-name="afii10039" unicode="&#x425;" horiz-adv-x="1140" 
d="M216 1466q36 0 59 -22t49 -68l246 -441l247 441q26 46 49 68t59 22t61 -15q56 -33 54 -91q-1 -32 -34 -91l-299 -519l321 -561q34 -59 35 -91q2 -58 -54 -91q-26 -15 -62 -15t-59 22t-48 68l-270 478l-269 -478q-26 -46 -49 -68t-59 -22t-61 15q-56 33 -54 91q1 32 35 91
l321 560l-299 520q-34 59 -35 91q-2 58 55 91q25 15 61 15z" />
    <glyph glyph-name="afii10040" unicode="&#x426;" horiz-adv-x="1463" 
d="M1396 -186q0 -69 -22 -110t-90 -41q-66 0 -93 50q-18 32 -16 101v186h-850q-72 0 -104 32t-32 103v1181q1 68 23 109t88 41t94 -50q17 -31 17 -100v-1119h589v1119q0 68 22 109t90 41q66 0 93 -50q17 -31 17 -100v-1119h39q71 0 103 -32t32 -104v-247z" />
    <glyph glyph-name="afii10041" unicode="&#x427;" horiz-adv-x="1324" 
d="M913 142v429q-253 -48 -351 -48q-98 1 -152 13t-104 40q-164 93 -164 307v433q0 68 22 109t90 41q66 0 93 -50q17 -31 17 -100v-380q0 -214 225 -214q128 0 324 40v554q1 68 23 109t88 41t94 -50q17 -31 17 -100v-1174q-1 -68 -23 -109t-88 -41t-94 50q-17 31 -17 100z
" />
    <glyph glyph-name="afii10042" unicode="&#x428;" horiz-adv-x="2031" 
d="M1732 1466q113 0 110 -150v-1181q0 -71 -32 -103t-103 -32h-1382q-72 0 -104 32t-32 103v1181q1 68 23 109t88 41t94 -50q17 -31 17 -100v-1119h494v1119q1 68 23 109t88 41q113 0 110 -150v-1119h495v1119q0 66 16 100q28 50 95 50z" />
    <glyph glyph-name="afii10043" unicode="&#x429;" horiz-adv-x="2081" 
d="M1732 1466q113 0 110 -150v-1119h37q71 0 103 -32t32 -104v-247q0 -70 -16 -101q-28 -50 -94 -50t-95 50q-16 29 -16 101v186h-1468q-72 0 -104 32t-32 103v1181q1 68 23 109t88 41t94 -50q17 -31 17 -100v-1119h494v1119q1 68 23 109t88 41q113 0 110 -150v-1119h495
v1119q0 66 16 100q28 50 95 50z" />
    <glyph glyph-name="afii10044" unicode="&#x42a;" horiz-adv-x="1514" 
d="M634 686v-489h322q119 0 189 65q69 66 69 180t-70 179t-188 65h-322zM413 1262h-227q-63 0 -99 20t-36 78t36 78t99 20h313q71 0 103 -32t32 -103v-440h335q211 1 339 -123t128 -318t-128 -318t-339 -124h-421q-72 0 -104 32t-31 103v1127z" />
    <glyph glyph-name="afii10045" unicode="&#x42b;" horiz-adv-x="1798" 
d="M411 686v-489h322q119 0 189 65q70 66 70 180t-71 179q-70 65 -188 65h-322zM300 1466q66 0 94 -50q17 -31 17 -100v-433h334q211 1 339 -123t128 -318t-128 -318t-339 -124h-420q-72 0 -104 32t-32 103v1181q0 69 17 100q28 50 94 50zM1498 -8q-113 0 -110 150v1174
q0 43 2 61q3 18 14 39q28 50 94 50t94 -50q17 -31 17 -100v-1174q-1 -68 -23 -109t-88 -41z" />
    <glyph glyph-name="afii10046" unicode="&#x42c;" horiz-adv-x="1291" 
d="M411 686v-489h322q119 0 189 65q70 66 70 180t-71 179q-70 65 -188 65h-322zM300 1466q66 0 94 -50q17 -31 17 -100v-433h334q211 1 339 -123t128 -318t-128 -318t-339 -124h-420q-72 0 -104 32t-32 103v1181q0 69 17 100q28 50 94 50z" />
    <glyph glyph-name="afii10047" unicode="&#x42d;" horiz-adv-x="1283" 
d="M1145 729q0 -314 -34 -414t-113 -179q-148 -148 -375 -148q-243 0 -375 142q-119 128 -119 247q0 49 31 79t73 30t69 -22t61 -100q34 -80 99 -130q66 -50 178 -50t197 91q50 53 67 128t20 234h-366q-63 0 -99 20t-36 78t36 78t99 21h366q-2 152 -20 224t-67 125
q-85 91 -197 91t-178 -50t-100 -130t-61 -101t-69 -21t-73 30q-30 30 -30 79q0 119 126 254t361 135q234 0 382 -148q140 -140 145 -374q2 -109 2 -219z" />
    <glyph glyph-name="afii10048" unicode="&#x42e;" horiz-adv-x="1861" 
d="M1200 184q130 0 217 92q53 58 69 146t17 307q0 219 -16 308t-70 146q-85 91 -217 91t-217 -91q-53 -56 -69 -145t-17 -309q1 -221 17 -309t69 -144q87 -92 217 -92zM411 142q-1 -68 -23 -109t-88 -41t-94 50q-17 31 -17 100v1174q1 68 23 109t88 41t94 -50
q17 -31 17 -100v-480h265q2 191 30 294t116 192q148 148 377 148t378 -148q117 -117 137 -295q15 -130 11 -328q-3 -197 -11 -268q-19 -177 -137 -295q-148 -148 -377 -148t-378 148q-90 89 -117 195t-29 306h-265v-495z" />
    <glyph glyph-name="afii10049" unicode="&#x42f;" horiz-adv-x="1336" 
d="M1036 -8q-113 0 -110 150v433h-302l-282 -493q-26 -46 -49 -68t-59 -22t-61 15q-56 33 -54 91q1 32 35 91l243 427q-126 46 -198 152t-72 249q0 193 128 317t338 124h419q72 0 104 -32t31 -103v-1181q-1 -68 -23 -109t-88 -41zM926 1262h-320q-120 0 -189 -65t-69 -179
t69 -180t189 -66h320v490z" />
    <glyph glyph-name="afii10065" unicode="&#x430;" horiz-adv-x="1085" 
d="M484 162q128 0 182 51t54 163v82h-246q-185 0 -185 -148t195 -148zM825 -8q-95 0 -99 104q-61 -60 -122 -84t-157 -23q-188 -1 -275 89t-87 226t94 219t265 83h276v65q0 103 -52 153t-162 50t-202 -70q-36 -28 -75 -28t-63 28t-23 64q-1 62 103 122t286 60t290 -90
q108 -91 108 -267v-559q0 -67 -16 -94q-26 -48 -89 -48z" />
    <glyph glyph-name="afii10066" unicode="&#x431;" horiz-adv-x="1107" 
d="M566 845q-225 0 -225 -334q0 -195 72 -274q57 -61 155 -61t153 63q36 39 51 101t14 171q0 194 -61 264t-159 70zM604 1022q391 0 391 -506q0 -151 -31 -247t-96 -164q-113 -118 -300 -117q-135 0 -231 59t-139 166q-66 116 -66 412t12 381q22 160 61 226t108 123
q69 55 203 85t236 30t129 -14q44 -26 44 -82t-35 -75q-35 -20 -96 -20q-286 0 -393 -96q-51 -48 -70 -121t-19 -177q39 61 117 99t175 38z" />
    <glyph glyph-name="afii10067" unicode="&#x432;" horiz-adv-x="1119" 
d="M683 0h-389q-68 0 -98 30t-30 98v782q0 69 30 99t98 29h374q143 0 229 -76t86 -202q0 -154 -147 -224q164 -73 163 -243q0 -134 -85 -214q-86 -79 -231 -79zM621 879h-246v-267h246q75 0 114 34t39 98t-40 100t-113 35zM375 451v-291h258q74 0 116 40t42 108t-42 105
q-42 38 -116 38h-258z" />
    <glyph glyph-name="afii10068" unicode="&#x433;" horiz-adv-x="884" 
d="M375 134q0 -142 -105 -142q-64 0 -84 40t-20 102v776q0 69 30 99t98 29h428q61 0 85 -14q43 -26 43 -80t-34 -74t-94 -20h-347v-716z" />
    <glyph glyph-name="afii10069" unicode="&#x434;" horiz-adv-x="1197" 
d="M774 188v662h-290v-129q-2 -193 -28 -315t-74 -218h392zM1138 -140q0 -141 -105 -143q-63 0 -89 50q-15 31 -15 93v140h-677v-140q0 -62 -20 -102t-84 -40t-90 49q-15 31 -15 93v200q0 69 30 99t92 29q102 191 114 409q6 106 6 313q0 69 29 99q30 30 99 29h442
q69 0 99 -30t29 -98v-722h27q68 0 98 -30t30 -98v-200z" />
    <glyph glyph-name="afii10070" unicode="&#x435;" horiz-adv-x="1100" 
d="M786 604q-6 91 -30 146q-24 54 -78 90t-126 36t-126 -34q-101 -67 -107 -238h467zM319 459q-1 -135 69 -214t193 -79t204 65q47 38 83 38t62 -27q27 -27 26 -62q0 -59 -102 -126q-102 -66 -291 -66q-188 0 -319 120t-131 392q1 272 119 411t320 139t318 -130
q117 -131 122 -341q2 -61 -26 -91t-95 -29h-552z" />
    <glyph glyph-name="afii10072" unicode="&#x436;" horiz-adv-x="1511" 
d="M651 904q0 141 105 143q63 0 89 -50q15 -31 15 -93v-278h44l314 360q88 100 162 34q30 -28 30 -68t-48 -92l-289 -318l319 -364q48 -55 48 -94t-30 -66q-30 -26 -62 -26q-31 0 -51 13t-50 47l-343 391h-44v-309q0 -62 -20 -102t-84 -40t-84 40t-21 102v309h-44l-343 -391
q-30 -34 -50 -47t-51 -13t-61 26t-30 66q0 39 48 94l318 364l-288 318q-90 97 -16 162q28 25 59 25q31 1 51 -13t50 -48l313 -360h44v278z" />
    <glyph glyph-name="afii10073" unicode="&#x437;" horiz-adv-x="1001" 
d="M435 452q-111 0 -109 79q0 47 30 63t79 17h59q78 0 122 35t43 99q0 134 -194 135q-96 0 -161 -40t-97 -40q-31 0 -55 26q-24 24 -24 68t60 84q112 73 289 73q176 1 282 -75t106 -206q0 -76 -41 -137t-112 -90q78 -29 124 -93t46 -150q0 -141 -113 -227q-113 -85 -297 -85
t-307 81q-69 45 -69 90t26 71t62 27t81 -31q87 -60 192 -60q106 0 163 38q56 38 56 108t-48 104q-48 36 -132 36h-61z" />
    <glyph glyph-name="afii10074" unicode="&#x438;" horiz-adv-x="1182" 
d="M1017 134q0 -142 -105 -142q-64 0 -84 40t-20 102v562l-404 -605q-36 -53 -64 -76t-70 -23t-73 30t-31 105v777q0 62 20 102t84 40q63 0 89 -49q15 -31 16 -93v-561l404 603q37 54 65 77t70 23t72 -30q31 -32 31 -105v-777z" />
    <glyph glyph-name="afii10075" unicode="&#x439;" horiz-adv-x="1182" 
d="M592 1381q83 0 167 74q66 57 115 0q57 -64 -24 -134q-114 -104 -258 -104t-258 104q-81 71 -27 131q54 61 118 3q84 -74 167 -74zM1017 134q0 -142 -105 -142q-64 0 -84 40t-20 102v562l-404 -605q-36 -53 -64 -76t-70 -23t-73 30t-31 105v777q0 62 20 102t84 40
q63 0 89 -49q15 -31 16 -93v-561l404 603q37 54 65 77t70 23t72 -30q31 -32 31 -105v-777z" />
    <glyph glyph-name="afii10076" unicode="&#x43a;" horiz-adv-x="1031" 
d="M375 134q0 -142 -105 -142q-64 0 -84 40t-20 102v770q0 62 20 102t84 40q63 0 89 -49q15 -31 16 -93v-278h49l313 360q30 34 50 47q19 13 51 13t62 -26q30 -28 30 -68t-48 -92l-289 -318l318 -364q48 -55 48 -94t-30 -66q-30 -26 -61 -26t-51 13t-50 47l-343 391h-49
v-309z" />
    <glyph glyph-name="afii10077" unicode="&#x43b;" horiz-adv-x="1154" 
d="M35 91q0 53 41 78q14 9 46 13q156 22 156 417v311q0 69 29 99q30 30 99 29h454q68 0 98 -30t30 -98v-776q0 -62 -20 -102t-84 -40t-84 40t-21 102v716h-300v-295q0 -367 -126 -484q-76 -71 -197 -71t-121 91z" />
    <glyph glyph-name="afii10078" unicode="&#x43c;" horiz-adv-x="1368" 
d="M375 134q0 -142 -105 -142q-64 0 -84 40t-20 102v778q0 72 32 104t74 31q42 0 72 -27t64 -84l276 -499l277 499q33 57 62 84q31 27 73 27q42 1 74 -31t32 -104v-778q0 -62 -20 -102t-84 -40t-84 40t-21 102v511l-193 -361q-26 -49 -52 -71t-64 -22t-64 22t-52 71
l-193 361v-511z" />
    <glyph glyph-name="afii10079" unicode="&#x43d;" horiz-adv-x="1165" 
d="M375 134q0 -142 -105 -142q-64 0 -84 40t-20 102v770q0 62 20 102t84 40q63 0 89 -49q15 -31 16 -93v-279h416v279q1 62 21 102t83 40t89 -49q15 -31 15 -93v-770q-1 -62 -21 -102t-83 -40t-83 40t-21 102v308h-416v-308z" />
    <glyph glyph-name="afii10080" unicode="&#x43e;" horiz-adv-x="1099" 
d="M118 519q0 143 25 239t97 170q119 123 310 123t310 -123q70 -74 96 -170t26 -239t-26 -239t-96 -169q-119 -123 -310 -123t-310 123q-72 74 -97 169t-25 239zM550 862q-93 0 -144 -51t-65 -121t-14 -172q0 -100 14 -170t57 -112q58 -60 152 -60t144 52t64 120
q14 70 15 170q0 100 -14 172q-14 70 -65 121t-144 51z" />
    <glyph glyph-name="afii10081" unicode="&#x43f;" horiz-adv-x="1164" 
d="M375 134q0 -142 -105 -142q-64 0 -84 40t-20 102v776q0 69 30 99t98 29h576q69 0 99 -30t29 -98v-776q0 -62 -20 -102t-84 -40t-84 40t-20 102v716h-415v-716z" />
    <glyph glyph-name="afii10082" unicode="&#x440;" horiz-adv-x="1131" 
d="M805 520q0 203 -56 273t-159 70q-191 0 -212 -236q-4 -46 -4 -107q0 -204 55 -274t161 -70q153 0 193 145q22 80 22 199zM375 -285q0 -142 -105 -142q-64 0 -84 40t-20 102v1189q0 68 23 106t81 38q97 0 104 -115q99 119 266 119t259 -93q69 -71 92 -179t23 -261
t-23 -261t-92 -177q-93 -93 -259 -93t-265 117v-390z" />
    <glyph glyph-name="afii10083" unicode="&#x441;" horiz-adv-x="992" 
d="M113 519q0 398 288 502q80 29 189 29t211 -65q49 -33 75 -61t26 -64t-28 -66q-28 -29 -65 -29q-36 1 -96 49t-140 48q-123 0 -187 -86t-64 -257t65 -257t186 -86q77 0 139 49t98 49t64 -30t28 -66t-27 -65t-74 -60q-102 -65 -211 -65t-189 29q-288 104 -288 502z" />
    <glyph glyph-name="afii10084" unicode="&#x442;" horiz-adv-x="931" 
d="M769 850h-199v-716q0 -62 -20 -102t-84 -40t-84 40t-21 102v716h-198q-59 0 -93 20t-35 74q0 54 43 80q24 14 85 14h606q61 0 85 -14q43 -26 43 -80q-1 -54 -35 -74t-93 -20z" />
    <glyph glyph-name="afii10085" unicode="&#x443;" horiz-adv-x="919" 
d="M156 1047q38 1 60 -25q21 -26 37 -76l205 -636l209 636q16 50 37 75q22 25 60 25t66 -18q28 -19 38 -50t-14 -94l-378 -1092q-74 -206 -279 -206q-128 0 -126 96q0 91 101 93q49 1 81 25t53 85l50 153l-290 846q-24 67 -14 96t38 48t66 19z" />
    <glyph glyph-name="afii10086" unicode="&#x444;" horiz-adv-x="1449" 
d="M827 869v-700q151 5 229 94t79 256q-1 167 -79 256t-229 94zM623 169v700q-151 -5 -229 -95t-78 -256q0 -168 78 -256t229 -93zM829 -286q-1 -62 -21 -102t-83 -40t-83 40t-21 102v277q-244 15 -379 146q-136 131 -136 382t136 382t379 147v276q1 62 21 102t83 40t83 -40
t21 -102v-276q244 -14 379 -146t135 -383t-135 -382t-379 -146v-277z" />
    <glyph glyph-name="afii10087" unicode="&#x445;" horiz-adv-x="921" 
d="M839 958q0 -40 -36 -98l-215 -338l220 -344q36 -58 36 -98t-38 -64t-70 -24t-52 18t-48 61l-174 286l-176 -286q-27 -43 -48 -61q-20 -18 -52 -18t-59 17q-49 31 -49 71t36 98l221 343l-216 339q-36 58 -36 98q1 40 39 64t69 24t52 -17q21 -18 48 -61l171 -280l169 280
q27 43 47 61t52 18t60 -18q49 -31 49 -71z" />
    <glyph glyph-name="afii10088" unicode="&#x446;" horiz-adv-x="1212" 
d="M788 904q0 141 105 143q63 0 89 -50q15 -31 15 -93v-716h28q69 0 99 -30t29 -98v-200q-1 -62 -21 -102t-83 -40t-90 49q-15 31 -15 93v140h-650q-68 0 -98 30t-30 98v776q0 62 20 102t84 40q63 0 89 -49q15 -31 16 -93v-716h413v716z" />
    <glyph glyph-name="afii10089" unicode="&#x447;" horiz-adv-x="1104" 
d="M730 904q0 62 20 102t84 40t90 -49q15 -31 15 -93v-770q-1 -62 -21 -102t-83 -40t-84 40t-21 102v250q-170 -34 -304 -34t-216 75t-82 214v265q0 62 20 102t84 40q63 0 90 -49q15 -31 15 -93v-212q0 -156 160 -155q93 -1 233 26v341z" />
    <glyph glyph-name="afii10090" unicode="&#x448;" horiz-adv-x="1660" 
d="M1286 904q0 141 105 143q63 0 89 -50q15 -31 15 -93v-776q0 -68 -30 -98t-98 -30h-1073q-68 0 -98 30t-30 98v776q0 62 20 102t84 40q63 0 89 -49q15 -31 16 -93v-716h351v716q0 62 20 102t84 40q63 0 90 -49q15 -31 15 -93v-716h351v716z" />
    <glyph glyph-name="afii10091" unicode="&#x449;" horiz-adv-x="1712" 
d="M1653 -140q0 -141 -105 -143q-63 0 -89 50q-15 31 -15 93v140h-1150q-68 0 -98 30t-30 98v776q0 62 20 102t84 40q63 0 89 -49q15 -31 16 -93v-716h351v716q0 62 20 102t84 40q63 0 90 -49q15 -31 15 -93v-716h351v716q0 141 105 143q63 0 89 -50q15 -31 15 -93v-716h30
q69 0 99 -30t29 -98v-200z" />
    <glyph glyph-name="afii10092" unicode="&#x44a;" horiz-adv-x="1192" 
d="M505 169h240q81 0 124 40q43 41 43 115t-43 114t-124 40h-240v-309zM296 850h-133q-59 0 -93 20t-35 74q0 54 43 80q24 14 85 14h214q69 0 99 -30t29 -98v-264h278q152 0 245 -90t93 -232q1 -144 -93 -234t-245 -90h-359q-68 0 -98 30t-30 98v722z" />
    <glyph glyph-name="afii10093" unicode="&#x44b;" horiz-adv-x="1505" 
d="M1130 904q0 141 105 143q63 0 89 -50q15 -31 15 -93v-770q-1 -62 -21 -102t-83 -40t-83 40t-22 102v770zM653 0h-359q-68 0 -98 30t-30 98v776q0 62 20 102t84 40q63 0 89 -49q15 -31 16 -93v-258h278q152 0 245 -90t93 -232q1 -144 -93 -234t-245 -90zM375 169h240
q81 0 124 40q43 41 43 115t-43 114t-124 40h-240v-309z" />
    <glyph glyph-name="afii10094" unicode="&#x44c;" horiz-adv-x="1062" 
d="M653 0h-359q-68 0 -98 30t-30 98v776q0 62 20 102t84 40q63 0 89 -49q15 -31 16 -93v-258h278q152 0 245 -90t93 -232q1 -144 -93 -234t-245 -90zM375 169h240q81 0 124 40q43 41 43 115t-43 114t-124 40h-240v-309z" />
    <glyph glyph-name="afii10095" unicode="&#x44d;" horiz-adv-x="993" 
d="M429 436q-128 0 -128 94q0 54 43 80q24 14 85 15h236q-11 88 -57 148q-68 89 -189 89q-80 0 -140 -48q-61 -48 -97 -49t-64 29t-28 66t26 65t75 60q101 66 211 66q205 0 335 -119q67 -60 105 -166t39 -247q0 -396 -290 -502q-81 -29 -189 -29t-211 65q-47 31 -74 60
t-27 65t29 67q59 61 141 -4t159 -65q122 0 189 90q49 65 59 170h-238z" />
    <glyph glyph-name="afii10096" unicode="&#x44e;" horiz-adv-x="1540" 
d="M1213 518q0 100 -14 172q-15 70 -65 121t-144 51t-144 -51t-64 -121t-15 -172q0 -100 14 -170t58 -112q58 -60 151 -60t144 52t65 120q14 70 14 170zM375 134q0 -142 -105 -142q-64 0 -84 40t-20 102v770q0 62 20 102t84 40q63 0 89 -49q15 -31 16 -93v-282h186
q12 199 119 306q119 123 310 123t310 -123q71 -74 97 -170q25 -96 25 -239t-26 -239t-96 -169q-119 -123 -310 -123t-310 123q-61 62 -88 141t-33 189h-184v-307z" />
    <glyph glyph-name="afii10097" unicode="&#x44f;" horiz-adv-x="1123" 
d="M743 555v315h-243q-79 0 -124 -42q-44 -42 -44 -115t44 -115t120 -43h247zM125 720q0 141 94 230t244 88h361q69 0 99 -30t29 -98v-776q0 -62 -20 -102t-84 -40t-84 40t-21 102v255h-226l-200 -318q-27 -43 -47 -61t-52 -18t-59 17q-49 31 -49 71t35 98l162 256
q-85 37 -133 112t-49 174z" />
    <glyph glyph-name="uni0450" unicode="&#x450;" horiz-adv-x="1100" 
d="M444 1280l-95 153q-31 50 -32 75q-3 48 44 79q55 33 99 -1q17 -12 45 -56l95 -153q31 -50 32 -75q3 -48 -44 -79q-54 -32 -99 1q-17 12 -45 56zM786 604q-6 91 -30 146q-24 54 -78 90t-126 36t-126 -34q-101 -67 -107 -238h467zM319 459q-1 -135 69 -214t193 -79t204 65
q47 38 83 38t62 -27q27 -27 26 -62q0 -59 -102 -126q-102 -66 -291 -66q-188 0 -319 120t-131 392q1 272 119 411t320 139t318 -130q117 -131 122 -341q2 -61 -26 -91t-95 -29h-552z" />
    <glyph glyph-name="afii10071" unicode="&#x451;" horiz-adv-x="1100" 
d="M449 1346q0 -47 -35 -82t-82 -35t-81 34t-34 82q0 47 34 81q33 34 81 34t82 -34t35 -80zM784 1460q48 0 81 -34q34 -34 34 -80q0 -48 -34 -82t-81 -35q-47 0 -82 35t-34 82q0 46 34 80t82 34zM786 604q-6 91 -30 146q-24 54 -78 90t-126 36t-126 -34q-101 -67 -107 -238
h467zM319 459q-1 -135 69 -214t193 -79t204 65q47 38 83 38t62 -27q27 -27 26 -62q0 -59 -102 -126q-102 -66 -291 -66q-188 0 -319 120t-131 392q1 272 119 411t320 139t318 -130q117 -131 122 -341q2 -61 -26 -91t-95 -29h-552z" />
    <glyph glyph-name="afii10099" unicode="&#x452;" horiz-adv-x="1164" 
d="M821 1224q0 -80 -109 -80h-336v-240q108 114 270 114t262 -98t101 -289v-767q0 -169 -123 -247q-65 -41 -159 -41h-20q-132 0 -130 89q0 51 32 69t85 19q105 3 106 120v726q0 116 -58 173t-152 57q-94 -1 -154 -57t-60 -170v-468q0 -142 -105 -142q-63 0 -83 40t-21 102
v1010h-24q-109 0 -109 79t109 81h24v20q1 62 21 102t83 40t83 -40t22 -102v-20h336q109 0 109 -80z" />
    <glyph glyph-name="afii10100" unicode="&#x453;" horiz-adv-x="884" 
d="M657 1433l-95 -153q-28 -44 -48 -58q-46 -32 -94 0t-45 80q1 26 32 75l95 153q28 44 48 58q46 32 94 0t45 -80q-1 -25 -32 -75zM375 134q0 -142 -105 -142q-64 0 -84 40t-20 102v776q0 69 30 99t98 29h428q61 0 85 -14q43 -26 43 -80t-34 -74t-94 -20h-347v-716z" />
    <glyph glyph-name="afii10101" unicode="&#x454;" horiz-adv-x="993" 
d="M113 519q0 396 289 502q80 29 189 29t211 -65q49 -33 75 -61t26 -64q-1 -36 -29 -66q-28 -29 -64 -29q-36 1 -96 49t-140 48q-122 0 -189 -89q-45 -60 -56 -148h235q61 0 85 -15q43 -26 43 -80t-34 -74t-94 -20h-237q9 -105 58 -170q68 -90 189 -90q78 0 140 49t97 49
t63 -30t29 -66q0 -36 -27 -65t-74 -60q-102 -65 -211 -65q-206 1 -335 118q-67 60 -105 166t-38 247z" />
    <glyph glyph-name="afii10102" unicode="&#x455;" horiz-adv-x="1022" 
d="M933 316q1 -158 -119 -243t-328 -85t-347 94q-57 39 -57 85t30 71q57 48 152 -14q94 -62 218 -62q248 1 248 147q0 110 -140 123l-167 15q-307 28 -307 285q0 148 111 234q112 85 275 85t285 -58q47 -23 68 -44q19 -23 19 -57t-25 -62q-27 -26 -56 -26t-73 21
q-112 55 -209 55t-145 -38t-48 -96q0 -59 34 -87q36 -28 109 -34l164 -16q308 -30 308 -293z" />
    <glyph glyph-name="afii10103" unicode="&#x456;" horiz-adv-x="540" 
d="M144 1377q0 52 37 89t89 37t89 -37t37 -89t-37 -89t-89 -37t-89 37t-37 89zM375 134q0 -142 -105 -142q-64 0 -84 40t-20 102v770q0 62 20 102t84 40q63 0 89 -49q15 -31 16 -93v-770z" />
    <glyph glyph-name="afii10104" unicode="&#x457;" horiz-adv-x="540" 
d="M375 134q0 -142 -105 -142q-64 0 -84 40t-20 102v770q0 62 20 102t84 40q63 0 89 -49q15 -31 16 -93v-770zM185 1346q0 -47 -34 -82q-33 -35 -81 -35t-82 34t-34 82q0 47 33 81t81 34t83 -34q34 -34 34 -80zM472 1460q48 0 82 -34t33 -80q0 -48 -34 -82q-33 -34 -81 -35
q-48 0 -82 35t-35 82q1 46 35 80t82 34z" />
    <glyph glyph-name="afii10105" unicode="&#x458;" horiz-adv-x="540" 
d="M73 -424q-130 0 -130 89q0 51 42 74q23 12 75 14q106 3 106 120v1031q0 62 20 102t84 40q63 0 89 -49q15 -31 16 -93v-1040q0 -169 -123 -247q-65 -41 -159 -41h-20zM144 1377q0 52 37 89t89 37t89 -37t37 -89t-37 -89t-89 -37t-89 37t-37 89z" />
    <glyph glyph-name="afii10106" unicode="&#x459;" horiz-adv-x="1726" 
d="M1038 169h241q81 0 124 40q43 41 43 115t-43 114t-124 40h-241v-309zM35 90q0 86 104 88q39 2 67 18q111 63 108 403v311q0 69 30 99t98 29h468q69 0 99 -30t29 -98v-264h279q152 0 245 -90t93 -232q0 -144 -94 -234t-244 -90h-360q-69 0 -99 30t-29 98v722h-312v-295
q0 -293 -73 -411q-36 -60 -82 -90q-82 -54 -226 -54q-101 0 -101 90z" />
    <glyph glyph-name="afii10107" unicode="&#x45a;" horiz-adv-x="1682" 
d="M994 169h241q81 0 124 40q43 41 43 115t-43 114t-124 40h-241v-309zM785 904q0 141 105 143q63 0 89 -50q15 -31 15 -93v-258h279q152 0 245 -90t93 -232q0 -144 -94 -234t-244 -90h-360q-69 0 -99 30t-29 98v350h-410v-344q0 -142 -105 -142q-64 0 -84 40t-20 102v770
q0 62 20 102t84 40q63 0 89 -49q15 -31 16 -93v-258h410v258z" />
    <glyph glyph-name="afii10108" unicode="&#x45b;" horiz-adv-x="1164" 
d="M821 1224q0 -80 -109 -80h-336v-240q108 114 270 114t262 -98t101 -289v-497q0 -142 -105 -142q-64 0 -84 40t-20 102v465q0 116 -58 173t-152 57q-94 -1 -154 -57t-60 -170v-468q0 -142 -105 -142q-63 0 -83 40t-21 102v1010h-24q-109 0 -109 79t109 81h24v20
q1 62 21 102t83 40t83 -40t22 -102v-20h336q109 0 109 -80z" />
    <glyph glyph-name="afii10109" unicode="&#x45c;" horiz-adv-x="1031" 
d="M754 1433l-96 -153q-28 -44 -48 -58q-46 -32 -94 0t-45 80q1 26 32 75l95 153q28 44 48 58q46 32 94 0t45 -80q0 -25 -31 -75zM375 134q0 -142 -105 -142q-64 0 -84 40t-20 102v770q0 62 20 102t84 40q63 0 89 -49q15 -31 16 -93v-278h49l313 360q30 34 50 47
q19 13 51 13t62 -26q30 -28 30 -68t-48 -92l-289 -318l318 -364q48 -55 48 -94t-30 -66q-30 -26 -61 -26t-51 13t-50 47l-343 391h-49v-309z" />
    <glyph glyph-name="uni045D" unicode="&#x45d;" horiz-adv-x="1182" 
d="M479 1280l-95 153q-31 50 -32 75q-3 48 44 79q54 32 99 -1q17 -12 45 -56l95 -153q31 -50 32 -75q3 -48 -44 -79q-55 -33 -99 1q-17 12 -45 56zM1017 134q0 -142 -105 -142q-64 0 -84 40t-20 102v562l-404 -605q-36 -53 -64 -76t-70 -23t-73 30t-31 105v777q0 62 20 102
t84 40q63 0 89 -49q15 -31 16 -93v-561l404 603q37 54 65 77t70 23t72 -30q31 -32 31 -105v-777z" />
    <glyph glyph-name="afii10110" unicode="&#x45e;" horiz-adv-x="919" 
d="M458 1381q83 0 167 74q66 57 115 0q57 -64 -24 -134q-114 -104 -258 -104t-258 104q-81 71 -27 131q54 61 118 3q84 -74 167 -74zM156 1047q38 1 60 -25q21 -26 37 -76l205 -636l209 636q16 50 37 75q22 25 60 25t66 -18q28 -19 38 -50t-14 -94l-378 -1092
q-74 -206 -279 -206q-128 0 -126 96q0 91 101 93q49 1 81 25t53 85l50 153l-290 846q-24 67 -14 96t38 48t66 19z" />
    <glyph glyph-name="afii10193" unicode="&#x45f;" horiz-adv-x="1163" 
d="M478 -140v140h-184q-68 0 -98 30t-30 98v776q0 62 20 102t84 40q63 0 89 -49q15 -31 16 -93v-716h413v716q0 141 105 143q63 0 89 -50q15 -31 15 -93v-776q1 -68 -29 -98t-99 -30h-182v-140q-1 -62 -21 -102t-83 -41q-105 0 -105 143z" />
    <glyph glyph-name="afii10146" unicode="&#x462;" horiz-adv-x="1330" 
d="M451 686v-489h322q119 0 189 65q70 66 70 180t-71 179q-70 65 -188 65h-322zM229 135v971h-60q-57 0 -89 18t-31 70q-1 52 31 70t89 18h60v34q1 68 23 109t88 41t94 -50q17 -31 17 -100v-34h240q57 0 89 -18t32 -70t-32 -70t-89 -18h-240v-223h334q211 1 339 -123
t128 -318t-128 -318t-339 -124h-420q-72 0 -104 32t-32 103z" />
    <glyph glyph-name="afii10194" unicode="&#x463;" horiz-adv-x="1192" 
d="M506 169h239q81 0 124 40q43 41 43 115t-43 114t-124 40h-239v-309zM676 860h-170v-214h278q151 0 244 -89t93 -233t-93 -234t-244 -90h-359q-69 0 -99 30t-29 98v732h-134q-59 0 -93 20t-35 74q0 54 43 80q24 14 85 15h134v275q1 62 21 102t83 40t83 -40t22 -102v-275
h170q61 0 85 -15q43 -26 43 -80t-34 -74t-94 -20z" />
    <glyph glyph-name="afii10147" unicode="&#x472;" horiz-adv-x="1325" 
d="M662 1274q-132 0 -217 -91q-47 -51 -65 -123t-21 -227h606q-3 155 -21 227t-64 123q-86 91 -218 91zM662 184q131 0 218 92q48 51 65 125t20 236h-606q2 -163 20 -237t66 -124q86 -92 217 -92zM138 729q0 314 34 414t113 179q148 148 377 148t377 -148q119 -119 137 -295
q11 -98 11 -252q0 -359 -35 -460t-113 -179q-148 -148 -377 -148t-377 148q-140 140 -145 374q-2 109 -2 219z" />
    <glyph glyph-name="afii10195" unicode="&#x473;" horiz-adv-x="1099" 
d="M550 862q-200 0 -221 -258h441q-9 138 -68 198q-58 60 -152 60zM550 177q94 0 154 61t68 220h-444q8 -159 68 -220t154 -61zM118 519q0 143 25 239t97 170q119 123 310 123t310 -123q70 -74 96 -170t26 -239t-26 -239t-96 -169q-119 -123 -310 -123t-310 123
q-72 74 -97 169t-25 239z" />
    <glyph glyph-name="afii10148" unicode="&#x474;" horiz-adv-x="1138" 
d="M146 1466q35 0 61 -22t46 -85l316 -973l317 973q20 62 46 85q55 48 129 1q60 -38 24 -153l-395 -1188q-20 -62 -48 -88t-73 -24q-46 0 -73 25t-47 87l-396 1188q-36 114 25 153q33 21 68 21z" />
    <glyph glyph-name="afii10196" unicode="&#x475;" horiz-adv-x="919" 
d="M156 1047q38 1 60 -25q21 -26 37 -76l207 -623l207 623q16 50 37 75q22 25 60 25t66 -18t36 -48q10 -30 -12 -96l-265 -775q-21 -64 -51 -91q-30 -26 -78 -26q-47 0 -78 27t-51 90l-265 775q-24 67 -14 96t38 48t66 19z" />
    <glyph glyph-name="afii10050" unicode="&#x490;" horiz-adv-x="1139" 
d="M867 1458v182q1 69 23 110t88 41t94 -50q17 -31 17 -101v-243q0 -72 -32 -104t-104 -31h-542v-1120q-1 -68 -23 -109t-88 -41t-94 50q-17 31 -17 100v1181q0 71 32 103t104 32h542z" />
    <glyph glyph-name="afii10098" unicode="&#x491;" horiz-adv-x="881" 
d="M375 134q0 -142 -105 -142q-64 0 -84 40t-20 102v776q0 69 30 99t98 29h344v152q0 62 20 102t84 40t84 -40t21 -102v-212q0 -68 -30 -98t-98 -30h-344v-716z" />
    <glyph glyph-name="uni0492" unicode="&#x492;" horiz-adv-x="1187" 
d="M451 142q-1 -68 -23 -109t-88 -41t-94 50q-17 31 -17 100v505h-60q-57 1 -89 19t-31 69q-1 51 31 69t89 19h60v500q0 71 32 103t104 32h636q63 0 99 -20t37 -78q0 -58 -36 -78t-100 -20h-550v-439h240q57 -1 89 -19t32 -69t-32 -69t-89 -19h-240v-505z" />
    <glyph glyph-name="uni0493" unicode="&#x493;" horiz-adv-x="932" 
d="M583 612q109 0 109 -80t-109 -79h-159v-319q0 -62 -20 -102t-84 -40t-84 40t-21 102v319h-45q-110 0 -110 79q0 48 30 64t80 16h45v298q0 69 30 99t98 29h427q61 0 85 -14q43 -26 43 -80t-34 -74t-94 -20h-346v-238h159z" />
    <glyph glyph-name="uni0496" unicode="&#x496;" horiz-adv-x="2000" 
d="M953 -8q-113 0 -110 150v507h-72l-487 -591q-30 -36 -52 -51t-55 -15t-68 30t-35 64t10 53q11 19 39 54l471 570l-428 503q-28 34 -39 53t-11 53t36 65q36 29 69 29t55 -15t51 -51l449 -546h67v462q0 43 2 61q3 18 14 39q29 50 95 50t94 -50q16 -29 16 -100v-462h66
l450 546q30 36 52 51t54 15t68 -30t36 -64t-11 -53t-38 -53l-428 -503l468 -566h17q72 0 104 -32t31 -104v-247q0 -70 -16 -101q-29 -50 -95 -50t-93 50q-17 31 -17 101v186q-26 1 -46 16t-49 51l-481 582h-72v-507q0 -66 -16 -100q-28 -50 -95 -50z" />
    <glyph glyph-name="uni0497" unicode="&#x497;" horiz-adv-x="1584" 
d="M1525 -140q0 -141 -105 -143q-63 0 -89 50q-15 31 -15 93v140q-29 8 -72 57l-339 386h-45v-309q0 -62 -20 -102t-84 -40t-84 40t-21 102v309h-44l-343 -391q-30 -34 -50 -47t-51 -13t-61 26t-30 66q0 39 48 94l318 364l-288 318q-90 97 -16 162q28 25 59 25q31 1 51 -13
t50 -48l313 -360h44v278q0 141 105 143q63 0 89 -50q15 -31 15 -93v-278h45l314 360q88 100 162 34q30 -28 30 -68t-48 -92l-289 -318l309 -354h14q69 0 99 -30t29 -98v-200z" />
    <glyph glyph-name="uni049A" unicode="&#x49a;" horiz-adv-x="1357" 
d="M411 142q-1 -68 -23 -109t-88 -41t-94 50q-17 31 -17 100v1174q1 68 23 109t88 41t94 -50q17 -31 17 -100v-462h76l450 546q29 36 51 51t55 15t69 -30t35 -64q0 -34 -11 -53t-38 -53l-428 -503l468 -566h17q71 0 103 -32t32 -104v-247q0 -70 -16 -101q-28 -50 -94 -50
t-95 50q-16 29 -16 101v186q-27 1 -47 16t-48 51l-481 582h-82v-507z" />
    <glyph glyph-name="uni049B" unicode="&#x49b;" horiz-adv-x="1102" 
d="M375 134q0 -142 -105 -142q-64 0 -84 40t-20 102v770q0 62 20 102t84 40q63 0 89 -49q15 -31 16 -93v-278h49l313 360q30 34 50 47q19 13 51 13t62 -26q30 -28 30 -68t-48 -92l-289 -318l309 -354h13q69 0 99 -30t29 -98v-200q-1 -62 -21 -102t-83 -40t-89 49
q-15 31 -15 93v140q-29 8 -72 57l-339 386h-49v-309z" />
    <glyph glyph-name="uni049C" unicode="&#x49c;" horiz-adv-x="1439" 
d="M546 1032q0 120 88 120t89 -120v-178h98l292 522q26 46 49 68t59 22t61 -15q56 -33 54 -91q-1 -32 -34 -91l-295 -515l323 -565q34 -59 35 -91q2 -58 -54 -91q-26 -15 -62 -15t-59 22t-48 68l-321 567h-98v-187q-1 -120 -89 -120t-88 120v187h-135v-507q-1 -68 -23 -109
t-88 -41t-94 50q-17 31 -17 100v1174q1 68 23 109t88 41t94 -50q17 -31 17 -100v-462h135v178z" />
    <glyph glyph-name="uni049D" unicode="&#x49d;" horiz-adv-x="1207" 
d="M375 134q0 -142 -105 -142q-64 0 -84 40t-20 102v770q0 62 20 102t84 40q63 0 89 -49q15 -31 16 -93v-278h98v142q0 49 12 74q21 37 69 37t69 -37q12 -25 12 -74v-142h63l210 342q27 43 48 61q20 18 52 18t59 -18q49 -31 49 -71t-36 -98l-212 -330l226 -352
q35 -58 35 -98q-1 -40 -39 -64t-69 -24t-52 18t-47 61l-228 372h-59v-149q0 -50 -16 -80q-17 -30 -65 -30t-64 30t-17 80v149h-98v-309z" />
    <glyph glyph-name="uni04A2" unicode="&#x4a2;" horiz-adv-x="1438" 
d="M1224 197h12q72 0 104 -32t31 -104v-247q0 -70 -16 -101q-29 -50 -95 -50t-94 50q-16 29 -16 101v186h-12q-72 0 -104 32t-32 103v503h-591v-496q-1 -68 -23 -109t-88 -41t-94 50q-17 31 -17 100v1174q1 68 23 109t88 41t94 -50q17 -31 17 -100v-481h591v481q0 68 22 109
t90 41q66 0 93 -50q17 -31 17 -100v-1119z" />
    <glyph glyph-name="uni04A3" unicode="&#x4a3;" horiz-adv-x="1189" 
d="M375 134q0 -142 -105 -142q-64 0 -84 40t-20 102v770q0 62 20 102t84 40q63 0 89 -49q15 -31 16 -93v-279h416v279q1 62 21 102t83 40t89 -49q15 -31 15 -93v-716h3q69 0 99 -30t29 -98v-200q0 -62 -20 -102t-84 -40q-63 0 -89 49q-15 31 -15 93v140h-3q-69 0 -99 30
t-29 98v314h-416v-308z" />
    <glyph glyph-name="uni04AE" unicode="&#x4ae;" horiz-adv-x="1071" 
d="M154 1466q28 0 52 -16t53 -76l277 -554l276 554q30 60 54 76t50 16q28 0 53 -12q55 -28 57 -72t-28 -101l-352 -700v-439q0 -69 -16 -100q-28 -50 -94 -50t-95 50q-16 29 -16 100v439l-352 700q-29 57 -27 101t56 72q24 12 52 12z" />
    <glyph glyph-name="uni04AF" unicode="&#x4af;" horiz-adv-x="991" 
d="M150 1048q34 0 57 -20q24 -20 45 -79l244 -656l243 656q23 59 45 79q24 20 58 20t64 -23t35 -55q4 -32 -17 -90l-324 -864v-301q0 -62 -20 -102t-84 -40t-84 40t-21 102v301l-323 864q-22 58 -18 90t35 56q31 22 65 22z" />
    <glyph glyph-name="uni04B0" unicode="&#x4b0;" horiz-adv-x="1071" 
d="M154 1466q28 0 52 -16t53 -76l277 -554l276 554q30 60 54 76t50 16q28 0 53 -12q55 -28 57 -72t-28 -101l-352 -699h116q58 0 81 -14q40 -24 40 -74q1 -50 -31 -70q-32 -18 -90 -18h-116v-264q0 -69 -16 -100q-28 -50 -94 -50t-95 50q-16 29 -16 100v264h-119
q-56 0 -88 18t-32 70q0 51 40 74q23 13 80 14h118l-351 699q-29 57 -27 101t56 72q24 12 52 12z" />
    <glyph glyph-name="uni04B1" unicode="&#x4b1;" horiz-adv-x="991" 
d="M700 25q110 0 110 -81q0 -47 -37 -68q-20 -12 -73 -12h-100v-149q0 -62 -20 -102t-84 -40t-84 40t-21 102v149h-100q-54 0 -74 12q-37 20 -37 68t37 68q20 12 74 13h99l-322 855q-22 58 -18 90t35 56q31 22 65 22t57 -20q24 -20 45 -79l244 -656l243 656q23 59 45 79
q24 20 58 20t64 -23t35 -55q4 -32 -17 -90l-324 -855h100z" />
    <glyph glyph-name="uni04B2" unicode="&#x4b2;" horiz-adv-x="1238" 
d="M1170 -186q0 -70 -16 -101q-28 -50 -94 -50t-94 50q-17 31 -17 101v186h-6q-38 0 -61 22t-48 68l-266 470l-269 -478q-26 -46 -49 -68t-59 -22t-61 15q-56 33 -54 91q1 32 35 91l321 560l-299 520q-34 59 -35 91q-2 58 55 91q25 15 61 15t59 -22t49 -68l246 -441l247 441
q26 46 49 68t59 22t61 -15q56 -33 54 -91q-1 -32 -34 -91l-299 -519l317 -553h13q72 0 104 -32t31 -104v-247z" />
    <glyph glyph-name="uni04B3" unicode="&#x4b3;" horiz-adv-x="994" 
d="M186 -8q-32 0 -59 17q-49 31 -49 71t36 98l221 343l-216 339q-36 58 -36 98q1 40 39 64t69 24t52 -17q21 -18 48 -61l171 -280l169 280q27 43 47 61t52 18t60 -18q49 -31 49 -71t-36 -98l-215 -338l213 -334h6q69 0 99 -30t29 -98v-200q-1 -62 -21 -102t-84 -40t-89 49
q-15 31 -15 93v140q-30 1 -50 19t-45 60l-169 278l-176 -286q-27 -43 -48 -61q-20 -18 -52 -18z" />
    <glyph glyph-name="uni04B6" unicode="&#x4b6;" horiz-adv-x="1349" 
d="M562 523q-98 1 -152 13t-104 40q-164 93 -164 307v433q0 68 22 109t90 41q66 0 93 -50q17 -31 17 -100v-380q0 -214 225 -214q128 0 324 40v554q1 68 23 109t88 41t94 -50q17 -31 17 -100v-1119h12q71 0 103 -32t32 -104v-247q0 -67 -16 -101q-28 -50 -95 -50t-94 50
q-18 32 -16 101v186h-12q-72 0 -104 32t-32 103v436q-253 -48 -351 -48z" />
    <glyph glyph-name="uni04B7" unicode="&#x4b7;" horiz-adv-x="1129" 
d="M939 188h3q68 0 98 -30t30 -98v-200q0 -62 -20 -102t-84 -40q-63 0 -89 49q-15 31 -16 93v140h-3q-68 0 -98 30t-30 98v256q-170 -34 -304 -34t-216 75t-82 214v265q0 62 20 102t84 40q63 0 90 -49q15 -31 15 -93v-212q0 -156 160 -155q93 0 233 26v341q0 62 20 102
t84 40t90 -49q15 -31 15 -93v-716z" />
    <glyph glyph-name="uni04B8" unicode="&#x4b8;" horiz-adv-x="1372" 
d="M1072 -8q-113 0 -110 150v429q-127 -25 -210 -34v-199q0 -120 -88 -120q-51 0 -70 32t-20 88v186q-11 -1 -73 -1q-62 1 -130 21q-229 69 -229 339v433q0 68 22 109t90 41q66 0 93 -50q17 -31 17 -100v-380q0 -109 54 -155t148 -48h8v177q0 120 90 120q86 0 88 -120v-181
q91 10 209 33l1 554q0 43 2 61q3 18 14 39q28 50 94 50t94 -50q17 -31 17 -100v-1174q-1 -68 -23 -109t-88 -41z" />
    <glyph glyph-name="uni04B9" unicode="&#x4b9;" horiz-adv-x="1174" 
d="M1009 134q0 -142 -105 -142q-64 0 -84 40t-20 102v250q-96 -17 -151 -24v-152q0 -50 -16 -80q-17 -30 -65 -30t-64 30t-17 80v142h-51q-141 0 -225 74q-83 75 -83 215v265q0 62 20 102t84 40q63 0 90 -49q15 -31 15 -93v-214q0 -138 150 -138v130q0 111 81 111
q48 0 69 -37q12 -25 12 -74v-139q57 3 151 20v341q0 62 20 102t84 40q63 0 89 -49q15 -31 16 -93v-770z" />
    <glyph glyph-name="uni04BA" unicode="&#x4ba;" horiz-adv-x="1319" 
d="M1072 -8q-113 0 -110 150v380q0 213 -224 213q-138 0 -327 -41v-552q-1 -68 -23 -109t-88 -41t-94 50q-17 31 -17 100v1174q1 68 23 109t88 41t94 -50q17 -31 17 -100v-429q242 47 348 47t160 -12q55 -12 103 -40q162 -93 161 -307v-433q-1 -68 -23 -109t-88 -41z" />
    <glyph glyph-name="uni04BB" unicode="&#x4bb;" horiz-adv-x="1103" 
d="M375 134q0 -142 -105 -142q-64 0 -84 40t-20 102v770q0 62 20 102t84 40q63 0 89 -49q15 -31 16 -93v-249q182 34 310 34t210 -75t82 -215v-265q-1 -62 -21 -102t-84 -40t-84 40t-20 102v213q0 154 -161 154q-99 0 -232 -26v-341z" />
    <glyph glyph-name="uni04C0" unicode="&#x4c0;" horiz-adv-x="600" 
d="M411 142q-1 -68 -23 -109t-88 -41t-94 50q-17 31 -17 100v1174q1 68 23 109t88 41t94 -50q17 -31 17 -100v-1174z" />
    <glyph glyph-name="uni04CF" unicode="&#x4cf;" horiz-adv-x="540" 
d="M270 1466q105 0 105 -142v-1190q0 -142 -105 -142q-64 0 -84 40t-20 102v1190q0 62 20 102t84 40z" />
    <glyph glyph-name="uni04D8" unicode="&#x4d8;" horiz-adv-x="1315" 
d="M350 601v-22q0 -120 18 -188t67 -119q88 -88 219 -88t216 91q45 49 63 117t21 209h-604zM1178 729q0 -314 -34 -414t-113 -179q-147 -148 -375 -148t-376 148q-82 84 -112 190t-30 292v22q0 72 32 104t103 31h683q-2 186 -18 268t-69 140q-85 91 -197 91t-177 -50
t-99 -130t-62 -101q-27 -21 -69 -21t-74 30q-58 58 -2 193q27 65 91 133q133 142 368 142q234 0 383 -148q140 -140 145 -374q2 -109 2 -219z" />
    <glyph glyph-name="afii10846" unicode="&#x4d9;" horiz-adv-x="1100" 
d="M548 162q72 0 126 35q103 67 107 237h-467q6 -91 31 -146q25 -54 78 -90t125 -36zM549 -12q-201 0 -318 131t-122 341q-1 62 27 91t93 29h552q0 135 -69 214q-69 78 -192 78t-205 -65q-47 -38 -82 -38t-61 27t-28 62q0 59 103 126t289 67t319 -121t133 -392
q0 -272 -119 -411t-320 -139z" />
    <glyph glyph-name="uni04E2" unicode="&#x4e2;" horiz-adv-x="1455" 
d="M524 1640q-114 0 -114 84t114 84h409q115 0 115 -83t-115 -85h-409zM1266 142q0 -68 -22 -109t-90 -41q-66 0 -93 50q-17 31 -17 100v908l-612 -961q-33 -50 -62 -74q-29 -23 -72 -23t-76 33t-33 107v1184q1 68 23 109t88 41t94 -50q17 -31 17 -100v-907l613 960
q33 51 62 74t72 23q44 0 76 -32t32 -108v-1184z" />
    <glyph glyph-name="uni04E3" unicode="&#x4e3;" horiz-adv-x="1182" 
d="M796 1435q113 0 113 -84t-113 -84h-409q-115 0 -115 83t115 85h409zM1017 134q0 -142 -105 -142q-64 0 -84 40t-20 102v562l-404 -605q-36 -53 -64 -76t-70 -23t-73 30t-31 105v777q0 62 20 102t84 40q63 0 89 -49q15 -31 16 -93v-561l404 603q37 54 65 77t70 23t72 -30
q31 -32 31 -105v-777z" />
    <glyph glyph-name="uni04E8" unicode="&#x4e8;" horiz-adv-x="1325" 
d="M662 1274q-132 0 -217 -91q-47 -51 -65 -123t-21 -227h606q-3 155 -21 227t-64 123q-86 91 -218 91zM662 184q131 0 218 92q48 51 65 125t20 236h-606q2 -163 20 -237t66 -124q86 -92 217 -92zM138 729q0 314 34 414t113 179q148 148 377 148t377 -148q119 -119 137 -295
q11 -98 11 -252q0 -359 -35 -460t-113 -179q-148 -148 -377 -148t-377 148q-140 140 -145 374q-2 109 -2 219z" />
    <glyph glyph-name="uni04E9" unicode="&#x4e9;" horiz-adv-x="1099" 
d="M550 862q-200 0 -221 -258h441q-9 138 -68 198q-58 60 -152 60zM550 177q94 0 154 61t68 220h-444q8 -159 68 -220t154 -61zM118 519q0 143 25 239t97 170q119 123 310 123t310 -123q70 -74 96 -170t26 -239t-26 -239t-96 -169q-119 -123 -310 -123t-310 123
q-72 74 -97 169t-25 239z" />
    <glyph glyph-name="uni04EE" unicode="&#x4ee;" horiz-adv-x="1063" 
d="M342 1640q-115 0 -115 84t115 84h409q114 0 114 -83t-114 -85h-409zM262 0q-62 0 -98 20t-37 78q0 59 45 84q26 14 83 14t88 22q30 22 57 75l25 48l-367 947q-25 66 -19 96q7 30 33 57t66 27q42 0 63 -18q21 -16 30 -33t24 -55l283 -738l271 738q24 65 49 85q26 21 68 21
t66 -27q24 -26 31 -56q6 -30 -17 -97l-378 -1007q-105 -281 -332 -281h-34z" />
    <glyph glyph-name="uni04EF" unicode="&#x4ef;" horiz-adv-x="919" 
d="M663 1435q113 0 113 -84t-113 -84h-409q-115 0 -115 83t115 85h409zM156 1047q38 1 60 -25q21 -26 37 -76l205 -636l209 636q16 50 37 75q22 25 60 25t66 -18q28 -19 38 -50t-14 -94l-378 -1092q-74 -206 -279 -206q-128 0 -126 96q0 91 101 93q49 1 81 25t53 85l50 153
l-290 846q-24 67 -14 96t38 48t66 19z" />
    <glyph glyph-name="Wgrave" unicode="&#x1e80;" horiz-adv-x="1771" 
d="M740 1972q26 0 44 -14q20 -14 49 -58l95 -153q31 -50 31 -76q3 -48 -44 -79q-25 -15 -51 -15q-26 1 -44 15q-20 14 -48 58l-95 152q-31 50 -32 76q-3 48 44 79q25 15 51 15zM886 1465q48 0 74 -25t39 -75l267 -953l233 938q16 66 40 92t64 24q39 0 69 -20t37 -50t-9 -97
l-295 -1183q-32 -126 -130 -124q-45 0 -79 27q-32 27 -51 97l-259 923l-259 -923q-34 -126 -132 -125q-97 1 -128 125l-295 1183q-16 67 -10 97t37 50q30 20 70 20q39 0 63 -26t40 -90l234 -938l266 953q14 50 40 75t74 25z" />
    <glyph glyph-name="wgrave" unicode="&#x1e81;" horiz-adv-x="1501" 
d="M639 1280l-95 153q-31 50 -32 75q-3 48 44 79q54 33 98 -1q17 -12 45 -56l96 -153q31 -50 31 -75q3 -48 -44 -79q-54 -33 -98 1q-17 12 -45 56zM751 1047q43 0 71 -25t50 -98l188 -614l179 630q17 60 41 84t60 23t64 -21t36 -50t-10 -90l-228 -765q-24 -79 -55 -105
t-75 -24q-44 0 -76 25t-55 104l-190 613l-191 -613q-24 -79 -55 -105t-75 -24q-44 0 -76 25t-55 104l-227 765q-17 60 -11 90q7 30 35 50t66 20t60 -22q22 -23 40 -84l179 -630l188 614q23 74 51 98t71 25z" />
    </font>
</defs>
</svg>
